<?xml version="1.0" standalone="no"?>
<!DOCTYPE svg PUBLIC "-//W3C//DTD SVG 1.1//EN" "http://www.w3.org/Graphics/SVG/1.1/DTD/svg11.dtd" >
<svg xmlns="http://www.w3.org/2000/svg">
<metadata>
Created by FontPrep 20130207 at Tue Jul 26 11:49:53 2016
 By Hollins, Richie
Copyright 2016 Dalton Maag Ltd. Modification of this file requires prior written permission from Dalton Maag Ltd.
</metadata>
<defs>
<font id="5058f1af8388633f609cadb75a75dc9d" horiz-adv-x='1024' >
  <font-face 
    font-family="."
    font-weight="300"
    font-stretch="normal"
    units-per-em="2048"
    panose-1="2 11 5 3 2 2 4 3 2 4"
    ascent="1638"
    descent="-410"
    x-height="1030"
    cap-height="1434"
    bbox="-307 -1094 2603 2150"
    underline-thickness="151"
    underline-position="-148"
    unicode-range="U+0008-FFFD"
  />
<missing-glyph horiz-adv-x="1024" 
d="M819 1444h-614v-1342h614v1342zM102 0v1546h820v-1546h-820z" />
    <glyph glyph-name="uniF600" unicode="fb" horiz-adv-x="1794" 
d="M201 0v936h-156v88l156 6v232q1 152 75 232t218 81q66 0 120 -16v-93q-55 12 -104 13q-96 -1 -141 -51t-45 -156v-242h276v-94h-276v-936h-123zM1252 963q-147 0 -302 -84v-779q106 -33 224 -32q198 0 292 114t94 336q0 223 -80 334q-81 111 -228 111zM1260 1061
q202 0 316 -140q114 -141 114 -401t-130 -405t-376 -146q-174 0 -357 58v1511l123 16v-585q167 92 310 92z" />
    <glyph glyph-name="uniF601" unicode="fj" horiz-adv-x="1122" 
d="M201 0v936h-156v88l156 6v232q1 152 75 232t218 81q66 0 120 -16v-93q-55 12 -104 13q-96 -1 -141 -51t-45 -156v-242h276v-94h-276v-936h-123zM889 1280q-41 0 -67 25t-26 67t26 68q26 24 67 24t67 -24t25 -68q1 -44 -25 -68t-67 -24zM950 -41q0 -197 -95 -307
t-271 -113l-25 101q131 0 200 78t68 229v1073l123 16v-1077z" />
    <glyph glyph-name="uniF602" unicode="fk" horiz-adv-x="1597" 
d="M201 0v936h-156v88l156 6v232q1 152 75 232t218 81q66 0 120 -16v-93q-55 12 -104 13q-96 -1 -141 -51t-45 -156v-242h276v-94h-276v-936h-123zM827 0v1538l123 16v-981l484 457h145l-506 -479l522 -551h-155l-490 520v-520h-123z" />
    <glyph glyph-name="uniF603" unicode="ft" horiz-adv-x="1286" 
d="M201 0v936h-156v88l156 6v232q0 152 74.5 232.5t218.5 80.5q66 0 120 -16v-93q-55 12 -104 13q-96 0 -141 -50.5t-45 -156.5v-242h479l12 258l107 12v-270h309v-94h-309v-655q0 -106 45 -156.5t123 -50.5t155 22v-90q-86 -29 -158 -29q-141 0 -214.5 77t-73.5 229v653
h-475v-936h-123z" />
    <glyph glyph-name="uniF604" unicode="fh" horiz-adv-x="1794" 
d="M201 0v936h-156v88l156 6v232q1 152 75 232t218 81q66 0 120 -16v-93q-55 12 -104 13q-96 -1 -141 -51t-45 -156v-242h276v-94h-276v-936h-123zM1257 963q-135 0 -307 -84v-879h-123v1538l123 16v-587q172 94 338 94t257 -86t91 -244v-731h-123v711q0 252 -256 252z" />
    <glyph glyph-name="uniFB00" unicode="ff" horiz-adv-x="1282" 
d="M201 0v936h-156v88l156 6v232q0 152 74.5 232.5t218.5 80.5q74 0 141 -23v-92q-63 18 -142 18t-124 -50t-45 -156v-242h503v232q0 152 75 232.5t218 80.5q78 0 158 -29v-90q-74 23 -156 23t-127 -50.5t-45 -156.5v-242h277v-94h-277v-936h-123v936h-503v-936h-123z" />
    <glyph glyph-name="uniFB01" unicode="fi" horiz-adv-x="1122" 
d="M201 0v936h-156v88l156 6v232q1 152 75 232t218 81q66 0 120 -16v-93q-55 12 -104 13q-96 -1 -141 -51t-45 -156v-242h276v-94h-276v-936h-123zM889 1280q-41 0 -67 25t-26 67t26 68q26 24 67 24t67 -24t25 -68q1 -44 -25 -68t-67 -24zM827 0v1020l123 16v-1036h-123z
" />
    <glyph glyph-name="uniFB02" unicode="fl" horiz-adv-x="1122" 
d="M201 0v936h-156v88l156 6v232q1 152 75 232t218 81q66 0 120 -16v-93q-55 12 -104 13q-96 -1 -141 -51t-45 -156v-242h276v-94h-276v-936h-123zM827 0v1538l123 16v-1554h-123z" />
    <glyph glyph-name="uniFB03" unicode="ffi" horiz-adv-x="1748" 
d="M201 0v936h-156v88l156 6v232q1 152 75 232t218 81q74 0 141 -23v-92q-63 18 -142 18t-124 -50t-45 -156v-242h503v232q0 152 75 232t218 81q66 0 121 -16v-93q-55 12 -104 13q-95 -1 -141 -51t-46 -156v-242h277v-94h-277v-936h-123v936h-503v-936h-123zM1516 1280
q-41 0 -67 25t-26 67t26 68q26 24 67 24q40 0 66 -24t26 -68t-26 -68t-66 -24zM1454 0v1020l123 16v-1036h-123z" />
    <glyph glyph-name="uniFB04" unicode="ffl" horiz-adv-x="1748" 
d="M201 0v936h-156v88l156 6v232q1 152 75 232t218 81q74 0 141 -23v-92q-63 18 -142 18t-124 -50t-45 -156v-242h503v232q0 152 75 232t218 81q66 0 121 -16v-93q-55 12 -104 13q-95 -1 -141 -51t-46 -156v-242h277v-94h-277v-936h-123v936h-503v-936h-123zM1454 0v1538
l123 16v-1554h-123z" />
    <glyph glyph-name="f_f_b.liga" unicode="ffb" horiz-adv-x="2420" 
d="M201 0v936h-156v88l156 6v232q1 152 75 232t218 81q74 0 141 -23v-92q-63 18 -142 18t-124 -50t-45 -156v-242h503v232q0 152 75 232t218 81q66 0 121 -16v-93q-55 12 -104 13q-95 -1 -141 -51t-46 -156v-242h277v-94h-277v-936h-123v936h-503v-936h-123zM2187 518
q-1 223 -81 334t-228 111t-301 -84v-779q106 -33 223 -32q387 0 387 450zM1886 1061q201 0 316 -140q114 -141 114 -401t-130 -405t-376 -146q-174 0 -356 58v1511l123 16v-585q167 92 309 92z" />
    <glyph glyph-name="f_f_h.liga" unicode="ffh" horiz-adv-x="2420" 
d="M201 0v936h-156v88l156 6v232q1 152 75 232t218 81q74 0 141 -23v-92q-63 18 -142 18t-124 -50t-45 -156v-242h503v232q0 152 75 232t218 81q66 0 121 -16v-93q-55 12 -104 13q-95 -1 -141 -51t-46 -156v-242h277v-94h-277v-936h-123v936h-503v-936h-123zM1884 963
q-135 0 -307 -84v-879h-123v1538l123 16v-587q172 94 338 94t257 -86t91 -244v-731h-123v711q0 252 -256 252z" />
    <glyph glyph-name="f_f_j.liga" unicode="ffj" horiz-adv-x="1748" 
d="M201 0v936h-156v88l156 6v232q1 152 75 232t218 81q74 0 141 -23v-92q-63 18 -142 18t-124 -50t-45 -156v-242h503v232q0 152 75 232t218 81q66 0 121 -16v-93q-55 12 -104 13q-95 -1 -141 -51t-46 -156v-242h277v-94h-277v-936h-123v936h-503v-936h-123zM1516 1280
q-41 0 -67 25t-26 67t26 68q26 24 67 24q40 0 66 -24t26 -68t-26 -68t-66 -24zM1454 -53v1073l123 16v-1077q0 -197 -95 -307t-272 -113l-24 101q132 0 200 78t68 229z" />
    <glyph glyph-name="f_f_k.liga" unicode="ffk" horiz-adv-x="2224" 
d="M201 0v936h-156v88l156 6v232q1 152 75 232t218 81q74 0 141 -23v-92q-63 18 -142 18t-124 -50t-45 -156v-242h503v232q0 152 75 232t218 81q66 0 121 -16v-93q-55 12 -104 13q-95 -1 -141 -51t-46 -156v-242h277v-94h-277v-936h-123v936h-503v-936h-123zM1454 0v1538
l123 16v-981l483 457h146l-506 -479l522 -551h-156l-489 520v-520h-123z" />
    <glyph glyph-name="f_f_t.liga" unicode="fft" horiz-adv-x="1912" 
d="M201 0v936h-156v88l156 6v232q0 152 74.5 232.5t218.5 80.5q74 0 141 -23v-92q-63 18 -142 18t-124 -50t-45 -156v-242h503v232q0 152 75 232.5t218 80.5q66 0 121 -16v-93q-55 12 -104 13q-96 0 -141.5 -50.5t-45.5 -156.5v-242h480l12 258l106 12v-270h310v-94h-310
v-655q0 -106 45 -156.5t123 -50.5t156 22v-90q-86 -29 -158 -29q-141 0 -215 77t-74 229v653h-475v-936h-123v936h-503v-936h-123z" />
    <glyph glyph-name=".notdef" horiz-adv-x="1024" 
d="M819 1444h-614v-1342h614v1342zM102 0v1546h820v-1546h-820z" />
    <glyph glyph-name=".null" horiz-adv-x="0" 
 />
    <glyph glyph-name="nonmarkingreturn" horiz-adv-x="681" 
 />
    <glyph glyph-name="uni0008" horiz-adv-x="0" 
 />
    <glyph glyph-name="uni0008" horiz-adv-x="0" 
 />
    <glyph glyph-name="uni0008" horiz-adv-x="0" 
 />
    <glyph glyph-name="uni0009" unicode="&#x9;" horiz-adv-x="512" 
 />
    <glyph glyph-name="uni0009" unicode="&#xd;" horiz-adv-x="512" 
 />
    <glyph glyph-name="space" unicode=" " horiz-adv-x="512" 
 />
    <glyph glyph-name="exclam" unicode="!" horiz-adv-x="591" 
d="M297 -10q-41 0 -67.5 25.5t-26.5 68.5t26.5 68.5t67.5 25.5t67.5 -25.5t26.5 -68.5t-26.5 -68.5t-67.5 -25.5zM250 410l-19 1024l131 16l-18 -1040h-94z" />
    <glyph glyph-name="quotedbl" unicode="&#x22;" horiz-adv-x="710" 
d="M164 963l-23 471h127l-22 -471h-82zM465 963l-23 471h127l-22 -471h-82z" />
    <glyph glyph-name="numbersign" unicode="#" horiz-adv-x="1228" 
d="M401 522h361l65 359h-360zM1212 971v-90h-282l-66 -359h307v-90h-323l-78 -432h-102l77 432h-360l-78 -432h-102l78 432h-267v90h283l66 359h-308v90h324l78 432h102l-78 -432h361l78 432h102l-78 -432h266z" />
    <glyph glyph-name="dollar" unicode="$" horiz-adv-x="1228" 
d="M311 1072q0 -102 51.5 -153t188.5 -94l45 -14v520q-135 -16 -210 -86.5t-75 -172.5zM948 374q0 118 -59.5 183.5t-204.5 114.5v-594q129 23 196.5 100.5t67.5 195.5zM594 -301v270h-27q-213 0 -393 88l-16 103q223 -92 407 -92h29v630l-84 27q-322 99 -322 325
q0 112 79.5 234.5t328.5 145.5v274h90v-270q164 -2 328 -74v-96q-180 70 -328 71v-553l21 -6q197 -63 280.5 -152t83.5 -247t-102.5 -265.5t-284.5 -134.5v-278h-90z" />
    <glyph glyph-name="percent" unicode="%" horiz-adv-x="1867" 
d="M508 0l741 1403h111l-742 -1403h-110zM410 514q-158 0 -242 116t-84 339t84 339t242 116t242 -116t83 -339q1 -223 -83 -339t-242 -116zM410 596q108 0 160 90t53 283q-1 193 -53 283t-160 89q-108 0 -161 -90q-52 -91 -52 -283t52 -282t161 -90zM1458 -20
q-158 0 -242 116t-83 338q0 223 84 339q83 116 241 116t242 -116t84 -339q0 -222 -84 -338t-242 -116zM1458 61q109 1 161 91t52 282t-52 283q-52 90 -161 90t-161 -90t-52 -283t52 -283t161 -90z" />
    <glyph glyph-name="ampersand" unicode="&#x26;" horiz-adv-x="1280" 
d="M315 1167q0 -82 39 -150.5t140 -176.5q137 82 196.5 154.5t59.5 163.5t-61 151.5t-157 60.5t-156.5 -60.5t-60.5 -142.5zM466 68q110 0 201 58t181 183l-381 410q-137 -88 -199.5 -178t-62.5 -206t75.5 -191.5t185.5 -75.5zM78 334q0 264 323 454q-113 125 -155.5 203
t-42.5 162q0 139 91 225t237 86t238.5 -86t92.5 -207t-69.5 -210t-235.5 -191l350 -373q147 211 260 355l33 -123q-119 -143 -223 -305l305 -324h-147l-220 233q-192 -264 -444 -264q-174 0 -283.5 101.5t-109.5 263.5z" />
    <glyph glyph-name="quotesingle" unicode="'" horiz-adv-x="409" 
d="M164 963l-23 471h127l-22 -471h-82z" />
    <glyph glyph-name="parenleft" unicode="(" horiz-adv-x="649" 
d="M154 618.5q0 247.5 73.5 496.5t200.5 427l104 -10q-117 -166 -183 -408.5t-66 -505t66.5 -505t182.5 -408.5l-104 -10q-127 178 -200.5 427t-73.5 496.5z" />
    <glyph glyph-name="parenright" unicode=")" horiz-adv-x="649" 
d="M496 618.5q0 -247.5 -74 -496.5t-201 -427l-104 10q117 166 183.5 408.5t66.5 505t-67 505t-183 408.5l104 10q127 -178 201 -427t74 -496.5z" />
    <glyph glyph-name="asterisk" unicode="*" horiz-adv-x="919" 
d="M512 1464l-8 -313l297 104l35 -98l-308 -88l193 -248l-82 -59l-178 258l-178 -258l-82 59l192 248l-307 88l35 98l297 -104l-8 313h102z" />
    <glyph glyph-name="plus" unicode="+" horiz-adv-x="1228" 
d="M668 653v-405h-107v405h-389v97h389v405h107v-405h389v-97h-389z" />
    <glyph glyph-name="comma" unicode="," horiz-adv-x="421" 
d="M213 178q92 0 92 -136q0 -73 -58.5 -186.5t-146.5 -193.5l-45 29q121 158 125 303q-63 16 -63 90q0 43 26.5 68.5t69.5 25.5z" />
    <glyph glyph-name="hyphen" unicode="-" horiz-adv-x="739" 
d="M102 463v106h535v-106h-535z" />
    <glyph glyph-name="period" unicode="." horiz-adv-x="421" 
d="M211 -10q-41 0 -67.5 25.5t-26.5 68.5t26.5 68.5t67.5 25.5t67.5 -25.5t26.5 -68.5t-26.5 -68.5t-67.5 -25.5z" />
    <glyph glyph-name="slash" unicode="/" horiz-adv-x="749" 
d="M55 0l516 1538h123l-516 -1538h-123z" />
    <glyph glyph-name="zero" unicode="0" horiz-adv-x="1241" 
d="M620.5 -31q-243.5 0 -368.5 185.5t-125 546.5t125 547t368.5 186t368.5 -185t125 -547t-125 -547.5t-368.5 -185.5zM620.5 68q184.5 0 274.5 156.5t90 478t-90 477t-274.5 155.5t-274.5 -155.5t-90 -477t90 -478t274.5 -156.5z" />
    <glyph glyph-name="one" unicode="1" horiz-adv-x="733" 
d="M408 0v1270l-353 -236l-26 103l401 266h100v-1403h-122z" />
    <glyph glyph-name="two" unicode="2" horiz-adv-x="1007" 
d="M431 1333q-165 0 -341 -123v103q176 121 374 121t316.5 -103.5t118.5 -246.5t-73.5 -228.5t-170.5 -163.5l-176 -143q-255 -206 -293 -445h568q115 0 172 7v-111h-877q10 184 92 331.5t250 282.5l182 148q113 92 156 157.5t43 143.5q0 121 -88 195.5t-253 74.5z" />
    <glyph glyph-name="three" unicode="3" horiz-adv-x="1024" 
d="M396 68q182 0 284 84t102 225t-96 225t-260 84h-121v98h117q147 0 233 74t86 202t-87.5 201.5t-247.5 73.5t-318 -67v98q147 68 339 68t317.5 -103.5t125.5 -265.5q0 -119 -68.5 -205t-191.5 -123q141 -35 221 -132t80 -224t-64.5 -220t-175.5 -142.5t-231 -49.5
q-235 0 -387 80l-18 107q179 -88 361 -88z" />
    <glyph glyph-name="four" unicode="4" horiz-adv-x="1187" 
d="M776 457v803l-592 -803h592zM1112 358h-219v-358h-117v358h-715v97l699 948h133v-946h47q115 0 172 6v-105z" />
    <glyph glyph-name="five" unicode="5" horiz-adv-x="1083" 
d="M507 772q-167 0 -290 -76l-65 43l65 664h526q115 0 172 6v-111h-598l-49 -491q111 59 293 59q181 0 300.5 -117.5t119.5 -314.5q0 -141 -64.5 -246.5t-178 -162t-237.5 -56.5q-241 0 -390 80l-19 109q180 -88 368 -88t290 96t102 263t-89 255t-256 88z" />
    <glyph glyph-name="six" unicode="6" horiz-adv-x="1130" 
d="M620 768q-129 0 -234 -59.5t-161 -153.5q4 -236 98.5 -361.5t255.5 -125.5t252 97t91 257t-86.5 253t-215.5 93zM629 866q121 0 218 -60.5t149.5 -160.5t52.5 -228t-60.5 -231.5t-165 -160t-233.5 -56.5q-227 0 -356.5 163.5t-129.5 435.5t102.5 460.5t292 291.5
t447.5 114l17 -103q-336 -14 -527.5 -185t-208.5 -472q57 84 169 138t233 54z" />
    <glyph glyph-name="seven" unicode="7" horiz-adv-x="962" 
d="M203 1298q-113 0 -172 -6v111h897v-98q-258 -451 -398.5 -748t-218.5 -557h-129q82 262 224.5 564t390.5 734h-594z" />
    <glyph glyph-name="eight" unicode="8" horiz-adv-x="1185" 
d="M593.5 782q147.5 0 231.5 74t84 202t-84 202.5t-231.5 74.5t-231 -74.5t-83.5 -202.5t83.5 -202t231 -74zM594 68q164 0 259 82.5t95 226t-94 225.5t-260 82t-260 -82t-94 -225.5t95 -226t259 -82.5zM113 375q0 135 79.5 230t223.5 132q-125 37 -193.5 122t-68.5 200
t56 199.5t155.5 130t230.5 45.5t231.5 -48.5t153.5 -133t53 -196.5t-68.5 -197t-193.5 -122q143 -37 223 -132t80 -230q0 -182 -132 -294t-349 -112t-349 112t-132 294z" />
    <glyph glyph-name="nine" unicode="9" horiz-adv-x="1138" 
d="M516 635q129 0 234.5 59.5t160.5 153.5q-4 236 -98 361.5t-255 125.5t-252 -97t-91 -257t86 -253t215 -93zM508 537q-121 0 -218 60t-149.5 160.5t-52.5 228.5t60.5 231.5t165 160t233.5 56.5q227 0 356 -164t129 -451q0 -381 -220 -605t-613 -245l-39 103
q344 10 538.5 182t210.5 475q-57 -84 -168.5 -138t-232.5 -54z" />
    <glyph glyph-name="colon" unicode=":" horiz-adv-x="421" 
d="M211 -10q-41 0 -68 26t-26 68q0 43 26 69q27 25 68 25t68 -26t27 -68q0 -43 -27 -69q-27 -25 -68 -25zM211 842q-41 0 -68 26t-26 68q0 43 26 69q27 25 68 25t68 -26t27 -68q0 -43 -27 -69q-27 -25 -68 -25z" />
    <glyph glyph-name="semicolon" unicode=";" horiz-adv-x="421" 
d="M117 84q0 43 26 69q27 25 70 25t68 -32t25 -104t-59 -186q-58 -114 -147 -194l-45 29q121 158 125 303q-63 16 -63 90zM211 842q-41 0 -68 26t-26 68q0 43 26 69q27 25 68 25t68 -26t27 -68q0 -43 -27 -69q-27 -25 -68 -25z" />
    <glyph glyph-name="less" unicode="&#x3c;" horiz-adv-x="1228" 
d="M172 643v117l885 352v-102l-781 -308l781 -303v-108z" />
    <glyph glyph-name="equal" unicode="=" horiz-adv-x="1228" 
d="M172 434v96h885v-96h-885zM172 872v97h885v-97h-885z" />
    <glyph glyph-name="greater" unicode="&#x3e;" horiz-adv-x="1228" 
d="M1057 760v-117l-885 -352v102l780 307l-780 304v108z" />
    <glyph glyph-name="question" unicode="?" horiz-adv-x="944" 
d="M430 -10q-41 0 -67.5 25.5t-26.5 68.5t26.5 68.5t67.5 25.5t67.5 -25.5t26.5 -68.5t-26.5 -68.5t-67.5 -25.5zM450 1434q185 0 292.5 -93.5t107.5 -246.5q0 -88 -45 -162t-149 -166t-140.5 -168t-38.5 -188h-94q0 129 41 221t138 180t130 144.5t33 129.5q0 117 -77 181.5
t-212 64.5q-174 0 -344 -125v103q173 125 358 125z" />
    <glyph glyph-name="at" unicode="@" horiz-adv-x="1976" 
d="M880 141q97 0 185 55.5t139 149.5q0 23 6 53l74 471q-104 48 -216 48t-204 -69t-142 -182.5t-50 -248.5t55.5 -206t152.5 -71zM102 460q0 270 133.5 497t355.5 351t477 124t435 -95.5t275.5 -263t95.5 -371.5t-56.5 -349.5t-154 -223.5t-205.5 -78q-206 0 -246 180
q-63 -88 -154 -136t-190 -48q-143 0 -228 98.5t-85 269.5t70.5 308t188.5 213t274 76t317 -92l-84 -531q-6 -37 -6 -82q0 -162 135 -162q92 0 162.5 71t109.5 192.5t39 275.5q0 305 -182 479t-498 174q-256 0 -453.5 -119.5t-305 -322.5t-107.5 -446t95.5 -410.5
t269.5 -255.5t402 -88t456 78v-97q-215 -76 -470 -76t-455 105t-305.5 295t-105.5 460z" />
    <glyph glyph-name="A" unicode="A" horiz-adv-x="1204" 
d="M317 485h572l-289 828zM1057 0l-135 387h-639l-131 -387h-134l508 1434h150l510 -1434h-129z" />
    <glyph glyph-name="B" unicode="B" horiz-adv-x="1230" 
d="M598 1343q-115 0 -268 -24v-531h307q147 0 233 77t86 210q0 268 -358 268zM653 102q362 0 363 291q0 141 -96.5 219t-274.5 78h-315v-588h323zM203 0v1403q233 43 433.5 43t324.5 -94.5t124 -266.5q0 -123 -66.5 -210t-193.5 -125q206 -36 284 -193q38 -76 38 -172
q0 -186 -126 -285.5t-364 -99.5h-454z" />
    <glyph glyph-name="C" unicode="C" horiz-adv-x="1183" 
d="M723 1358q-227 0 -343 -163t-116 -478.5t116 -478t343 -162.5q174 0 352 86v-105q-176 -88 -368 -88q-272 0 -426 198t-154 550t153.5 549.5t426.5 197.5q186 0 362 -88v-104q-180 86 -346 86z" />
    <glyph glyph-name="D" unicode="D" horiz-adv-x="1384" 
d="M1122 723q0 618 -547 618q-98 0 -243 -22v-1215h235q274 0 414.5 157t140.5 462zM203 0v1403q215 43 385 43q315 0 492 -190.5t177 -535.5t-179 -532.5t-511 -187.5h-364z" />
    <glyph glyph-name="E" unicode="E" horiz-adv-x="1093" 
d="M332 678v-574h698v-104h-827v1434h825v-105h-696v-547h608v-104h-608z" />
    <glyph glyph-name="F" unicode="F" horiz-adv-x="1077" 
d="M203 0v1434h825v-105h-696v-581h608v-105h-608v-643h-129z" />
    <glyph glyph-name="G" unicode="G" horiz-adv-x="1304" 
d="M778 -31q-307 0 -479 198t-172 549t171 549.5t470 198.5q203 0 379 -88v-104q-180 88 -369 88q-250 0 -383 -166t-133 -478t134 -477t392 -165q137 0 269 43v520h-187l15 104h291v-684q-182 -88 -398 -88z" />
    <glyph glyph-name="H" unicode="H" horiz-adv-x="1417" 
d="M203 0v1434h129v-643h753v643h129v-1434h-129v686h-753v-686h-129z" />
    <glyph glyph-name="I" unicode="I" horiz-adv-x="534" 
d="M203 0v1434h129v-1434h-129z" />
    <glyph glyph-name="J" unicode="J" horiz-adv-x="985" 
d="M334 76q330 0 330 395v963h129v-963q0 -248 -113 -375t-334 -127q-131 0 -258 56l-20 108q141 -57 266 -57z" />
    <glyph glyph-name="K" unicode="K" horiz-adv-x="1191" 
d="M203 0v1434h129v-637l684 637h162l-738 -680l744 -754h-168l-684 702v-702h-129z" />
    <glyph glyph-name="L" unicode="L" horiz-adv-x="1052" 
d="M203 0v1434h129v-1330h690v-104h-819z" />
    <glyph glyph-name="M" unicode="M" horiz-adv-x="1728" 
d="M1450 0l-78 1262l-448 -1137h-119l-453 1139l-76 -1264h-122l100 1434h149l459 -1164l463 1164h150l100 -1434h-125z" />
    <glyph glyph-name="N" unicode="N" horiz-adv-x="1423" 
d="M1096 1434h125v-1434h-123l-770 1221v-1221h-125v1434h123l770 -1221v1221z" />
    <glyph glyph-name="O" unicode="O" horiz-adv-x="1425" 
d="M712.5 -31q-282.5 0 -434 194.5t-151.5 553t151.5 553t434 194.5t434 -194.5t151.5 -553t-151.5 -553t-434 -194.5zM712.5 74q450.5 0 450.5 643t-450.5 643t-450.5 -643t450.5 -643z" />
    <glyph glyph-name="P" unicode="P" horiz-adv-x="1181" 
d="M575 1343q-104 0 -243 -24v-645h233q195 0 299.5 87t104.5 250t-99.5 247.5t-294.5 84.5zM590 1446q238 0 375 -116t137 -320.5t-142.5 -321.5t-392.5 -117h-235v-571h-129v1403q215 43 387 43z" />
    <glyph glyph-name="Q" unicode="Q" horiz-adv-x="1425" 
d="M712.5 72q450.5 0 450.5 644t-450.5 644t-450.5 -644t450.5 -644zM1298 744q0 -657 -444 -754l457 -88l-47 -115l-691 193q-446 125 -446 737q0 358 151.5 552.5t434 194.5t434 -194t151.5 -526z" />
    <glyph glyph-name="R" unicode="R" horiz-adv-x="1218" 
d="M575 1343q-106 0 -245 -24v-625h235q197 0 300.5 83t103.5 242t-100.5 241.5t-293.5 82.5zM590 1446q236 0 373 -114.5t137 -311.5q0 -158 -87 -262.5t-249 -143.5l405 -614h-151l-381 594q-15 -2 -33 -2h-274v-592h-127v1403q215 43 387 43z" />
    <glyph glyph-name="S" unicode="S" horiz-adv-x="1101" 
d="M492.5 74q187.5 0 287 81t99.5 232q0 115 -65.5 184.5t-219.5 116.5l-145 45q-168 51 -246 134t-78 212q0 174 132 279.5t331.5 105.5t365.5 -75v-103q-176 74 -342 74t-260 -73t-94 -204q0 -92 53.5 -145t186.5 -96l145 -47q197 -63 283 -158.5t86 -247.5
q0 -195 -136.5 -307.5t-362.5 -112.5t-402 88l-21 111q215 -94 402.5 -94z" />
    <glyph glyph-name="T" unicode="T" horiz-adv-x="1054" 
d="M463 0v1329h-432v105h993v-105h-432v-1329h-129z" />
    <glyph glyph-name="U" unicode="U" horiz-adv-x="1378" 
d="M322 475q0 -399 369.5 -399t369.5 399v959h125v-957q0 -248 -128 -378t-369 -130t-368.5 130t-127.5 378v957h129v-959z" />
    <glyph glyph-name="V" unicode="V" horiz-adv-x="1185" 
d="M522 0l-504 1434h138l438 -1299l442 1299h131l-501 -1434h-144z" />
    <glyph glyph-name="W" unicode="W" horiz-adv-x="1748" 
d="M1208 0l-334 1278l-335 -1278h-138l-362 1434h131l303 -1268l328 1268h147l328 -1272l305 1272h129l-362 -1434h-140z" />
    <glyph glyph-name="X" unicode="X" horiz-adv-x="1171" 
d="M655 737l463 -737h-143l-391 633l-394 -633h-137l463 731l-440 703h143l369 -598l370 598h138z" />
    <glyph glyph-name="Y" unicode="Y" horiz-adv-x="1150" 
d="M512 0v528l-494 906h140l417 -797l424 797h134l-492 -906v-528h-129z" />
    <glyph glyph-name="Z" unicode="Z" horiz-adv-x="1187" 
d="M1053 104v-104h-916v98l772 1231h-737v105h879v-99l-775 -1231h777z" />
    <glyph glyph-name="bracketleft" unicode="[" horiz-adv-x="649" 
d="M193 -301v1839h395v-98h-273v-1643h273v-98h-395z" />
    <glyph glyph-name="backslash" unicode="\" horiz-adv-x="749" 
d="M571 0l-516 1538h123l516 -1538h-123z" />
    <glyph glyph-name="bracketright" unicode="]" horiz-adv-x="649" 
d="M457 1538v-1839h-396v98h273v1643h-273v98h396z" />
    <glyph glyph-name="asciicircum" unicode="^" horiz-adv-x="1228" 
d="M944 590l-326 725l-335 -725h-119l395 844h117l389 -844h-121z" />
    <glyph glyph-name="underscore" unicode="_" horiz-adv-x="1024" 
d="M0 -270v96h1024v-96h-1024z" />
    <glyph glyph-name="grave" unicode="`" horiz-adv-x="1138" 
d="M649 1200l-272 281h155l228 -281h-111z" />
    <glyph glyph-name="a" unicode="a" horiz-adv-x="1064" 
d="M475 68q154 0 311 84v327q-129 25 -270.5 25t-213 -53.5t-71.5 -167.5q0 -215 244 -215zM518 1061q191 0 290 -91t99 -263v-701l-104 -10l-8 72q-176 -98 -341.5 -98.5t-257.5 82.5t-92 233t103.5 230.5t304.5 80.5q121 0 274 -29v140q0 256 -288 256q-162 0 -332 -74v96
q161 76 352 76z" />
    <glyph glyph-name="b" unicode="b" horiz-adv-x="1138" 
d="M518 68q387 0 387 450q0 223 -80.5 334t-229.5 111t-300 -84v-779q106 -33 223 -32zM604 1061q201 0 315.5 -140.5t114.5 -400.5t-130 -405.5t-376 -145.5q-174 0 -356 58v1511l123 16v-585q167 92 309 92z" />
    <glyph glyph-name="c" unicode="c" horiz-adv-x="944" 
d="M557 -31q-217 0 -335 141.5t-118 403.5t118 404.5t335 142.5q154 0 291 -68v-96q-143 63 -294 63.5t-236 -112.5t-85 -333t85 -332.5t237.5 -112.5t296.5 63v-96q-135 -68 -295 -68z" />
    <glyph glyph-name="d" unicode="d" horiz-adv-x="1138" 
d="M621 963q-388 0 -388 -451q0 -223 81 -333.5t230 -110.5t300 84v778q-106 33 -223 33zM104 510q0 260 130.5 405.5t375.5 145.5q127 0 234 -33v510l123 16v-1548l-105 -10l-8 72q-174 -98 -319 -99q-201 0 -316 140.5t-115 400.5z" />
    <glyph glyph-name="e" unicode="e" horiz-adv-x="1044" 
d="M544 965q-136 0 -224.5 -102.5t-94.5 -274.5h598q4 33 4 57q0 152 -73.5 236t-209.5 84zM594 -31q-236 0 -363 139.5t-127 398.5t119 406.5t313.5 147.5t300 -113.5t105.5 -310.5q0 -74 -12 -141h-705q2 -428 379 -428q152 0 293 65v-96q-141 -68 -303 -68z" />
    <glyph glyph-name="f" unicode="f" horiz-adv-x="655" 
d="M201 0v936h-156v88l156 6v232q0 152 74.5 232.5t218.5 80.5q78 0 157 -29v-90q-73 23 -155 23q-172 0 -172 -207v-242h276v-94h-276v-936h-123z" />
    <glyph glyph-name="g" unicode="g" horiz-adv-x="1138" 
d="M621 963q-388 0 -388 -447q0 -219 81 -324.5t230 -105.5t300 84v760q-106 33 -223 33zM104 514q0 256 130.5 401.5t375.5 145.5q186 0 357 -66v-1046q0 -205 -119 -315.5t-320.5 -110.5t-328.5 63l-17 105q168 -70 320 -70q342 0 342 318v141q-167 -92 -309 -92
q-201 0 -316 135t-115 391z" />
    <glyph glyph-name="h" unicode="h" horiz-adv-x="1138" 
d="M602 963q-139 0 -307 -84v-879h-123v1538l123 16v-587q172 94 338 94t257 -86t91 -244v-731h-123v711q0 252 -256 252z" />
    <glyph glyph-name="i" unicode="i" horiz-adv-x="466" 
d="M233.5 1280q-40.5 0 -66.5 24.5t-26 67.5t26 67.5t66.5 24.5t66.5 -24.5t26 -67.5t-26 -67.5t-66.5 -24.5zM172 0v1020l123 16v-1036h-123z" />
    <glyph glyph-name="j" unicode="j" horiz-adv-x="466" 
d="M233.5 1280q-40.5 0 -66.5 24.5t-26 67.5t26 67.5t66.5 24.5t66.5 -24.5t26 -67.5t-26 -67.5t-66.5 -24.5zM172 -53v1073l123 16v-1077q0 -197 -95.5 -306.5t-271.5 -113.5l-24 101q131 0 199.5 77.5t68.5 229.5z" />
    <glyph glyph-name="k" unicode="k" horiz-adv-x="942" 
d="M172 0v1538l123 16v-981l483 457h146l-506 -479l522 -551h-156l-489 520v-520h-123z" />
    <glyph glyph-name="l" unicode="l" horiz-adv-x="466" 
d="M172 0v1538l123 16v-1554h-123z" />
    <glyph glyph-name="m" unicode="m" horiz-adv-x="1685" 
d="M1405 0v731q0 231 -219 232q-127 0 -291 -93q16 -55 16 -118v-752h-123v731q0 231 -219 232q-123 0 -274 -84v-879h-123v1024l104 10l9 -71q174 98 315 98q180 0 260 -119q199 119 353 119t234.5 -80t80.5 -229v-752h-123z" />
    <glyph glyph-name="n" unicode="n" horiz-adv-x="1138" 
d="M602 963q-139 0 -307 -84v-879h-123v1024l104 10l9 -71q178 98 346 98t259 -86t91 -244v-731h-123v711q0 252 -256 252z" />
    <glyph glyph-name="o" unicode="o" horiz-adv-x="1110" 
d="M555 68q168 0 245 107.5t77 339.5t-77 340t-245 108t-245 -107.5t-77 -339.5t77 -340t245 -108zM555 -31q-223 0 -337 138.5t-114 407.5t114 407.5t337 138.5t337 -138.5t114 -407.5t-114 -407.5t-337 -138.5z" />
    <glyph glyph-name="p" unicode="p" horiz-adv-x="1138" 
d="M518 68q387 0 387 450q0 223 -80.5 334t-229.5 111t-300 -84v-779q106 -33 223 -32zM604 1061q201 0 315.5 -140.5t114.5 -400.5t-130 -405.5t-376 -145.5q-127 0 -233 33v-442l-123 -17v1481l104 10l9 -71q174 98 319 98z" />
    <glyph glyph-name="q" unicode="q" horiz-adv-x="1138" 
d="M621 963q-388 0 -388 -451q0 -223 81 -333.5t230 -110.5t300 84v778q-106 33 -223 33zM104 510q0 260 130.5 405.5t375.5 145.5q186 0 357 -66v-1435l-123 -17v518q-167 -92 -309 -92q-201 0 -316 140.5t-115 400.5z" />
    <glyph glyph-name="r" unicode="r" horiz-adv-x="704" 
d="M172 0v1024l104 10l11 -92q137 113 293 113q55 0 88 -13v-100q-53 12 -95 12q-145 0 -278 -104v-850h-123z" />
    <glyph glyph-name="s" unicode="s" horiz-adv-x="901" 
d="M686 283q0 70 -40 112.5t-132 71.5l-156 49q-131 41 -190 103.5t-59 158.5q0 129 101 206t259.5 77t290.5 -55v-97q-137 53 -264.5 53.5t-196 -48t-68.5 -120t38 -107.5t137 -69l161 -53q125 -41 183.5 -108.5t58.5 -171.5q0 -152 -102.5 -234t-281.5 -82t-316 64
l-17 102q154 -68 318 -67q276 0 276 215z" />
    <glyph glyph-name="t" unicode="t" horiz-adv-x="688" 
d="M324 936v-655q0 -106 45 -156.5t123 -50.5t155 22v-90q-86 -29 -158 -29q-141 0 -214.5 77t-73.5 229v653h-156v88l160 6l12 258l107 12v-270h309v-94h-309z" />
    <glyph glyph-name="u" unicode="u" horiz-adv-x="1130" 
d="M836 1030h122v-1024l-104 -10l-8 72q-178 -98 -344 -98.5t-255 86.5t-89 243v731h123v-711q0 -252 247 -251q140 0 308 84v878z" />
    <glyph glyph-name="v" unicode="v" horiz-adv-x="937" 
d="M406 0l-390 1030h129l322 -899l332 899h123l-398 -1030h-118z" />
    <glyph glyph-name="w" unicode="w" horiz-adv-x="1468" 
d="M1012 0l-277 893l-268 -893h-117l-327 1030h124l263 -878l258 878h137l262 -885l260 885h119l-318 -1030h-116z" />
    <glyph glyph-name="x" unicode="x" horiz-adv-x="935" 
d="M532 532l386 -532h-138l-313 442l-317 -442h-132l383 528l-360 502h137l289 -416l297 416h131z" />
    <glyph glyph-name="y" unicode="y" horiz-adv-x="937" 
d="M31 -354q145 27 227 102.5t152 241.5l-394 1040h129l322 -903l332 903h123l-394 -1020q-55 -147 -115.5 -240.5t-142.5 -147.5t-213 -83z" />
    <glyph glyph-name="z" unicode="z" horiz-adv-x="948" 
d="M96 0v90l606 846h-593v94h731v-90l-607 -846h611v-94h-748z" />
    <glyph glyph-name="braceleft" unicode="{" horiz-adv-x="690" 
d="M356 356v-370q0 -96 40 -142.5t128 -46.5h105v-98h-127q-131 0 -200 73.5t-69 213.5v372q0 109 -45 159t-141 50v103q96 0 141 50t45 159v372q0 139 69 213t200 74h127v-98h-105q-88 0 -128 -46t-40 -143v-370q0 -214 -170 -263q170 -49 170 -262z" />
    <glyph glyph-name="bar" unicode="|" horiz-adv-x="522" 
d="M203 -301v1839h116v-1839h-116z" />
    <glyph glyph-name="braceright" unicode="}" horiz-adv-x="690" 
d="M334 881v370q0 96 -40 142.5t-128 46.5h-105v98h127q131 0 200 -73.5t69 -213.5v-372q0 -109 45 -159t141 -50v-103q-96 0 -141 -50t-45 -159v-372q0 -139 -69 -213t-200 -74h-127v98h105q88 0 128 46t40 143v370q0 213 170 262q-170 49 -170 263z" />
    <glyph glyph-name="asciitilde" unicode="~" horiz-adv-x="1228" 
d="M129 545q0 152 64.5 237.5t179.5 85.5q55 0 109.5 -24t157.5 -98t139 -91.5t69 -17.5q70 0 108.5 58.5t38.5 162.5h105q0 -152 -64.5 -237.5t-179.5 -85.5q-55 0 -109.5 24.5t-158.5 98.5t-139 91t-68 17q-70 0 -109 -58.5t-39 -162.5h-104z" />
    <glyph glyph-name="uni00A0" unicode="&#xa0;" horiz-adv-x="512" 
 />
    <glyph glyph-name="exclamdown" unicode="&#xa1;" horiz-adv-x="591" 
d="M297 1030q41 0 67.5 -25.5t26.5 -68.5t-26.5 -68.5t-67.5 -25.5t-67.5 25.5t-26.5 68.5t26.5 68.5t67.5 25.5zM344 610l18 -1024l-131 -16l19 1040h94z" />
    <glyph glyph-name="cent" unicode="&#xa2;" horiz-adv-x="1228" 
d="M373 498q0 -190 72.5 -299t211.5 -127v856q-139 -20 -211.5 -130t-72.5 -300zM657 -301v272q-193 16 -300 155.5t-107 373t107.5 373t299.5 155.5v272h91v-272q127 -6 249 -65v-95q-121 57 -249 64v-864q129 6 249 63v-94q-123 -59 -249 -66v-272h-91z" />
    <glyph glyph-name="sterling" unicode="&#xa3;" horiz-adv-x="1228" 
d="M457 1028q0 -84 26 -274h461v-92h-450q4 -37 4 -82q0 -156 -44 -284t-120 -192h594q94 0 172 5v-109h-920v96q195 129 195 482q0 38 -4 84h-168v92h159q-10 76 -20 146.5t-10 131.5q0 193 109 297.5t291 104.5t327 -66v-100q-145 66 -296 66q-306 -2 -306 -306z" />
    <glyph glyph-name="currency" unicode="&#xa4;" horiz-adv-x="1228" 
d="M614.5 446q108.5 0 167 67t58.5 187.5t-58.5 187t-167 66.5t-167 -66.5t-58.5 -187t58.5 -187.5t167 -67zM614.5 360q-135.5 0 -221.5 74l-137 -127l-57 58l141 131q-53 84 -53 204.5t53 204.5l-141 131l57 58l137 -127q86 74 221.5 73.5t221.5 -73.5l137 127l57 -58
l-141 -131q53 -84 53 -204.5t-53 -204.5l141 -131l-57 -58l-137 127q-86 -74 -221.5 -74z" />
    <glyph glyph-name="yen" unicode="&#xa5;" horiz-adv-x="1228" 
d="M678 350v-350h-123v350h-348v88h348v142l-37 63h-311v88h262l-375 672h133l387 -723l392 723h129l-373 -672h264v-88h-313l-35 -63v-142h348v-88h-348z" />
    <glyph glyph-name="brokenbar" unicode="&#xa6;" horiz-adv-x="522" 
d="M203 -301v774h116v-774h-116zM203 764v774h116v-774h-116z" />
    <glyph glyph-name="section" unicode="&#xa7;" horiz-adv-x="1003" 
d="M213 653q0 -74 52 -121t184 -90l100 -32q254 76 254 249q0 74 -52.5 121t-183.5 90l-102 33q-252 -76 -252 -250zM348 942q-174 72 -174 240q0 82 73.5 182t299.5 100q145 0 276 -55v-94q-137 53 -262 53t-195.5 -51t-70.5 -123t38 -112t122 -66l151 -49
q168 -55 238.5 -124t70.5 -174t-64.5 -181t-182.5 -117q90 -37 139 -107.5t49 -163.5q0 -137 -106.5 -221t-281.5 -84t-312 64l-17 100q153 -68 301 -68t221.5 55.5t73.5 140.5t-42 133t-132 77l-151 49q-168 55 -239 124t-71 174t64.5 181t183.5 117z" />
    <glyph glyph-name="dieresis" unicode="&#xa8;" horiz-adv-x="1138" 
d="M771 1286q-39 0 -63 24t-24 64t24 62t64 22t62 -22t22 -63q0 -39 -22 -63t-63 -24zM455 1373q1 -39 -23 -63t-64 -24t-63 24t-23 64t23 62t63 22t64 -22t23 -63z" />
    <glyph glyph-name="copyright" unicode="&#xa9;" horiz-adv-x="1597" 
d="M819 258q-184 0 -292.5 123t-108.5 336q0 143 50 246.5t141 158t211 54.5t224 -56v-88q-104 55 -208 55q-141 0 -221 -98t-80 -273t79.5 -272.5t221.5 -97.5q106 0 213 55v-88q-106 -55 -230 -55zM805 53q184 0 331.5 90t228.5 241.5t81 339.5t-88 340.5t-234.5 234
t-330.5 81.5t-332 -90t-228.5 -241t-80.5 -339t88 -340.5t234.5 -234.5t330.5 -82zM792 -31q-206 0 -377 103.5t-265.5 273.5t-94.5 378t103.5 380t272.5 266t375 94t377 -103.5t265 -273t94 -377.5t-103.5 -380t-272 -266.5t-374.5 -94.5z" />
    <glyph glyph-name="ordfeminine" unicode="&#xaa;" horiz-adv-x="698" 
d="M68 563v86h565v-86h-565zM350 1075q-170 0 -170 -124t139 -124q101 0 175 45v187q-72 16 -144 16zM294 752q-102 0 -161 52t-59 146t65.5 145.5t188.5 51.5q55 0 166 -17v78q0 147 -168 148q-88 0 -203 -47v77q109 48 225 48t181 -57.5t65 -164.5v-434l-84 -10l-8 43
q-106 -59 -208 -59z" />
    <glyph glyph-name="guillemotleft" unicode="&#xab;" horiz-adv-x="839" 
d="M297 137l-248 389l248 394h119l-244 -392l246 -391h-121zM621 137l-248 389l248 394h118l-243 -392l245 -391h-120z" />
    <glyph glyph-name="logicalnot" unicode="&#xac;" horiz-adv-x="1228" 
d="M950 248v405h-778v97h885v-502h-107z" />
    <glyph glyph-name="uni00AD" unicode="&#xad;" horiz-adv-x="739" 
d="M102 463v106h535v-106h-535z" />
    <glyph glyph-name="registered" unicode="&#xae;" horiz-adv-x="1028" 
d="M424 1004h72q59 0 93 26.5t34 73.5t-32 72.5t-79 25.5t-88 -6v-192zM424 948v-205h-70v502q86 15 163 15t127 -42t50 -114q0 -111 -114 -146l137 -215h-80l-127 205h-86zM518 594q108 0 197.5 54t137.5 144t48 204t-53 206t-141.5 141.5t-196.5 49.5t-197.5 -54.5
t-137.5 -144.5t-48 -204t53 -206t141.5 -141t196.5 -49zM509 522q-130 0 -237.5 65.5t-167 173t-59.5 237.5t65.5 239t172 168t236.5 59t237.5 -65.5t167 -173t59.5 -237.5t-65.5 -238.5t-172 -168t-236.5 -59.5z" />
    <glyph glyph-name="macron" unicode="&#xaf;" horiz-adv-x="1138" 
d="M295 1292v97h549v-97h-549z" />
    <glyph glyph-name="degree" unicode="&#xb0;" horiz-adv-x="733" 
d="M366.5 918q92.5 0 141.5 56t49 158.5t-49 159t-141.5 56.5t-141.5 -56.5t-49 -159t49 -158.5t141.5 -56zM366.5 831q-135.5 0 -215 81t-79.5 220.5t79.5 220.5t215 81t215.5 -81t80 -220.5t-80 -220.5t-215.5 -81z" />
    <glyph glyph-name="plusminus" unicode="&#xb1;" horiz-adv-x="1228" 
d="M668 690v-405h-107v405h-389v96h389v406h107v-406h389v-96h-389zM172 0v96h885v-96h-885z" />
    <glyph glyph-name="uni00B2" unicode="&#xb2;" 
d="M551 1443q0 59 -49 99q-50 40 -146 41q-96 0 -204 -70v86q100 68 228 68t204 -63t75 -166q0 -124 -141 -246l-106 -94q-96 -86 -132 -134t-49 -100h332q55 0 121 4v-90h-569q4 102 51 184t166 187l108 96q59 51 85 95t26 103z" />
    <glyph glyph-name="uni00B3" unicode="&#xb3;" 
d="M333 838q115 0 175 48q59 48 59 131t-56 129t-155 46h-77v82h77q86 0 136 41q49 41 49 115q-1 74 -53 115q-52 42 -148 42t-197 -43v80q94 43 219 43t206 -63t81 -168q0 -74 -43 -126t-123 -75q93 -23 143 -81t50 -142q0 -115 -88 -185q-88 -69 -230 -69t-235 47l-14 90
q109 -57 224 -57z" />
    <glyph glyph-name="acute" unicode="&#xb4;" horiz-adv-x="1138" 
d="M377 1200l227 281h156l-273 -281h-110z" />
    <glyph glyph-name="mu" unicode="&#xb5;" horiz-adv-x="1146" 
d="M852 1030h123v-1024l-105 -10l-8 72q-178 -99 -332 -99t-233 86v-495l-123 -17v1487h123v-711q0 -252 248 -251q139 0 307 84v878z" />
    <glyph glyph-name="paragraph" unicode="&#xb6;" horiz-adv-x="1251" 
d="M635 -301v809q-225 0 -345 118.5t-120 344t120 344.5t345 119h414v-1735h-113v1638h-188v-1638h-113z" />
    <glyph glyph-name="periodcentered" unicode="&#xb7;" horiz-adv-x="421" 
d="M211 420q-41 0 -68 26t-26 68q0 43 26 69q27 25 68 25t68 -26t27 -68q0 -43 -27 -69q-27 -25 -68 -25z" />
    <glyph glyph-name="cedilla" unicode="&#xb8;" horiz-adv-x="1138" 
d="M525 -444q85 0 128 30t43 83q0 52 -36 82t-95 30t-102 -19l-47 45l90 213h88l-76 -176q35 6 74 6q90 0 145 -49t55 -136t-71 -141t-179 -54t-188 43l-8 86q94 -43 179 -43z" />
    <glyph glyph-name="uni00B9" unicode="&#xb9;" 
d="M451 778v758l-244 -160l-21 84l281 187h90v-869h-106z" />
    <glyph glyph-name="ordmasculine" unicode="&#xba;" horiz-adv-x="733" 
d="M366.5 829q96.5 0 141.5 63.5t45 199.5t-45 200t-141.5 64t-141.5 -63.5t-45 -199.5t45 -200t141.5 -64zM366.5 752q-143.5 0 -219 88t-75.5 254t76.5 253t218 87t218.5 -87t77 -253t-76 -254t-219.5 -88zM84 563v86h565v-86h-565z" />
    <glyph glyph-name="guillemotright" unicode="&#xbb;" horiz-adv-x="839" 
d="M219 920l248 -390l-248 -393h-119l244 391l-246 392h121zM543 920l248 -390l-248 -393h-119l244 391l-246 392h121z" />
    <glyph glyph-name="onequarter" unicode="&#xbc;" horiz-adv-x="1867" 
d="M539 0l741 1403h111l-742 -1403h-110zM1563 295v455l-336 -455h336zM1563 0v213h-437v82l424 573h111v-573h6q55 0 121 4v-86h-127v-213h-98zM451 535v757l-244 -159l-21 84l281 186h90v-868h-106z" />
    <glyph glyph-name="onehalf" unicode="&#xbd;" horiz-adv-x="1867" 
d="M463 0l741 1403h111l-742 -1403h-110zM1404 805q-96 0 -204 -70v86q100 68 228 68q128 1 204 -63t76 -176t-141 -236l-107 -95q-96 -86 -132 -134t-48 -99h332q55 0 121 4v-90h-570q4 102 51 184t166 187l109 96q112 97 110 186q0 70 -49 111q-50 41 -146 41zM451 535
v757l-244 -159l-21 84l281 186h90v-868h-106z" />
    <glyph glyph-name="threequarters" unicode="&#xbe;" horiz-adv-x="1867" 
d="M530 0l742 1403h110l-741 -1403h-111zM1563 295v455l-336 -455h336zM1563 0v213h-437v82l424 573h111v-573h6q55 0 121 4v-86h-127v-213h-98zM333 594q115 0 175 48q59 48 59 131t-56 129t-155 46h-77v82h77q86 0 136 41q49 41 49 115q-1 74 -53 116t-148 42t-197 -44v80
q94 43 219 43t206 -63t81 -168q0 -74 -43 -126t-123 -75q93 -23 143 -81t50 -142q0 -114 -88 -184t-230 -70t-235 47l-14 90q109 -57 224 -57z" />
    <glyph glyph-name="questiondown" unicode="&#xbf;" horiz-adv-x="944" 
d="M514 1030q41 0 67.5 -25.5t26.5 -68.5t-26.5 -68.5t-67.5 -25.5t-67.5 25.5t-26.5 68.5t26.5 68.5t67.5 25.5zM494 -414q-185 0 -292.5 93.5t-107.5 246.5q0 88 45 162t149 166t140.5 168t38.5 188h94q0 -129 -41 -221t-138 -180t-130 -144.5t-33 -130.5q0 -117 77 -181
t212 -64q174 0 344 125v-103q-173 -125 -358 -125z" />
    <glyph glyph-name="Agrave" unicode="&#xc0;" horiz-adv-x="1204" 
d="M317 485h572l-289 828zM1057 0l-135 387h-639l-131 -387h-134l508 1434h150l510 -1434h-129zM604 1620l-270 252h162l223 -252h-115z" />
    <glyph glyph-name="Aacute" unicode="&#xc1;" horiz-adv-x="1204" 
d="M317 485h572l-289 828zM1057 0l-135 387h-639l-131 -387h-134l508 1434h150l510 -1434h-129zM481 1620l224 252h161l-270 -252h-115z" />
    <glyph glyph-name="Acircumflex" unicode="&#xc2;" horiz-adv-x="1204" 
d="M317 485h572l-289 828zM1057 0l-135 387h-639l-131 -387h-134l508 1434h150l510 -1434h-129zM774 1620l-174 170l-174 -170h-109l224 252h118l224 -252h-109z" />
    <glyph glyph-name="Atilde" unicode="&#xc3;" horiz-adv-x="1204" 
d="M317 485h572l-289 828zM1057 0l-135 387h-639l-131 -387h-134l508 1434h150l510 -1434h-129zM487 1745q-73 0 -77 -88h-93q2 88 44 134t113 46t128 -38q56 -38 73 -46t38 -8q72 0 78 88h92q-2 -88 -44 -134t-114 -46t-127 38q-54 38 -72 46t-39 8z" />
    <glyph glyph-name="Adieresis" unicode="&#xc4;" horiz-adv-x="1204" 
d="M317 485h572l-289 828zM1057 0l-135 387h-639l-131 -387h-134l508 1434h150l510 -1434h-129zM802 1688q-40 0 -65 24t-25 65q0 39 26 63q24 24 64 24t64 -24t23 -64q1 -40 -23 -64t-64 -24zM398 1688q-40 0 -64 24t-23 65q0 39 24 63q23 24 63 24t65 -24t25 -64t-25 -64
t-65 -24z" />
    <glyph glyph-name="Aring" unicode="&#xc5;" horiz-adv-x="1204" 
d="M317 485h572l-289 828zM1057 0l-135 387h-639l-131 -387h-134l508 1434h150l510 -1434h-129zM600 1634q-100 0 -160 56t-59 147q0 90 59 146q60 57 160 57t160 -56t59 -147q1 -91 -59 -147t-160 -56zM600 1714q59 0 95 33t36 90t-36 90t-95 33t-95 -33t-36 -90t36 -90
t95 -33z" />
    <glyph glyph-name="AE" unicode="&#xc6;" horiz-adv-x="1722" 
d="M874 506v827h-22l-432 -827h454zM1001 678v-574h658v-104h-785v408h-505l-211 -408h-140l762 1434h877v-105h-656v-547h568v-104h-568z" />
    <glyph glyph-name="Ccedilla" unicode="&#xc7;" horiz-adv-x="1183" 
d="M264 717q0 -315 116 -478t343 -163q174 0 352 86v-105q-168 -84 -352 -88l-53 -123q31 6 71 7q91 -1 147 -51t56 -137t-72 -142t-178 -55t-192 43l-8 90q94 -43 186 -43q164 0 164 114q0 49 -35 78t-94 29t-103 -19l-49 47l70 166q-220 24 -352 194q-154 198 -154 550
t154 550t426 197q186 0 362 -88v-104q-176 84 -346 86q-227 0 -343 -163t-116 -478z" />
    <glyph glyph-name="Egrave" unicode="&#xc8;" horiz-adv-x="1093" 
d="M332 678v-574h698v-104h-827v1434h825v-105h-696v-547h608v-104h-608zM618 1620l-270 252h162l223 -252h-115z" />
    <glyph glyph-name="Eacute" unicode="&#xc9;" horiz-adv-x="1093" 
d="M332 678v-574h698v-104h-827v1434h825v-105h-696v-547h608v-104h-608zM496 1620l223 252h162l-271 -252h-114z" />
    <glyph glyph-name="Ecircumflex" unicode="&#xca;" horiz-adv-x="1093" 
d="M332 678v-574h698v-104h-827v1434h825v-105h-696v-547h608v-104h-608zM788 1620l-174 170l-174 -170h-108l223 252h119l223 -252h-109z" />
    <glyph glyph-name="Edieresis" unicode="&#xcb;" horiz-adv-x="1093" 
d="M332 678v-574h698v-104h-827v1434h825v-105h-696v-547h608v-104h-608zM816 1688q-40 0 -64 24t-25 65q0 39 25 63q24 24 64 24t64 -24t24 -64t-24 -64t-64 -24zM413 1688q-40 0 -64 24q-23 24 -23 65q0 39 24 63t63 24q41 0 65 -24t24 -64t-24 -64t-65 -24z" />
    <glyph glyph-name="Igrave" unicode="&#xcc;" horiz-adv-x="534" 
d="M203 0v1434h129v-1434h-129zM270 1620l-270 252h162l223 -252h-115z" />
    <glyph glyph-name="Iacute" unicode="&#xcd;" horiz-adv-x="534" 
d="M203 0v1434h129v-1434h-129zM147 1620l224 252h161l-270 -252h-115z" />
    <glyph glyph-name="Icircumflex" unicode="&#xce;" horiz-adv-x="534" 
d="M203 0v1434h129v-1434h-129zM440 1620l-174 170l-174 -170h-108l223 252h119l223 -252h-109z" />
    <glyph glyph-name="Idieresis" unicode="&#xcf;" horiz-adv-x="534" 
d="M203 0v1434h129v-1434h-129zM468 1688q-40 0 -65 24t-25 65q0 39 26 63q24 24 64 24t64 -24t23 -64q1 -40 -23 -64t-64 -24zM65 1688q-40 0 -64 24t-24 65q0 39 24 63t64 24q41 0 65 -24t24 -64t-24 -64t-65 -24z" />
    <glyph glyph-name="Eth" unicode="&#xd0;" horiz-adv-x="1384" 
d="M1122 723q0 618 -547 618q-98 0 -243 -22v-543h401v-92h-401v-580h235q274 0 414.5 157t140.5 462zM203 0v684h-156v92h156v627q215 43 385 43q315 0 492 -190.5t177 -535.5t-179 -532.5t-511 -187.5h-364z" />
    <glyph glyph-name="Ntilde" unicode="&#xd1;" horiz-adv-x="1423" 
d="M1096 1434h125v-1434h-123l-770 1221v-1221h-125v1434h123l770 -1221v1221zM598 1745q-72 0 -78 -88h-92q2 88 44 134t113 46t127 -38t73 -46t38 -8q74 0 78 88h92q-2 -88 -44 -134t-113 -46t-127 38t-73 46t-38 8z" />
    <glyph glyph-name="Ograve" unicode="&#xd2;" horiz-adv-x="1425" 
d="M713 -31q-283 0 -435 195t-151 553q0 358 152 553q153 194 435 194t434 -194t150 -553q0 -358 -151 -553t-434 -195zM713 74q451 0 450 643t-451 643t-450 -643t451 -643zM717 1620l-271 252h162l223 -252h-114z" />
    <glyph glyph-name="Oacute" unicode="&#xd3;" horiz-adv-x="1425" 
d="M713 -31q-283 0 -435 195t-151 553q0 358 152 553q153 194 435 194t434 -194t150 -553q0 -358 -151 -553t-434 -195zM713 74q451 0 450 643t-451 643t-450 -643t451 -643zM594 1620l223 252h162l-270 -252h-115z" />
    <glyph glyph-name="Ocircumflex" unicode="&#xd4;" horiz-adv-x="1425" 
d="M713 -31q-283 0 -435 195t-151 553q0 358 152 553q153 194 435 194t434 -194t150 -553q0 -358 -151 -553t-434 -195zM713 74q451 0 450 643t-451 643t-450 -643t451 -643zM887 1620l-174 170l-174 -170h-109l223 252h119l223 -252h-108z" />
    <glyph glyph-name="Otilde" unicode="&#xd5;" horiz-adv-x="1425" 
d="M713 -31q-283 0 -435 195t-151 553q0 358 152 553q153 194 435 194t434 -194t150 -553q0 -358 -151 -553t-434 -195zM713 74q451 0 450 643t-451 643t-450 -643t451 -643zM600 1745q-72 0 -78 -88h-92q2 88 44 134t113 46t127 -38t73 -46t38 -8q74 0 78 88h92
q-2 -88 -44 -134t-113 -46t-127 38t-73 46t-38 8z" />
    <glyph glyph-name="Odieresis" unicode="&#xd6;" horiz-adv-x="1425" 
d="M713 -31q-283 0 -435 195t-151 553q0 358 152 553q153 194 435 194t434 -194t150 -553q0 -358 -151 -553t-434 -195zM713 74q451 0 450 643t-451 643t-450 -643t451 -643zM914 1688q-40 0 -64 24t-25 65q0 39 25 63q24 24 64 24t64 -24t24 -64t-24 -64t-64 -24zM511 1688
q-40 0 -64 24q-23 24 -23 65q0 39 24 63t63 24q41 0 65 -24t24 -64t-24 -64t-65 -24z" />
    <glyph glyph-name="multiply" unicode="&#xd7;" horiz-adv-x="1228" 
d="M272 287l-69 71l340 340l-340 342l76 74l337 -340l340 340l70 -72l-340 -340l340 -342l-76 -73l-338 340z" />
    <glyph glyph-name="Oslash" unicode="&#xd8;" horiz-adv-x="1425" 
d="M713 1360q-451 0 -451 -643q0 -248 68 -402l710 899q-114 146 -327 146zM713 74q451 0 450 643q0 248 -67 401l-711 -899q115 -145 328 -145zM127 740q0 334 151.5 529t419.5 195t416 -155l113 141l80 -66l-129 -161q120 -195 120 -529t-151.5 -529.5t-418.5 -195.5
t-417 156l-112 -141l-80 65l129 162q-121 195 -121 529z" />
    <glyph glyph-name="Ugrave" unicode="&#xd9;" horiz-adv-x="1378" 
d="M1061 1434h125v-957q0 -248 -128 -378t-369 -130t-369 130t-127 378v957h129v-959q0 -399 368 -399q186 0 279 98q92 98 92 301v959zM694 1620l-270 252h162l223 -252h-115z" />
    <glyph glyph-name="Uacute" unicode="&#xda;" horiz-adv-x="1378" 
d="M1061 1434h125v-957q0 -248 -128 -378t-369 -130t-369 130t-127 378v957h129v-959q0 -399 368 -399q186 0 279 98q92 98 92 301v959zM571 1620l224 252h161l-270 -252h-115z" />
    <glyph glyph-name="Ucircumflex" unicode="&#xdb;" horiz-adv-x="1378" 
d="M1061 1434h125v-957q0 -248 -128 -378t-369 -130t-369 130t-127 378v957h129v-959q0 -399 368 -399q186 0 279 98q92 98 92 301v959zM864 1620l-174 170l-174 -170h-108l223 252h119l223 -252h-109z" />
    <glyph glyph-name="Udieresis" unicode="&#xdc;" horiz-adv-x="1378" 
d="M1061 1434h125v-957q0 -248 -128 -378t-369 -130t-369 130t-127 378v957h129v-959q0 -399 368 -399q186 0 279 98q92 98 92 301v959zM892 1688q-40 0 -65 24t-25 65q0 39 26 63q24 24 64 24t64 -24t23 -64q1 -40 -23 -64t-64 -24zM578 1776q0 -40 -25 -64t-65 -24t-64 24
t-23 65q0 39 24 63q23 24 63 24t65 -24t25 -64z" />
    <glyph glyph-name="Yacute" unicode="&#xdd;" horiz-adv-x="1150" 
d="M512 0v528l-494 906h140l417 -797l424 797h134l-492 -906v-528h-129zM457 1620l223 252h162l-271 -252h-114z" />
    <glyph glyph-name="Thorn" unicode="&#xde;" horiz-adv-x="1206" 
d="M332 1065v-668h233q195 0 299.5 86t104.5 248t-104.5 248t-299.5 86h-233zM203 0v1434h129v-267h235q248 0 391.5 -116.5t143.5 -319.5t-143.5 -319.5t-391.5 -116.5h-235v-295h-129z" />
    <glyph glyph-name="germandbls" unicode="&#xdf;" horiz-adv-x="1214" 
d="M723 68q276 0 276 217q0 70 -42.5 124t-152.5 125t-156 131t-46 129t28 124t92 128t86.5 118.5t22.5 103.5q0 98 -68.5 154.5t-196.5 56.5t-199.5 -77t-71.5 -224v-1178h-123v1184q0 182 107.5 286.5t288.5 104.5t282.5 -83t101.5 -226q0 -70 -28 -130t-94 -134
t-86.5 -113t-20.5 -85t32.5 -87t142.5 -113t167 -149.5t57 -171.5q0 -150 -102 -232t-274 -82t-293 51l-17 103q141 -55 287 -55z" />
    <glyph glyph-name="agrave" unicode="&#xe0;" horiz-adv-x="1064" 
d="M475 68q154 0 311 84v327q-128 25 -270 25t-214 -53t-71 -168q0 -215 244 -215zM907 707v-701l-104 -10l-8 72q-175 -98 -341 -98t-258 82q-92 83 -92 233q0 151 104 231t304 80q121 0 274 -29v140q0 256 -288 256q-162 0 -332 -74v96q156 74 349 75q194 1 293 -90
t99 -263zM520 1200l-272 281h155l228 -281h-111z" />
    <glyph glyph-name="aacute" unicode="&#xe1;" horiz-adv-x="1064" 
d="M475 68q154 0 311 84v327q-128 25 -270 25t-214 -53t-71 -168q0 -215 244 -215zM907 707v-701l-104 -10l-8 72q-175 -98 -341 -98t-258 82q-92 83 -92 233q0 151 104 231t304 80q121 0 274 -29v140q0 256 -288 256q-162 0 -332 -74v96q156 74 349 75q194 1 293 -90
t99 -263zM397 1200l228 281h155l-272 -281h-111z" />
    <glyph glyph-name="acircumflex" unicode="&#xe2;" horiz-adv-x="1064" 
d="M475 68q154 0 311 84v327q-128 25 -270 25t-214 -53t-71 -168q0 -215 244 -215zM907 707v-701l-104 -10l-8 72q-175 -98 -341 -98t-258 82q-92 83 -92 233q0 151 104 231t304 80q121 0 274 -29v140q0 256 -288 256q-162 0 -332 -74v96q156 74 349 75q194 1 293 -90
t99 -263zM696 1200l-182 193l-182 -193h-105l230 281h114l230 -281h-105z" />
    <glyph glyph-name="atilde" unicode="&#xe3;" horiz-adv-x="1064" 
d="M475 68q154 0 311 84v327q-128 25 -270 25t-214 -53t-71 -168q0 -215 244 -215zM907 707v-701l-104 -10l-8 72q-175 -98 -341 -98t-258 82q-92 83 -92 233q0 151 104 231t304 80q121 0 274 -29v140q0 256 -288 256q-162 0 -332 -74v96q156 74 349 75q194 1 293 -90
t99 -263zM627 1323q74 0 80 119h88q-4 -209 -162 -209q-74 0 -128 51q-55 52 -71 62t-33 10q-74 0 -79 -119h-89q4 209 162 209q74 0 128 -51q55 -51 71 -61t33 -11z" />
    <glyph glyph-name="adieresis" unicode="&#xe4;" horiz-adv-x="1064" 
d="M475 68q154 0 311 84v327q-128 25 -270 25t-214 -53t-71 -168q0 -215 244 -215zM907 707v-701l-104 -10l-8 72q-175 -98 -341 -98t-258 82q-92 83 -92 233q0 151 104 231t304 80q121 0 274 -29v140q0 256 -288 256q-162 0 -332 -74v96q156 74 349 75q194 1 293 -90
t99 -263zM801 1373q-1 -39 -23 -63t-62 -24t-64 24t-24 64t24 62t64 22t62 -22t23 -63zM312 1286q-40 0 -62 24t-23 64q0 40 23 62q22 22 62 22t64 -22t24 -63q0 -39 -24 -63t-64 -24z" />
    <glyph glyph-name="aring" unicode="&#xe5;" horiz-adv-x="1064" 
d="M475 68q154 0 311 84v327q-128 25 -270 25t-214 -53t-71 -168q0 -215 244 -215zM907 707v-701l-104 -10l-8 72q-175 -98 -341 -98t-258 82q-92 83 -92 233q0 151 104 231t304 80q121 0 274 -29v140q0 256 -288 256q-162 0 -332 -74v96q156 74 349 75q194 1 293 -90
t99 -263zM514 1292q61 0 96 36t35 93t-35 93t-96 36t-96 -36t-35 -93t35 -93t96 -36zM514 1214q-98 0 -158 58t-59 149q0 91 59 149q60 58 158 58t158 -58t59 -148q1 -90 -59 -150q-60 -58 -158 -58z" />
    <glyph glyph-name="ae" unicode="&#xe6;" horiz-adv-x="1699" 
d="M1202 965q-133 0 -218 -103.5t-91 -273.5h586q4 33 4 57q0 152 -74 236t-207 84zM475 68q90 0 186.5 35.5t172.5 97.5q-57 111 -64 282q-116 21 -256 21q-282 1 -283 -221q0 -215 244 -215zM770 707q0 256 -285 256q-148 0 -319 -74v96q161 76 320 76t245 -55.5
t121 -155.5q55 100 148.5 155.5t203.5 55.5q182 0 287.5 -113.5t105.5 -310.5q0 -74 -12 -141h-692q4 -428 367 -428q152 0 292 65v-96q-141 -68 -303 -68q-248 0 -370 160q-92 -76 -209 -118t-224 -42q-158 0 -250 83t-92 233t103.5 230.5t304.5 80.5q109 0 258 -27v138z
" />
    <glyph glyph-name="ccedilla" unicode="&#xe7;" horiz-adv-x="944" 
d="M515 -442q85 0 128 30t43 83q0 52 -36 82t-95 30t-102 -19l-47 46l69 165q-159 22 -253 136q-118 141 -118 403t118 404t335 143q154 0 291 -68v-96q-143 63 -294 63t-236 -112q-85 -113 -85 -333t85 -333q86 -112 238 -112t296 63v-96q-134 -67 -291 -68l-53 -123
q35 6 74 7q90 1 145 -49t55 -137t-72 -141t-178 -54q-108 0 -188 43l-8 86q94 -43 179 -43z" />
    <glyph glyph-name="egrave" unicode="&#xe8;" horiz-adv-x="1044" 
d="M544 965q-136 -1 -224 -103t-95 -274h598q4 33 4 57q0 152 -73 236q-74 84 -210 84zM594 -31q-236 -1 -363 139t-127 399t119 406t313 147t300 -113q106 -114 106 -310q0 -74 -12 -141h-705q2 -428 379 -428q152 0 293 65v-96q-141 -68 -303 -68zM555 1200l-272 281h155
l228 -281h-111z" />
    <glyph glyph-name="eacute" unicode="&#xe9;" horiz-adv-x="1044" 
d="M544 965q-136 -1 -224 -103t-95 -274h598q4 33 4 57q0 152 -73 236q-74 84 -210 84zM594 -31q-236 -1 -363 139t-127 399t119 406t313 147t300 -113q106 -114 106 -310q0 -74 -12 -141h-705q2 -428 379 -428q152 0 293 65v-96q-141 -68 -303 -68zM432 1200l227 281h156
l-272 -281h-111z" />
    <glyph glyph-name="ecircumflex" unicode="&#xea;" horiz-adv-x="1044" 
d="M544 965q-136 -1 -224 -103t-95 -274h598q4 33 4 57q0 152 -73 236q-74 84 -210 84zM594 -31q-236 -1 -363 139t-127 399t119 406t313 147t300 -113q106 -114 106 -310q0 -74 -12 -141h-705q2 -428 379 -428q152 0 293 65v-96q-141 -68 -303 -68zM731 1200l-182 193
l-182 -193h-105l230 281h114l230 -281h-105z" />
    <glyph glyph-name="edieresis" unicode="&#xeb;" horiz-adv-x="1044" 
d="M544 965q-136 -1 -224 -103t-95 -274h598q4 33 4 57q0 152 -73 236q-74 84 -210 84zM594 -31q-236 -1 -363 139t-127 399t119 406t313 147t300 -113q106 -114 106 -310q0 -74 -12 -141h-705q2 -428 379 -428q152 0 293 65v-96q-141 -68 -303 -68zM836 1373q0 -39 -22 -63
t-63 -24q-40 0 -64 24q-23 24 -23 64t23 62q24 22 64 22q41 0 63 -22t22 -63zM347 1286q-41 0 -63 24t-22 64t23 62t63 22t63 -22t23 -63q0 -39 -24 -63t-63 -24z" />
    <glyph glyph-name="igrave" unicode="&#xec;" horiz-adv-x="466" 
d="M172 0v1020l123 16v-1036h-123zM240 1200l-273 281h156l227 -281h-110z" />
    <glyph glyph-name="iacute" unicode="&#xed;" horiz-adv-x="466" 
d="M172 0v1020l123 16v-1036h-123zM117 1200l227 281h156l-273 -281h-110z" />
    <glyph glyph-name="icircumflex" unicode="&#xee;" horiz-adv-x="466" 
d="M172 0v1020l123 16v-1036h-123zM416 1200l-183 193l-182 -193h-104l229 281h115l229 -281h-104z" />
    <glyph glyph-name="idieresis" unicode="&#xef;" horiz-adv-x="466" 
d="M172 0v1020l123 16v-1036h-123zM435 1286q-39 0 -63 24t-24 64t24 62t64 22t62 -22t22 -63q0 -39 -22 -63t-63 -24zM119 1373q1 -39 -23 -63t-64 -24t-63 24t-23 64t23 62t63 22t64 -22t23 -63z" />
    <glyph glyph-name="eth" unicode="&#xf0;" horiz-adv-x="1110" 
d="M555 891q-322 0 -322 -411.5t322 -411.5t322 412t-322 411zM564 -31q-226 0 -343 132t-117 376t116 378t337 134t326 -172q-68 293 -269 463l-194 -195l-62 64l185 184q-121 80 -305 135v107q217 -61 376 -172l193 192l63 -61l-186 -184q322 -268 322 -762
q0 -322 -108 -470.5t-334 -148.5z" />
    <glyph glyph-name="ntilde" unicode="&#xf1;" horiz-adv-x="1138" 
d="M602 963q-135 0 -307 -84v-879h-123v1024l104 10l9 -71q178 98 346 98t259 -86t91 -244v-731h-123v711q0 252 -256 252zM688 1323q74 0 80 119h88q-4 -209 -162 -209q-74 0 -128 51q-54 52 -70 62t-33 10q-74 0 -80 -119h-88q4 209 162 209q74 0 128 -51t70 -61t33 -11z
" />
    <glyph glyph-name="ograve" unicode="&#xf2;" horiz-adv-x="1110" 
d="M555 68q168 0 245 108t77 339q0 232 -77 340t-245 108t-245 -108t-77 -340q0 -231 77 -339t245 -108zM555 -31q-223 1 -337 139t-114 407t114 407t337 139q223 0 337 -138q114 -137 114 -407t-114 -408t-337 -139zM561 1200l-272 281h155l228 -281h-111z" />
    <glyph glyph-name="oacute" unicode="&#xf3;" horiz-adv-x="1110" 
d="M555 68q168 0 245 108t77 339q0 232 -77 340t-245 108t-245 -108t-77 -340q0 -231 77 -339t245 -108zM555 -31q-223 1 -337 139t-114 407t114 407t337 139q223 0 337 -138q114 -137 114 -407t-114 -408t-337 -139zM438 1200l228 281h155l-272 -281h-111z" />
    <glyph glyph-name="ocircumflex" unicode="&#xf4;" horiz-adv-x="1110" 
d="M555 68q168 0 245 108t77 339q0 232 -77 340t-245 108t-245 -108t-77 -340q0 -231 77 -339t245 -108zM555 -31q-223 1 -337 139t-114 407t114 407t337 139q223 0 337 -138q114 -137 114 -407t-114 -408t-337 -139zM737 1200l-182 193l-182 -193h-105l230 281h114
l230 -281h-105z" />
    <glyph glyph-name="otilde" unicode="&#xf5;" horiz-adv-x="1110" 
d="M555 68q168 0 245 108t77 339q0 232 -77 340t-245 108t-245 -108t-77 -340q0 -231 77 -339t245 -108zM555 -31q-223 1 -337 139t-114 407t114 407t337 139q223 0 337 -138q114 -137 114 -407t-114 -408t-337 -139zM668 1323q74 0 80 119h88q-4 -209 -162 -209
q-74 0 -128 51q-54 52 -70 62t-34 10q-74 0 -80 -119h-88q4 209 162 209q74 0 128 -51t70 -61t34 -11z" />
    <glyph glyph-name="odieresis" unicode="&#xf6;" horiz-adv-x="1110" 
d="M555 68q168 0 245 108t77 339q0 232 -77 340t-245 108t-245 -108t-77 -340q0 -231 77 -339t245 -108zM555 -31q-223 1 -337 139t-114 407t114 407t337 139q223 0 337 -138q114 -137 114 -407t-114 -408t-337 -139zM842 1373q0 -39 -22 -63t-63 -24q-40 0 -64 24
q-23 24 -23 64t23 62q24 22 64 22q41 0 63 -22t22 -63zM353 1286q-41 0 -63 24t-22 64t23 62t63 22t63 -22t23 -63q0 -39 -24 -63t-63 -24z" />
    <glyph glyph-name="divide" unicode="&#xf7;" horiz-adv-x="1228" 
d="M614 981q-41 0 -66.5 25.5t-25.5 68.5t25.5 68.5t66.5 25.5t67 -25.5t26 -68.5t-26 -68.5t-67 -25.5zM614 233q-41 0 -66.5 26t-25.5 69t25.5 68.5t66.5 25.5t67 -25.5t26 -68.5t-26 -69t-67 -26zM172 653v97h885v-97h-885z" />
    <glyph glyph-name="oslash" unicode="&#xf8;" horiz-adv-x="1110" 
d="M559 68q318 0 318 418q0 202 -39 300l-519 -624q76 -94 240 -94zM567 -31q-211 0 -319 107l-74 -90l-68 55l84 102q-86 135 -86 388t114 391.5t325 138.5t319 -107l74 90l68 -55l-84 -102q86 -135 86 -388t-114 -391.5t-325 -138.5zM233 544q0 -202 39 -300l519 624
q-76 94 -240 94t-241 -108t-77 -310z" />
    <glyph glyph-name="ugrave" unicode="&#xf9;" horiz-adv-x="1130" 
d="M836 1030h122v-1024l-104 -10l-8 72q-178 -98 -344 -98t-255 86q-89 87 -89 243v731h123v-711q0 -252 247 -251q140 0 308 84v878zM563 1200l-272 281h155l228 -281h-111z" />
    <glyph glyph-name="uacute" unicode="&#xfa;" horiz-adv-x="1130" 
d="M836 1030h122v-1024l-104 -10l-8 72q-178 -98 -344 -98t-255 86q-89 87 -89 243v731h123v-711q0 -252 247 -251q140 0 308 84v878zM440 1200l228 281h155l-272 -281h-111z" />
    <glyph glyph-name="ucircumflex" unicode="&#xfb;" horiz-adv-x="1130" 
d="M836 1030h122v-1024l-104 -10l-8 72q-178 -98 -344 -98t-255 86q-89 87 -89 243v731h123v-711q0 -252 247 -251q140 0 308 84v878zM739 1200l-182 193l-182 -193h-105l230 281h114l230 -281h-105z" />
    <glyph glyph-name="udieresis" unicode="&#xfc;" horiz-adv-x="1130" 
d="M836 1030h122v-1024l-104 -10l-8 72q-178 -98 -344 -98t-255 86q-89 87 -89 243v731h123v-711q0 -252 247 -251q140 0 308 84v878zM844 1373q0 -39 -22 -63t-63 -24q-40 0 -64 24q-23 24 -23 64t23 62q24 22 64 22q41 0 63 -22t22 -63zM355 1286q-41 0 -63 24t-22 64
t23 62t63 22t63 -22t23 -63q0 -39 -24 -63t-63 -24z" />
    <glyph glyph-name="yacute" unicode="&#xfd;" horiz-adv-x="937" 
d="M31 -354q145 26 227 102t152 242l-394 1040h129l322 -903l332 903h123l-394 -1020q-55 -147 -115 -240q-61 -94 -143 -148t-213 -83zM348 1200l227 281h156l-272 -281h-111z" />
    <glyph glyph-name="thorn" unicode="&#xfe;" horiz-adv-x="1138" 
d="M518 68q387 0 387 450q0 223 -80.5 334t-229.5 111t-300 -84v-779q106 -33 223 -32zM604 1061q201 0 315.5 -140.5t114.5 -400.5t-130 -405.5t-376 -145.5q-127 0 -233 33v-442l-123 -17v1995l123 16v-585q168 92 309 92z" />
    <glyph glyph-name="ydieresis" unicode="&#xff;" horiz-adv-x="937" 
d="M31 -354q145 26 227 102t152 242l-394 1040h129l322 -903l332 903h123l-394 -1020q-55 -147 -115 -240q-61 -94 -143 -148t-213 -83zM752 1373q0 -39 -22 -63t-63 -24q-40 0 -64 24q-23 24 -23 64t23 62q24 22 64 22q41 0 63 -22t22 -63zM263 1286q-41 0 -63 24t-22 64
t23 62t63 22t63 -22t23 -63q0 -39 -24 -63t-63 -24z" />
    <glyph glyph-name="Amacron" unicode="&#x100;" horiz-adv-x="1204" 
d="M317 485h572l-289 828zM1057 0l-135 387h-639l-131 -387h-134l508 1434h150l510 -1434h-129zM324 1696v98h553v-98h-553z" />
    <glyph glyph-name="amacron" unicode="&#x101;" horiz-adv-x="1064" 
d="M475 68q154 0 311 84v327q-128 25 -270 25t-214 -53t-71 -168q0 -215 244 -215zM907 707v-701l-104 -10l-8 72q-175 -98 -341 -98t-258 82q-92 83 -92 233q0 151 104 231t304 80q121 0 274 -29v140q0 256 -288 256q-162 0 -332 -74v96q156 74 349 75q194 1 293 -90
t99 -263zM240 1292v97h548v-97h-548z" />
    <glyph glyph-name="Abreve" unicode="&#x102;" horiz-adv-x="1204" 
d="M317 485h572l-289 828zM1057 0l-135 387h-639l-131 -387h-134l508 1434h150l510 -1434h-129zM883 1855q-4 -100 -81 -160q-77 -61 -202 -61t-202 60t-81 161h103q2 -57 51 -92t129 -35t129 36q49 34 51 91h103z" />
    <glyph glyph-name="abreve" unicode="&#x103;" horiz-adv-x="1064" 
d="M475 68q154 0 311 84v327q-128 25 -270 25t-214 -53t-71 -168q0 -215 244 -215zM907 707v-701l-104 -10l-8 72q-175 -98 -341 -98t-258 82q-92 83 -92 233q0 151 104 231t304 80q121 0 274 -29v140q0 256 -288 256q-162 0 -332 -74v96q156 74 349 75q194 1 293 -90
t99 -263zM513 1214q-124 0 -200 67t-80 183h99q2 -74 50 -116t132 -43q84 0 132 43t50 116h99q-4 -118 -81 -184t-201 -66z" />
    <glyph glyph-name="Aogonek" unicode="&#x104;" horiz-adv-x="1204" 
d="M317 485h572l-289 828zM907 -260q0 124 170 260h-20l-135 387h-639l-131 -387h-134l508 1434h150l510 -1434q-170 -127 -170 -236q0 -90 102 -90q31 0 68 9v-89q-41 -10 -113 -10t-119 41t-47 115z" />
    <glyph glyph-name="aogonek" unicode="&#x105;" horiz-adv-x="1064" 
d="M475 68q154 0 311 84v327q-128 25 -270 25t-214 -53t-71 -168q0 -215 244 -215zM907 707v-701q-170 -133 -170 -242q0 -92 103 -92q31 0 67 9v-84q-41 -11 -111 -11t-117 40q-46 40 -46 114q0 129 169 267l-7 61q-175 -98 -341 -98t-258 82q-92 83 -92 233q0 151 104 231
t304 80q121 0 274 -29v140q0 256 -288 256q-162 0 -332 -74v96q156 74 349 75q194 1 293 -90t99 -263z" />
    <glyph glyph-name="Cacute" unicode="&#x106;" horiz-adv-x="1183" 
d="M264 717q0 -315 116 -478t343 -163q174 0 352 86v-105q-176 -88 -368 -88q-272 0 -426 198t-154 550t154 550t426 197q186 0 362 -88v-104q-176 84 -346 86q-227 0 -343 -163t-116 -478zM571 1620l224 252h161l-270 -252h-115z" />
    <glyph glyph-name="cacute" unicode="&#x107;" horiz-adv-x="944" 
d="M557 -31q-217 -1 -335 141t-118 404t118 404t335 143q154 0 291 -68v-96q-143 63 -294 63t-236 -112q-85 -113 -85 -333t85 -333q86 -112 238 -112t296 63v-96q-135 -68 -295 -68zM414 1200l227 281h156l-273 -281h-110z" />
    <glyph glyph-name="Ccircumflex" unicode="&#x108;" horiz-adv-x="1183" 
d="M264 717q0 -315 116 -478t343 -163q174 0 352 86v-105q-176 -88 -368 -88q-272 0 -426 198t-154 550t154 550t426 197q186 0 362 -88v-104q-176 84 -346 86q-227 0 -343 -163t-116 -478zM864 1620l-174 170l-174 -170h-108l223 252h119l223 -252h-109z" />
    <glyph glyph-name="ccircumflex" unicode="&#x109;" horiz-adv-x="944" 
d="M557 -31q-217 -1 -335 141t-118 404t118 404t335 143q154 0 291 -68v-96q-143 63 -294 63t-236 -112q-85 -113 -85 -333t85 -333q86 -112 238 -112t296 63v-96q-135 -68 -295 -68zM713 1200l-183 193l-182 -193h-104l229 281h115l229 -281h-104z" />
    <glyph glyph-name="Cdotaccent" unicode="&#x10a;" horiz-adv-x="1183" 
d="M264 717q0 -315 116 -478t343 -163q174 0 352 86v-105q-176 -88 -368 -88q-272 0 -426 198t-154 550t154 550t426 197q186 0 362 -88v-104q-176 84 -346 86q-227 0 -343 -163t-116 -478zM690 1681q-44 0 -70 25t-26 70q0 46 26 70t70 24t71 -25q25 -25 25 -69t-26 -70
q-26 -25 -70 -25z" />
    <glyph glyph-name="cdotaccent" unicode="&#x10b;" horiz-adv-x="944" 
d="M557 -31q-217 -1 -335 141t-118 404t118 404t335 143q154 0 291 -68v-96q-143 63 -294 63t-236 -112q-85 -113 -85 -333t85 -333q86 -112 238 -112t296 63v-96q-135 -68 -295 -68zM530 1280q-40 0 -66 25t-26 67t26 68q26 24 66 24t67 -24q26 -24 26 -68t-26 -68t-67 -24
z" />
    <glyph glyph-name="Ccaron" unicode="&#x10c;" horiz-adv-x="1183" 
d="M264 717q0 -315 116 -478t343 -163q174 0 352 86v-105q-176 -88 -368 -88q-272 0 -426 198t-154 550t154 550t426 197q186 0 362 -88v-104q-176 84 -346 86q-227 0 -343 -163t-116 -478zM516 1872l174 -172l174 172h109l-223 -252h-119l-223 252h108z" />
    <glyph glyph-name="ccaron" unicode="&#x10d;" horiz-adv-x="944" 
d="M557 -31q-217 -1 -335 141t-118 404t118 404t335 143q154 0 291 -68v-96q-143 63 -294 63t-236 -112q-85 -113 -85 -333t85 -333q86 -112 238 -112t296 63v-96q-135 -68 -295 -68zM348 1481l182 -195l183 195h104l-229 -281h-115l-229 281h104z" />
    <glyph glyph-name="Dcaron" unicode="&#x10e;" horiz-adv-x="1384" 
d="M1122 723q0 620 -547 618q-98 0 -243 -22v-1215h235q274 0 415 157q140 157 140 462zM203 0v1403q215 43 385 43q315 0 492 -190t177 -536q0 -344 -179 -532t-511 -188h-364zM469 1872l174 -172l174 172h109l-224 -252h-118l-224 252h109z" />
    <glyph glyph-name="dcaron" unicode="&#x10f;" horiz-adv-x="1212" 
d="M621 963q-385 0 -387 -451q0 -224 80 -334q81 -110 230 -110t300 84v778q-106 33 -223 33zM104 510q0 260 130 405t376 146q127 0 234 -33v510l123 16v-1548l-105 -10l-8 72q-174 -98 -319 -99q-201 1 -316 141t-115 400zM1126 1081v463h119l-31 -463h-88z" />
    <glyph glyph-name="Dcroat" unicode="&#x110;" horiz-adv-x="1384" 
d="M1122 723q0 620 -547 618q-98 0 -243 -22v-543h401v-92h-401v-580h235q274 0 415 157q140 157 140 462zM203 0v684h-156v92h156v627q215 43 385 43q315 0 492 -190t177 -536q0 -344 -179 -532t-511 -188h-364z" />
    <glyph glyph-name="dcroat" unicode="&#x111;" horiz-adv-x="1138" 
d="M544 68q149 0 300 84v757q-106 33 -223 33q-197 0 -292.5 -108.5t-95.5 -326.5t81 -328.5t230 -110.5zM967 1341h153v-92h-153v-1243l-105 -10l-8 72q-174 -98 -319 -99q-201 0 -316 140.5t-115 395.5t130.5 395t375.5 140q127 0 234 -32v241h-379v92h379v197l123 16
v-213z" />
    <glyph glyph-name="Emacron" unicode="&#x112;" horiz-adv-x="1093" 
d="M332 678v-574h698v-104h-827v1434h825v-105h-696v-547h608v-104h-608zM338 1696v98h553v-98h-553z" />
    <glyph glyph-name="emacron" unicode="&#x113;" horiz-adv-x="1044" 
d="M544 965q-136 -1 -224 -103t-95 -274h598q4 33 4 57q0 152 -73 236q-74 84 -210 84zM594 -31q-236 -1 -363 139t-127 399t119 406t313 147t300 -113q106 -114 106 -310q0 -74 -12 -141h-705q2 -428 379 -428q152 0 293 65v-96q-141 -68 -303 -68zM274 1292v97h549v-97
h-549z" />
    <glyph glyph-name="Ebreve" unicode="&#x114;" horiz-adv-x="1093" 
d="M332 678v-574h698v-104h-827v1434h825v-105h-696v-547h608v-104h-608zM897 1855q-4 -100 -81 -160q-77 -61 -202 -61q-126 0 -202 60t-80 161h102q2 -57 51 -92t129 -35t129 36q49 34 52 91h102z" />
    <glyph glyph-name="ebreve" unicode="&#x115;" horiz-adv-x="1044" 
d="M544 965q-136 -1 -224 -103t-95 -274h598q4 33 4 57q0 152 -73 236q-74 84 -210 84zM594 -31q-236 -1 -363 139t-127 399t119 406t313 147t300 -113q106 -114 106 -310q0 -74 -12 -141h-705q2 -428 379 -428q152 0 293 65v-96q-141 -68 -303 -68zM548 1214
q-124 0 -200 67t-80 183h99q2 -74 50 -116t132 -43q84 0 132 43t50 116h98q-5 -118 -81 -184t-200 -66z" />
    <glyph glyph-name="Edotaccent" unicode="&#x116;" horiz-adv-x="1093" 
d="M332 678v-574h698v-104h-827v1434h825v-105h-696v-547h608v-104h-608zM614 1681q-44 0 -70 25t-26 70q0 46 26 70t70 24t71 -25q26 -25 26 -69t-26 -70q-26 -25 -71 -25z" />
    <glyph glyph-name="edotaccent" unicode="&#x117;" horiz-adv-x="1044" 
d="M544 965q-136 -1 -224 -103t-95 -274h598q4 33 4 57q0 152 -73 236q-74 84 -210 84zM594 -31q-236 -1 -363 139t-127 399t119 406t313 147t300 -113q106 -114 106 -310q0 -74 -12 -141h-705q2 -428 379 -428q152 0 293 65v-96q-141 -68 -303 -68zM549 1280q-41 0 -67 25
t-26 67t26 68q26 24 67 24t67 -24t25 -68q1 -44 -25 -68t-67 -24z" />
    <glyph glyph-name="Eogonek" unicode="&#x118;" horiz-adv-x="1093" 
d="M752 -260q0 124 169 260h-718v1434h825v-105h-696v-547h608v-104h-608v-574h698v-104q-170 -127 -170 -236q0 -90 103 -90q31 0 67 9v-89q-40 -10 -112 -10t-119 41t-47 115z" />
    <glyph glyph-name="eogonek" unicode="&#x119;" horiz-adv-x="1044" 
d="M544 965q-136 -1 -224 -103t-95 -274h598q4 33 4 57q0 152 -73 236q-74 84 -210 84zM623 -259q0 116 115 243q-70 -14 -144 -15q-236 -1 -363 139t-127 399t119 406t313 147t300 -113q106 -114 106 -310q0 -74 -12 -141h-705q2 -428 379 -428q152 0 293 65v-96
q-170 -145 -170 -273q0 -92 102 -92q31 0 68 9v-84q-41 -11 -111 -11t-117 40q-46 40 -46 115z" />
    <glyph glyph-name="Ecaron" unicode="&#x11a;" horiz-adv-x="1093" 
d="M332 678v-574h698v-104h-827v1434h825v-105h-696v-547h608v-104h-608zM440 1872l174 -172l174 172h109l-223 -252h-119l-223 252h108z" />
    <glyph glyph-name="ecaron" unicode="&#x11b;" horiz-adv-x="1044" 
d="M544 965q-136 -1 -224 -103t-95 -274h598q4 33 4 57q0 152 -73 236q-74 84 -210 84zM594 -31q-236 -1 -363 139t-127 399t119 406t313 147t300 -113q106 -114 106 -310q0 -74 -12 -141h-705q2 -428 379 -428q152 0 293 65v-96q-141 -68 -303 -68zM367 1481l182 -195
l182 195h105l-230 -281h-114l-230 281h105z" />
    <glyph glyph-name="Gcircumflex" unicode="&#x11c;" horiz-adv-x="1304" 
d="M778 -31q-307 0 -479 198t-172 549t171 550t470 198q203 0 379 -88v-104q-180 88 -369 88q-250 0 -383 -166t-133 -478t134 -477t392 -165q137 0 269 43v520h-187l15 104h291v-684q-182 -88 -398 -88zM903 1620l-174 170l-174 -170h-109l224 252h118l224 -252h-109z" />
    <glyph glyph-name="gcircumflex" unicode="&#x11d;" horiz-adv-x="1138" 
d="M621 963q-385 0 -387 -447q0 -218 80 -324q81 -106 228 -106t302 84v760q-106 33 -223 33zM104 514q0 256 130 401t376 146q186 0 357 -66v-1046q0 -205 -119 -315q-118 -110 -320 -111q-202 0 -329 63l-17 105q168 -70 320 -70q342 0 342 318v141q-171 -94 -309 -92
q-201 0 -316 135t-115 391zM770 1200l-182 193l-182 -193h-105l229 281h115l229 -281h-104z" />
    <glyph glyph-name="Gbreve" unicode="&#x11e;" horiz-adv-x="1304" 
d="M778 -31q-307 0 -479 198t-172 549t171 550t470 198q203 0 379 -88v-104q-180 88 -369 88q-250 0 -383 -166t-133 -478t134 -477t392 -165q137 0 269 43v520h-187l15 104h291v-684q-182 -88 -398 -88zM1012 1855q-4 -100 -81 -160q-77 -61 -202 -61t-202 60t-81 161h103
q2 -57 51 -92t129 -35t129 36q49 34 51 91h103z" />
    <glyph glyph-name="gbreve" unicode="&#x11f;" horiz-adv-x="1138" 
d="M621 963q-385 0 -387 -447q0 -218 80 -324q81 -106 228 -106t302 84v760q-106 33 -223 33zM104 514q0 256 130 401t376 146q186 0 357 -66v-1046q0 -205 -119 -315q-118 -110 -320 -111q-202 0 -329 63l-17 105q168 -70 320 -70q342 0 342 318v141q-171 -94 -309 -92
q-201 0 -316 135t-115 391zM586 1214q-124 0 -199 67q-76 67 -80 183h99q2 -74 50 -116t132 -43q84 0 132 43t50 116h98q-4 -118 -81 -184t-201 -66z" />
    <glyph glyph-name="Gdotaccent" unicode="&#x120;" horiz-adv-x="1304" 
d="M778 -31q-307 0 -479 198t-172 549t171 550t470 198q203 0 379 -88v-104q-180 88 -369 88q-250 0 -383 -166t-133 -478t134 -477t392 -165q137 0 269 43v520h-187l15 104h291v-684q-182 -88 -398 -88zM729 1681q-45 0 -71 25t-25 70q-1 46 25 70t71 24t71 -25t26 -69
t-26 -70q-26 -25 -71 -25z" />
    <glyph glyph-name="gdotaccent" unicode="&#x121;" horiz-adv-x="1138" 
d="M621 963q-385 0 -387 -447q0 -218 80 -324q81 -106 228 -106t302 84v760q-106 33 -223 33zM104 514q0 256 130 401t376 146q186 0 357 -66v-1046q0 -205 -119 -315q-118 -110 -320 -111q-202 0 -329 63l-17 105q168 -70 320 -70q342 0 342 318v141q-171 -94 -309 -92
q-201 0 -316 135t-115 391zM588 1280q-41 0 -67 25q-25 25 -25 67t25 68q26 24 67 24q40 0 66 -24t26 -68t-26 -68t-66 -24z" />
    <glyph glyph-name="uni0122" unicode="&#x122;" horiz-adv-x="1304" 
d="M778 -31q-307 0 -479 198t-172 549t171 550t470 198q203 0 379 -88v-104q-180 88 -369 88q-250 0 -383 -166t-133 -478t134 -477t392 -165q137 0 269 43v520h-187l15 104h291v-684q-182 -88 -398 -88zM639 -338q0 41 25 66q24 24 66 24t66 -32t24 -90t-36 -136
q-35 -78 -90 -141l-49 33q53 96 57 192q-63 12 -63 84z" />
    <glyph glyph-name="uni0123" unicode="&#x123;" horiz-adv-x="1138" 
d="M621 963q-385 0 -387 -447q0 -218 80 -324q81 -106 228 -106t302 84v760q-106 33 -223 33zM104 514q0 256 130 401t376 146q186 0 357 -66v-1046q0 -205 -119 -315q-118 -110 -320 -111q-202 0 -329 63l-17 105q168 -70 320 -70q342 0 342 318v141q-171 -94 -309 -92
q-201 0 -316 135t-115 391zM586 1280q-42 0 -64 31t-22 89t34 135t89 140l47 -30q-53 -96 -58 -193q62 -12 64 -84q0 -40 -24 -64t-66 -24z" />
    <glyph glyph-name="Hcircumflex" unicode="&#x124;" horiz-adv-x="1417" 
d="M203 0v1434h129v-643h753v643h129v-1434h-129v686h-753v-686h-129zM883 1620l-174 170l-174 -170h-109l223 252h119l223 -252h-108z" />
    <glyph glyph-name="hcircumflex" unicode="&#x125;" horiz-adv-x="1138" 
d="M602 963q-135 0 -307 -84v-879h-123v1538l123 16v-587q172 94 338 94t257 -86t91 -244v-731h-123v711q0 252 -256 252zM416 1735l-183 170l-182 -170h-104l229 247h115l229 -247h-104z" />
    <glyph glyph-name="Hbar" unicode="&#x126;" horiz-adv-x="1417" 
d="M332 791h753v274h-753v-274zM203 0v1065h-154v92h154v277h129v-277h753v277h129v-277h154v-92h-154v-1065h-129v686h-753v-686h-129z" />
    <glyph glyph-name="hbar" unicode="&#x127;" horiz-adv-x="1138" 
d="M602 942q-139 0 -307 -84v-858h-123v1249h-154v92h154v197l123 16v-213h379v-92h-379v-303q172 94 338 94t257 -86t91 -243v-711h-123v690q0 252 -256 252z" />
    <glyph glyph-name="Itilde" unicode="&#x128;" horiz-adv-x="534" 
d="M203 0v1434h129v-1434h-129zM154 1745q-74 0 -78 -88h-92q2 88 44 134t113 46t127 -38t73 -46t38 -8q72 0 78 88h92q-2 -88 -44 -134t-114 -46t-127 38q-54 38 -72 46t-38 8z" />
    <glyph glyph-name="itilde" unicode="&#x129;" horiz-adv-x="466" 
d="M172 0v1020l123 16v-1036h-123zM115 1446q74 0 128 -51t70 -61t33 -11q74 0 80 119h88q-4 -209 -162 -209q-74 0 -128 51q-54 52 -70 62t-33 10q-74 0 -80 -119h-88q4 209 162 209z" />
    <glyph glyph-name="Imacron" unicode="&#x12a;" horiz-adv-x="534" 
d="M203 0v1434h129v-1434h-129zM-10 1696v98h553v-98h-553z" />
    <glyph glyph-name="imacron" unicode="&#x12b;" horiz-adv-x="466" 
d="M172 0v1020l123 16v-1036h-123zM-41 1292v97h549v-97h-549z" />
    <glyph glyph-name="Ibreve" unicode="&#x12c;" horiz-adv-x="534" 
d="M203 0v1434h129v-1434h-129zM549 1855q-4 -100 -81 -160q-77 -61 -202 -61q-126 0 -202 60t-80 161h102q2 -57 51 -92t129 -35t129 36q49 34 51 91h103z" />
    <glyph glyph-name="ibreve" unicode="&#x12d;" horiz-adv-x="466" 
d="M172 0v1020l123 16v-1036h-123zM232 1214q-124 0 -200 67t-79 183h98q2 -74 50 -116t132 -43q84 0 133 43q48 43 50 116h98q-4 -118 -81 -184t-201 -66z" />
    <glyph glyph-name="Iogonek" unicode="&#x12e;" horiz-adv-x="534" 
d="M53 -260q0 124 170 260h-20v1434h129v-1434q-170 -127 -170 -236q0 -90 102 -90q31 0 68 9v-89q-41 -10 -113 -10t-119 41t-47 115z" />
    <glyph glyph-name="iogonek" unicode="&#x12f;" horiz-adv-x="466" 
d="M233 1280q-41 0 -67 25t-25 67q0 42 26 68q27 24 67 24t66 -24t26 -68t-26 -68t-67 -24zM172 0v1020l123 16v-1036h-8q-162 -129 -162 -236q0 -92 102 -92q31 0 68 9v-84q-41 -11 -111 -11t-117 40q-46 40 -47 114q0 126 160 260h-8z" />
    <glyph glyph-name="Idotaccent" unicode="&#x130;" horiz-adv-x="534" 
d="M203 0v1434h129v-1434h-129zM266 1681q-44 0 -70 25t-26 70q0 46 26 70t70 24t71 -25q25 -25 25 -69t-26 -70q-26 -25 -70 -25z" />
    <glyph glyph-name="dotlessi" unicode="&#x131;" horiz-adv-x="466" 
d="M172 0v1020l123 16v-1036h-123z" />
    <glyph glyph-name="IJ" unicode="&#x132;" horiz-adv-x="1519" 
d="M203 0v1434h129v-1434h-129zM868 76q330 0 330 395v963h129v-963q0 -248 -113 -375t-333 -127q-131 0 -258 56l-21 108q141 -57 266 -57z" />
    <glyph glyph-name="ij" unicode="&#x133;" horiz-adv-x="933" 
d="M233 1280q-41 0 -67 25t-25 67q0 42 26 68q27 24 67 24t66 -24t26 -68t-26 -68t-67 -24zM172 0v1020l123 16v-1036h-123zM700 1280q-40 0 -66 25t-26 67t26 68q26 24 66 24t67 -24q26 -24 26 -68t-26 -68t-67 -24zM639 -53v1073l123 16v-1077q0 -197 -95 -307t-272 -113
l-24 101q131 0 199 78t69 229z" />
    <glyph glyph-name="Jcircumflex" unicode="&#x134;" horiz-adv-x="985" 
d="M334 76q330 0 330 395v963h129v-963q0 -248 -113 -375t-334 -127q-131 0 -258 56l-20 108q141 -57 266 -57zM901 1620l-174 170l-174 -170h-109l224 252h118l224 -252h-109z" />
    <glyph glyph-name="jcircumflex" unicode="&#x135;" horiz-adv-x="466" 
d="M172 -53v1073l123 16v-1077q0 -197 -95 -307t-272 -113l-24 101q132 0 200 78t68 229zM416 1200l-183 193l-182 -193h-104l229 281h115l229 -281h-104z" />
    <glyph glyph-name="uni0136" unicode="&#x136;" horiz-adv-x="1191" 
d="M203 0v1434h129v-637l684 637h162l-738 -680l744 -754h-168l-684 702v-702h-129zM584 -338q0 41 24 66q25 24 67 24q41 0 65 -32t24 -90t-35 -136t-90 -141l-49 33q53 96 57 192q-63 12 -63 84z" />
    <glyph glyph-name="uni0137" unicode="&#x137;" horiz-adv-x="942" 
d="M172 0v1538l123 16v-981l483 457h146l-506 -479l522 -551h-156l-489 520v-520h-123zM451 -338q0 39 23 64q24 25 65 24q88 0 88 -119q0 -59 -34 -136t-89 -140l-47 31q53 96 57 192q-63 12 -63 84z" />
    <glyph glyph-name="kgreenlandic" unicode="&#x138;" horiz-adv-x="942" 
d="M172 0v1020l123 16v-463l483 457h146l-506 -479l522 -551h-156l-489 520v-520h-123z" />
    <glyph glyph-name="Lacute" unicode="&#x139;" horiz-adv-x="1052" 
d="M203 0v1434h129v-1330h690v-104h-819zM147 1620l224 252h161l-270 -252h-115z" />
    <glyph glyph-name="lacute" unicode="&#x13a;" horiz-adv-x="466" 
d="M172 0v1538l123 16v-1554h-123zM117 1735l227 247h158l-275 -247h-110z" />
    <glyph glyph-name="uni013B" unicode="&#x13b;" horiz-adv-x="1052" 
d="M203 0v1434h129v-1330h690v-104h-819zM586 -422q-62 12 -64 84q0 41 25 66q25 24 67 24t65 -32q55 -74 -11 -226q-35 -78 -90 -141l-50 33q53 96 58 192z" />
    <glyph glyph-name="uni013C" unicode="&#x13c;" horiz-adv-x="466" 
d="M172 0v1538l123 16v-1554h-123zM322 -369q0 -59 -34 -136t-89 -140l-47 31q53 96 57 192q-62 12 -64 84q0 39 24 64t64 24q89 0 89 -119z" />
    <glyph glyph-name="Lcaron" unicode="&#x13d;" horiz-adv-x="1052" 
d="M203 0v1434h129v-1330h690v-104h-819zM750 971v463h118l-30 -463h-88z" />
    <glyph glyph-name="lcaron" unicode="&#x13e;" horiz-adv-x="540" 
d="M172 0v1538l123 16v-1554h-123zM455 1081v463h118l-30 -463h-88z" />
    <glyph glyph-name="Ldot" unicode="&#x13f;" horiz-adv-x="1052" 
d="M203 0v1434h129v-1330h690v-104h-819zM799 684q-41 0 -68 26t-27 68t27 69q27 25 68 25t67 -26t27 -68q-1 -42 -27 -68t-67 -26z" />
    <glyph glyph-name="ldot" unicode="&#x140;" horiz-adv-x="679" 
d="M172 0v1538l123 16v-1554h-123zM573 684q-41 0 -67 26t-27 68q0 42 27 69q28 25 68 25t67 -26t27 -68t-27 -68t-68 -26z" />
    <glyph glyph-name="Lslash" unicode="&#x141;" horiz-adv-x="1052" 
d="M203 0v541l-156 -88v108l156 90v783h129v-709l413 240v-111l-413 -238v-512h690v-104h-819z" />
    <glyph glyph-name="lslash" unicode="&#x142;" horiz-adv-x="483" 
d="M180 0v700l-155 -88v103l155 88v735l123 16v-680l156 91v-105l-156 -90v-770h-123z" />
    <glyph glyph-name="Nacute" unicode="&#x143;" horiz-adv-x="1423" 
d="M1096 1434h125v-1434h-123l-770 1221v-1221h-125v1434h123l770 -1221v1221zM592 1620l223 252h162l-270 -252h-115z" />
    <glyph glyph-name="nacute" unicode="&#x144;" horiz-adv-x="1138" 
d="M602 963q-135 0 -307 -84v-879h-123v1024l104 10l9 -71q178 98 346 98t259 -86t91 -244v-731h-123v711q0 252 -256 252zM459 1200l227 281h156l-273 -281h-110z" />
    <glyph glyph-name="uni0145" unicode="&#x145;" horiz-adv-x="1423" 
d="M1096 1434h125v-1434h-123l-770 1221v-1221h-125v1434h123l770 -1221v1221zM621 -338q0 41 24 66q25 24 67 24t66 -32t23 -90q0 -58 -35 -136t-90 -141l-49 33q53 96 57 192q-63 12 -63 84z" />
    <glyph glyph-name="uni0146" unicode="&#x146;" horiz-adv-x="1138" 
d="M602 963q-135 0 -307 -84v-879h-123v1024l104 10l9 -71q178 98 346 98t259 -86t91 -244v-731h-123v711q0 252 -256 252zM664 -369q0 -59 -34 -136t-89 -140l-47 31q53 96 57 192q-62 12 -64 84q0 39 24 64t64 24q89 0 89 -119z" />
    <glyph glyph-name="Ncaron" unicode="&#x147;" horiz-adv-x="1423" 
d="M1096 1434h125v-1434h-123l-770 1221v-1221h-125v1434h123l770 -1221v1221zM537 1872l174 -172l174 172h108l-223 -252h-119l-223 252h109z" />
    <glyph glyph-name="ncaron" unicode="&#x148;" horiz-adv-x="1138" 
d="M602 963q-135 0 -307 -84v-879h-123v1024l104 10l9 -71q178 98 346 98t259 -86t91 -244v-731h-123v711q0 252 -256 252zM393 1481l182 -195l183 195h104l-229 -281h-115l-229 281h104z" />
    <glyph glyph-name="napostrophe" unicode="&#x149;" horiz-adv-x="1341" 
d="M805 963q-137 0 -307 -84v-879h-123v1024l104 10l8 -71q179 98 347 98t259 -86t91 -244v-731h-123v711q0 252 -256 252zM213 1473q93 -1 93 -137q0 -72 -59 -184q-58 -112 -147 -191l-45 28q121 158 125 299q-63 16 -63 90q0 43 26 69q27 26 70 26z" />
    <glyph glyph-name="Eng" unicode="&#x14a;" horiz-adv-x="1423" 
d="M328 0h-125v1434h123l770 -1155v1155h125v-1420q0 -238 -86 -348t-269 -110q-131 0 -237 55l-19 110q123 -59 245 -59t181.5 82t59.5 270v54l-768 1153v-1221z" />
    <glyph glyph-name="eng" unicode="&#x14b;" horiz-adv-x="1138" 
d="M602 963q-139 0 -307 -84v-879h-123v1024l104 10l9 -71q178 98 346 98t259 -86t91 -244v-772q0 -197 -95 -306.5t-272 -113.5l-24 101q131 0 199.5 77.5t68.5 229.5v764q0 252 -256 252z" />
    <glyph glyph-name="Omacron" unicode="&#x14c;" horiz-adv-x="1425" 
d="M713 -31q-283 0 -435 195t-151 553q0 358 152 553q153 194 435 194t434 -194t150 -553q0 -358 -151 -553t-434 -195zM713 74q451 0 450 643t-451 643t-450 -643t451 -643zM436 1696v98h553v-98h-553z" />
    <glyph glyph-name="omacron" unicode="&#x14d;" horiz-adv-x="1110" 
d="M555 68q168 0 245 108t77 339q0 232 -77 340t-245 108t-245 -108t-77 -340q0 -231 77 -339t245 -108zM555 -31q-223 1 -337 139t-114 407t114 407t337 139q223 0 337 -138q114 -137 114 -407t-114 -408t-337 -139zM281 1292v97h548v-97h-548z" />
    <glyph glyph-name="Obreve" unicode="&#x14e;" horiz-adv-x="1425" 
d="M713 -31q-283 0 -435 195t-151 553q0 358 152 553q153 194 435 194t434 -194t150 -553q0 -358 -151 -553t-434 -195zM713 74q451 0 450 643t-451 643t-450 -643t451 -643zM995 1855q-4 -100 -81 -160q-78 -61 -202 -61t-201 60t-81 161h102q2 -57 52 -92t129 -35
q80 0 129 36q49 34 51 91h102z" />
    <glyph glyph-name="obreve" unicode="&#x14f;" horiz-adv-x="1110" 
d="M555 68q168 0 245 108t77 339q0 232 -77 340t-245 108t-245 -108t-77 -340q0 -231 77 -339t245 -108zM555 -31q-223 1 -337 139t-114 407t114 407t337 139q223 0 337 -138q114 -137 114 -407t-114 -408t-337 -139zM554 1214q-124 0 -200 67t-80 183h99q2 -74 50 -116
t132 -43q84 0 132 43t50 116h99q-4 -118 -81 -184t-201 -66z" />
    <glyph glyph-name="Ohungarumlaut" unicode="&#x150;" horiz-adv-x="1425" 
d="M713 -31q-283 0 -435 195t-151 553q0 358 152 553q153 194 435 194t434 -194t150 -553q0 -358 -151 -553t-434 -195zM713 74q451 0 450 643t-451 643t-450 -643t451 -643zM440 1620l224 252h161l-270 -252h-115zM748 1620l223 252h162l-271 -252h-114z" />
    <glyph glyph-name="ohungarumlaut" unicode="&#x151;" horiz-adv-x="1110" 
d="M555 68q168 0 245 108t77 339q0 232 -77 340t-245 108t-245 -108t-77 -340q0 -231 77 -339t245 -108zM555 -31q-223 1 -337 139t-114 407t114 407t337 139q223 0 337 -138q114 -137 114 -407t-114 -408t-337 -139zM592 1200l229 281h154l-273 -281h-110zM285 1200
l229 281h154l-273 -281h-110z" />
    <glyph glyph-name="OE" unicode="&#x152;" horiz-adv-x="1839" 
d="M817 1341q-555 0 -555 -620q0 -305 140.5 -461t414.5 -156h174v1225q-100 12 -174 12zM1118 678v-574h658v-104h-959q-332 0 -511 187.5t-179 533.5t177 535.5t497 189.5q76 0 215 -12h758v-105h-656v-547h568v-104h-568z" />
    <glyph glyph-name="oe" unicode="&#x153;" horiz-adv-x="1796" 
d="M1299 965q-132 0 -218 -104.5t-92 -272.5h586q4 33 4 57q0 152 -74 236t-206 84zM551 68q164 0 239.5 108.5t75.5 338.5t-74.5 339t-239.5 109t-242 -107.5t-77 -339.5t77 -340t241 -108zM1346 -31q-303 0 -418 244q-98 -244 -373 -244q-223 0 -337 138.5t-114 407.5
t114 407.5t337 138.5q272 0 373 -244q55 117 152.5 180.5t219.5 63.5q182 0 288 -113.5t106 -310.5q0 -74 -13 -141h-692q2 -211 94.5 -319.5t258.5 -108.5t307 65v-96q-141 -68 -303 -68z" />
    <glyph glyph-name="Racute" unicode="&#x154;" horiz-adv-x="1218" 
d="M575 1343q-106 0 -245 -24v-625h235q197 0 300 83t103 242t-100 241t-293 83zM590 1446q236 0 373 -115t137 -311q0 -158 -87 -262t-249 -144l405 -614h-151l-381 594q-15 -2 -33 -2h-274v-592h-127v1403q215 43 387 43zM471 1620l223 252h162l-270 -252h-115z" />
    <glyph glyph-name="racute" unicode="&#x155;" horiz-adv-x="704" 
d="M172 0v1024l104 10l11 -92q137 113 293 113q55 0 88 -13v-100q-53 12 -95 12q-145 0 -278 -104v-850h-123zM303 1200l227 281h156l-272 -281h-111z" />
    <glyph glyph-name="uni0156" unicode="&#x156;" horiz-adv-x="1218" 
d="M575 1343q-106 0 -245 -24v-625h235q197 0 300 83t103 242t-100 241t-293 83zM590 1446q236 0 373 -115t137 -311q0 -158 -87 -262t-249 -144l405 -614h-151l-381 594q-15 -2 -33 -2h-274v-592h-127v1403q215 43 387 43zM584 -338q0 41 24 66q25 24 67 24q41 0 65 -32
t24 -90t-35 -136t-90 -141l-49 33q53 96 57 192q-63 12 -63 84z" />
    <glyph glyph-name="uni0157" unicode="&#x157;" horiz-adv-x="704" 
d="M172 0v1024l104 10l11 -92q137 113 293 113q55 0 88 -13v-100q-53 12 -95 12q-145 0 -278 -104v-850h-123zM324 -369q0 -59 -34 -136t-89 -140l-47 31q53 96 57 192q-62 12 -64 84q0 39 24 64t65 24q88 0 88 -119z" />
    <glyph glyph-name="Rcaron" unicode="&#x158;" horiz-adv-x="1218" 
d="M575 1343q-106 0 -245 -24v-625h235q197 0 300 83t103 242t-100 241t-293 83zM590 1446q236 0 373 -115t137 -311q0 -158 -87 -262t-249 -144l405 -614h-151l-381 594q-15 -2 -33 -2h-274v-592h-127v1403q215 43 387 43zM416 1872l174 -172l174 172h108l-223 -252h-119
l-223 252h109z" />
    <glyph glyph-name="rcaron" unicode="&#x159;" horiz-adv-x="704" 
d="M172 0v1024l104 10l11 -92q137 113 293 113q55 0 88 -13v-100q-53 12 -95 12q-145 0 -278 -104v-850h-123zM238 1481l182 -195l182 195h105l-230 -281h-115l-229 281h105z" />
    <glyph glyph-name="Sacute" unicode="&#x15a;" horiz-adv-x="1101" 
d="M492 74q188 0 287 81t99 214t-65 203q-66 70 -219 116l-145 45q-168 51 -246 134t-78 212q0 173 132 279q131 106 331 106t366 -75v-103q-176 74 -342 74t-260 -73t-94 -204q0 -92 53 -145t187 -96l145 -47q197 -63 283 -159t86 -247q0 -195 -136 -307t-362 -113
q-226 0 -403 88l-21 111q214 -94 402 -94zM444 1620l224 252h161l-270 -252h-115z" />
    <glyph glyph-name="sacute" unicode="&#x15b;" horiz-adv-x="901" 
d="M686 283q0 71 -40 113t-132 71l-156 49q-131 42 -190 104t-59 158q0 129 101 206q102 77 260 77t290 -55v-97q-136 53 -264 53t-196 -48t-69 -120q0 -72 38 -107q38 -36 137 -69l161 -53q125 -41 184 -108q58 -68 58 -172q0 -152 -102 -234q-101 -82 -281 -82t-317 64
l-17 102q154 -68 318 -67q276 0 276 215zM326 1200l227 281h156l-273 -281h-110z" />
    <glyph glyph-name="Scircumflex" unicode="&#x15c;" horiz-adv-x="1101" 
d="M492 74q188 0 287 81t99 214t-65 203q-66 70 -219 116l-145 45q-168 51 -246 134t-78 212q0 173 132 279q131 106 331 106t366 -75v-103q-176 74 -342 74t-260 -73t-94 -204q0 -92 53 -145t187 -96l145 -47q197 -63 283 -159t86 -247q0 -195 -136 -307t-362 -113
q-226 0 -403 88l-21 111q214 -94 402 -94zM737 1620l-174 170l-174 -170h-108l223 252h119l223 -252h-109z" />
    <glyph glyph-name="scircumflex" unicode="&#x15d;" horiz-adv-x="901" 
d="M686 283q0 71 -40 113t-132 71l-156 49q-131 42 -190 104t-59 158q0 129 101 206q102 77 260 77t290 -55v-97q-136 53 -264 53t-196 -48t-69 -120q0 -72 38 -107q38 -36 137 -69l161 -53q125 -41 184 -108q58 -68 58 -172q0 -152 -102 -234q-101 -82 -281 -82t-317 64
l-17 102q154 -68 318 -67q276 0 276 215zM625 1200l-183 193l-182 -193h-104l229 281h115l229 -281h-104z" />
    <glyph glyph-name="Scedilla" unicode="&#x15e;" horiz-adv-x="1101" 
d="M526 -442q164 0 164 114q0 49 -35 78t-94 29t-102 -19l-49 47l68 163q-202 5 -367 87l-21 111q214 -94 402 -94t287 81t99 214t-65 203q-66 70 -219 116l-145 45q-168 51 -246 134t-78 212q0 173 132 279q131 106 331 106t366 -75v-103q-176 74 -342 74t-260 -73
t-94 -204q0 -92 53 -145t187 -96l145 -47q197 -63 283 -159t86 -247q0 -195 -136 -307q-116 -96 -305 -110l-55 -126q31 6 72 7q92 -1 147 -51t55 -137t-71 -142q-73 -55 -179 -55t-192 43l-8 90q94 -43 186 -43z" />
    <glyph glyph-name="scedilla" unicode="&#x15f;" horiz-adv-x="901" 
d="M686 283q0 71 -40 113t-132 71l-156 49q-131 42 -190 104t-59 158q0 129 101 206q102 77 260 77t290 -55v-97q-136 53 -264 53t-196 -48t-69 -120q0 -72 38 -107q38 -36 137 -69l161 -53q125 -41 184 -108q58 -68 58 -172q0 -151 -94 -227t-241 -87l-54 -127q35 6 74 6
q90 0 145 -49t55 -136t-72 -141t-178 -54q-108 0 -188 43l-8 86q94 -43 179 -43t128 30t43 83q0 52 -36 82t-95 30t-102 -19l-48 45l69 163q-153 5 -277 63l-17 102q154 -68 318 -67q276 0 276 215z" />
    <glyph glyph-name="Scaron" unicode="&#x160;" horiz-adv-x="1101" 
d="M492 74q188 0 287 81t99 214t-65 203q-66 70 -219 116l-145 45q-168 51 -246 134t-78 212q0 173 132 279q131 106 331 106t366 -75v-103q-176 74 -342 74t-260 -73t-94 -204q0 -92 53 -145t187 -96l145 -47q197 -63 283 -159t86 -247q0 -195 -136 -307t-362 -113
q-226 0 -403 88l-21 111q214 -94 402 -94zM389 1872l174 -172l174 172h109l-223 -252h-119l-223 252h108z" />
    <glyph glyph-name="scaron" unicode="&#x161;" horiz-adv-x="901" 
d="M686 283q0 71 -40 113t-132 71l-156 49q-131 42 -190 104t-59 158q0 129 101 206q102 77 260 77t290 -55v-97q-136 53 -264 53t-196 -48t-69 -120q0 -72 38 -107q38 -36 137 -69l161 -53q125 -41 184 -108q58 -68 58 -172q0 -152 -102 -234q-101 -82 -281 -82t-317 64
l-17 102q154 -68 318 -67q276 0 276 215zM260 1481l182 -195l183 195h104l-229 -281h-115l-229 281h104z" />
    <glyph glyph-name="uni0162" unicode="&#x162;" horiz-adv-x="1054" 
d="M516 -442q164 0 164 114q0 49 -35 78t-94 29t-102 -19l-50 47l82 193h-18v1329h-432v105h993v-105h-432v-1329h-19l-67 -154q31 6 72 7q92 -1 147 -51t55 -137t-72 -142t-178 -55t-192 43l-8 90q94 -43 186 -43z" />
    <glyph glyph-name="uni0163" unicode="&#x163;" horiz-adv-x="688" 
d="M201 936h-156v88l160 6l12 258l107 12v-270h309v-94h-309v-655q0 -107 45 -157t123 -50t155 22v-90q-86 -29 -130 -29t-58 1l-58 -134q35 6 74 6q89 0 145 -49t56 -136t-72 -141t-179 -54t-187 43l-9 86q93 -43 179 -43t129 30t43 83q0 52 -36 82t-96 30t-102 -19l-47 45
l78 186q-178 54 -176 290v653z" />
    <glyph glyph-name="Tcaron" unicode="&#x164;" horiz-adv-x="1054" 
d="M463 0v1329h-432v105h993v-105h-432v-1329h-129zM352 1872l174 -172l174 172h109l-223 -252h-119l-223 252h108z" />
    <glyph glyph-name="tcaron" unicode="&#x165;" horiz-adv-x="688" 
d="M324 936v-655q0 -107 45 -157t123 -50t155 22v-90q-86 -29 -158 -29q-141 0 -215 77t-73 229v653h-156v88l160 6l12 258l107 12v-270h309v-94h-309zM489 1194v350h119l-30 -350h-89z" />
    <glyph glyph-name="Tbar" unicode="&#x166;" horiz-adv-x="1054" 
d="M463 0v682h-279v92h279v555h-432v105h993v-105h-432v-555h278v-92h-278v-682h-129z" />
    <glyph glyph-name="tbar" unicode="&#x167;" horiz-adv-x="688" 
d="M324 514v-233q0 -106 45 -156.5t123 -50.5t155 22v-90q-86 -29 -158 -29q-141 0 -214.5 77t-73.5 229v231h-156v94h156v328h-156v88l160 6l12 258l107 12v-270h309v-94h-309v-328h309v-94h-309z" />
    <glyph glyph-name="Utilde" unicode="&#x168;" horiz-adv-x="1378" 
d="M1061 1434h125v-957q0 -248 -128 -378t-369 -130t-369 130t-127 378v957h129v-959q0 -399 368 -399q186 0 279 98q92 98 92 301v959zM578 1745q-74 0 -78 -88h-92q2 88 44 134t113 46t127 -38t73 -46t38 -8q72 0 78 88h92q-2 -88 -44 -134t-114 -46t-127 38
q-54 38 -72 46t-38 8z" />
    <glyph glyph-name="utilde" unicode="&#x169;" horiz-adv-x="1130" 
d="M836 1030h122v-1024l-104 -10l-8 72q-178 -98 -344 -98t-255 86q-89 87 -89 243v731h123v-711q0 -252 247 -251q140 0 308 84v878zM670 1323q74 0 80 119h88q-4 -209 -162 -209q-74 0 -128 51q-54 52 -70 62t-34 10q-74 0 -79 -119h-89q4 209 162 209q74 0 128 -51
t70 -61t34 -11z" />
    <glyph glyph-name="Umacron" unicode="&#x16a;" horiz-adv-x="1378" 
d="M1061 1434h125v-957q0 -248 -128 -378t-369 -130t-369 130t-127 378v957h129v-959q0 -399 368 -399q186 0 279 98q92 98 92 301v959zM414 1696v98h553v-98h-553z" />
    <glyph glyph-name="umacron" unicode="&#x16b;" horiz-adv-x="1130" 
d="M836 1030h122v-1024l-104 -10l-8 72q-178 -98 -344 -98t-255 86q-89 87 -89 243v731h123v-711q0 -252 247 -251q140 0 308 84v878zM283 1292v97h548v-97h-548z" />
    <glyph glyph-name="Ubreve" unicode="&#x16c;" horiz-adv-x="1378" 
d="M1061 1434h125v-957q0 -248 -128 -378t-369 -130t-369 130t-127 378v957h129v-959q0 -399 368 -399q186 0 279 98q92 98 92 301v959zM973 1855q-4 -100 -81 -160q-77 -61 -202 -61t-202 60t-80 161h102q2 -57 51 -92t129 -35t129 36q49 34 51 91h103z" />
    <glyph glyph-name="ubreve" unicode="&#x16d;" horiz-adv-x="1130" 
d="M836 1030h122v-1024l-104 -10l-8 72q-178 -98 -344 -98t-255 86q-89 87 -89 243v731h123v-711q0 -252 247 -251q140 0 308 84v878zM556 1214q-124 0 -200 67t-80 183h99q2 -74 50 -116t132 -43q84 0 132 43t50 116h99q-4 -118 -81 -184t-201 -66z" />
    <glyph glyph-name="Uring" unicode="&#x16e;" horiz-adv-x="1378" 
d="M1061 1434h125v-957q0 -248 -128 -378t-369 -130t-369 130t-127 378v957h129v-959q0 -399 368 -399q186 0 279 98q92 98 92 301v959zM690 1634q-100 0 -160 56t-59 147q0 90 59 146q60 57 160 57t160 -56t59 -147q1 -91 -59 -147t-160 -56zM690 1714q59 0 95 33t36 90
t-36 90t-95 33t-95 -33t-36 -90t36 -90t95 -33z" />
    <glyph glyph-name="uring" unicode="&#x16f;" horiz-adv-x="1130" 
d="M836 1030h122v-1024l-104 -10l-8 72q-178 -98 -344 -98t-255 86q-89 87 -89 243v731h123v-711q0 -252 247 -251q140 0 308 84v878zM557 1292q61 0 96 36t35 93t-35 93t-96 36t-96 -36t-35 -93t35 -93t96 -36zM557 1214q-97 0 -157 58t-60 149t59 149t157 58t158 -58
t60 -148t-60 -150q-60 -58 -157 -58z" />
    <glyph glyph-name="Uhungarumlaut" unicode="&#x170;" horiz-adv-x="1378" 
d="M1061 1434h125v-957q0 -248 -128 -378t-369 -130t-369 130t-127 378v957h129v-959q0 -399 368 -399q186 0 279 98q92 98 92 301v959zM418 1620l223 252h162l-271 -252h-114zM725 1620l223 252h162l-270 -252h-115z" />
    <glyph glyph-name="uhungarumlaut" unicode="&#x171;" horiz-adv-x="1130" 
d="M836 1030h122v-1024l-104 -10l-8 72q-178 -98 -344 -98t-255 86q-89 87 -89 243v731h123v-711q0 -252 247 -251q140 0 308 84v878zM594 1200l229 281h154l-272 -281h-111zM287 1200l229 281h154l-273 -281h-110z" />
    <glyph glyph-name="Uogonek" unicode="&#x172;" horiz-adv-x="1378" 
d="M1061 1434h125v-957q0 -317 -208 -440q-177 -150 -177 -273q0 -90 102 -90q31 0 68 9v-89q-41 -10 -113 -10t-119 41t-47 116t38 133t80 105q-56 -9 -120 -10q-242 0 -370 130t-127 378v957h129v-959q0 -399 368 -399q186 0 279 98q92 98 92 301v959z" />
    <glyph glyph-name="uogonek" unicode="&#x173;" horiz-adv-x="1130" 
d="M836 1030h122v-1024q-170 -133 -170 -242q0 -92 103 -92q31 0 67 9v-84q-42 -11 -112 -11t-116 40t-46 114q0 129 169 267l-7 61q-178 -98 -344 -98t-255 86q-89 87 -89 243v731h123v-711q0 -252 247 -251q140 0 308 84v878z" />
    <glyph glyph-name="Wcircumflex" unicode="&#x174;" horiz-adv-x="1748" 
d="M1208 0l-334 1278l-335 -1278h-138l-362 1434h131l303 -1268l328 1268h147l328 -1272l305 1272h129l-362 -1434h-140zM1049 1620l-175 170l-174 -170h-108l223 252h119l223 -252h-108z" />
    <glyph glyph-name="wcircumflex" unicode="&#x175;" horiz-adv-x="1468" 
d="M1012 0l-277 893l-268 -893h-117l-327 1030h124l263 -878l258 878h137l262 -885l260 885h119l-318 -1030h-116zM918 1200l-183 193l-182 -193h-104l229 281h115l229 -281h-104z" />
    <glyph glyph-name="Ycircumflex" unicode="&#x176;" horiz-adv-x="1150" 
d="M512 0v528l-494 906h140l417 -797l424 797h134l-492 -906v-528h-129zM750 1620l-175 170l-174 -170h-108l223 252h119l223 -252h-108z" />
    <glyph glyph-name="ycircumflex" unicode="&#x177;" horiz-adv-x="937" 
d="M31 -354q145 26 227 102t152 242l-394 1040h129l322 -903l332 903h123l-394 -1020q-55 -147 -115 -240q-61 -94 -143 -148t-213 -83zM647 1200l-182 193l-182 -193h-105l230 281h114l230 -281h-105z" />
    <glyph glyph-name="Ydieresis" unicode="&#x178;" horiz-adv-x="1150" 
d="M512 0v528l-494 906h140l417 -797l424 797h134l-492 -906v-528h-129zM777 1688q-41 0 -65 24t-24 65q0 39 25 63t65 24t63 -24t23 -64t-23 -64q-24 -24 -64 -24zM374 1688q-40 0 -64 24t-24 65q0 39 24 63t64 24t64 -24t25 -64q-1 -40 -25 -64t-64 -24z" />
    <glyph glyph-name="Zacute" unicode="&#x179;" horiz-adv-x="1187" 
d="M1053 104v-104h-916v98l772 1231h-737v105h879v-99l-775 -1231h777zM492 1620l223 252h162l-271 -252h-114z" />
    <glyph glyph-name="zacute" unicode="&#x17a;" horiz-adv-x="948" 
d="M96 0v90l606 846h-593v94h731v-90l-607 -846h611v-94h-748zM356 1200l228 281h155l-272 -281h-111z" />
    <glyph glyph-name="Zdotaccent" unicode="&#x17b;" horiz-adv-x="1187" 
d="M1053 104v-104h-916v98l772 1231h-737v105h879v-99l-775 -1231h777zM610 1681q-44 0 -70 25t-26 70q0 46 26 70t70 24t71 -25q26 -25 26 -69t-26 -70q-26 -25 -71 -25z" />
    <glyph glyph-name="zdotaccent" unicode="&#x17c;" horiz-adv-x="948" 
d="M96 0v90l606 846h-593v94h731v-90l-607 -846h611v-94h-748zM473 1280q-41 0 -67 25t-25 67q0 42 26 68q27 24 67 24t66 -24t26 -68t-26 -68t-67 -24z" />
    <glyph glyph-name="Zcaron" unicode="&#x17d;" horiz-adv-x="1187" 
d="M1053 104v-104h-916v98l772 1231h-737v105h879v-99l-775 -1231h777zM436 1872l174 -172l174 172h109l-223 -252h-119l-223 252h108z" />
    <glyph glyph-name="zcaron" unicode="&#x17e;" horiz-adv-x="948" 
d="M96 0v90l606 846h-593v94h731v-90l-607 -846h611v-94h-748zM291 1481l182 -195l182 195h105l-230 -281h-114l-230 281h105z" />
    <glyph glyph-name="longs" unicode="&#x17f;" horiz-adv-x="628" 
d="M172 0v1262q0 152 75 232.5t218 80.5q78 0 158 -29v-90q-74 23 -156 23q-172 0 -172 -207v-1272h-123z" />
    <glyph glyph-name="florin" unicode="&#x192;" horiz-adv-x="655" 
d="M45 936v88l156 6v232q0 152 74.5 232.5t218.5 80.5q78 0 157 -29v-90q-73 23 -155 23q-172 0 -172 -207v-242h276v-94h-276v-1100q0 -152 -75 -232.5t-218 -80.5q-78 0 -158 28v91q73 -23 155 -23q172 0 173 207v1110h-156z" />
    <glyph glyph-name="uni01D3" unicode="&#x1d3;" horiz-adv-x="1378" 
d="M1061 1434h125v-957q0 -248 -128 -378t-369 -130t-369 130t-127 378v957h129v-959q0 -399 368 -399q186 0 279 98q92 98 92 301v959zM516 1872l174 -172l174 172h109l-223 -252h-119l-223 252h108z" />
    <glyph glyph-name="uni01D4" unicode="&#x1d4;" horiz-adv-x="1130" 
d="M836 1030h122v-1024l-104 -10l-8 72q-178 -98 -344 -98t-255 86q-89 87 -89 243v731h123v-711q0 -252 247 -251q140 0 308 84v878zM375 1481l182 -195l182 195h105l-230 -281h-114l-230 281h105z" />
    <glyph glyph-name="uni0218" unicode="&#x218;" horiz-adv-x="1101" 
d="M492 74q188 0 287 81t99 214t-65 203q-66 70 -219 116l-145 45q-168 51 -246 134t-78 212q0 173 132 279q131 106 331 106t366 -75v-103q-176 74 -342 74t-260 -73t-94 -204q0 -92 53 -145t187 -96l145 -47q197 -63 283 -159t86 -247q0 -195 -136 -307t-362 -113
q-226 0 -403 88l-21 111q214 -94 402 -94zM627 -370q0 -58 -35 -136t-90 -141l-49 33q53 96 57 192q-62 12 -64 84q0 41 25 66q25 24 67 24t66 -32t23 -90z" />
    <glyph glyph-name="uni0219" unicode="&#x219;" horiz-adv-x="901" 
d="M686 283q0 71 -40 113t-132 71l-156 49q-131 42 -190 104t-59 158q0 129 101 206q102 77 260 77t290 -55v-97q-136 53 -264 53t-196 -48t-69 -120q0 -72 38 -107q38 -36 137 -69l161 -53q125 -41 184 -108q58 -68 58 -172q0 -152 -102 -234q-101 -82 -281 -82t-317 64
l-17 102q154 -68 318 -67q276 0 276 215zM418 -422q-62 12 -64 84q0 39 24 64q24 24 66 24t64 -31t22 -89t-34 -135t-88 -140l-48 31q53 96 58 192z" />
    <glyph glyph-name="uni021A" unicode="&#x21a;" horiz-adv-x="1054" 
d="M463 0v1329h-432v105h993v-105h-432v-1329h-129zM500 -422q-62 12 -64 84q0 41 25 66q25 24 67 24t65 -32q55 -74 -11 -226q-35 -78 -90 -141l-50 33q53 96 58 192z" />
    <glyph glyph-name="uni021B" unicode="&#x21b;" horiz-adv-x="688" 
d="M324 936v-655q0 -107 45 -157t123 -50t155 22v-90q-86 -29 -158 -29q-141 0 -215 77t-73 229v653h-156v88l160 6l12 258l107 12v-270h309v-94h-309zM336 -338q0 39 23 64q24 25 65 24q88 0 88 -119q0 -59 -34 -136t-89 -140l-47 31q53 96 57 192q-63 12 -63 84z" />
    <glyph glyph-name="uni0237" unicode="&#x237;" horiz-adv-x="466" 
d="M172 -53v1073l123 16v-1077q0 -197 -95.5 -306.5t-271.5 -113.5l-24 101q131 0 199.5 77.5t68.5 229.5z" />
    <glyph glyph-name="uni02BC" unicode="&#x2bc;" horiz-adv-x="419" 
d="M213 1473q93 -1 93 -137q0 -72 -59 -184q-58 -112 -147 -191l-45 28q121 158 125 299q-63 16 -63 90q0 43 26 69q27 26 70 26z" />
    <glyph glyph-name="circumflex" unicode="&#x2c6;" horiz-adv-x="1138" 
d="M752 1200l-183 193l-182 -193h-104l229 281h115l229 -281h-104z" />
    <glyph glyph-name="caron" unicode="&#x2c7;" horiz-adv-x="1138" 
d="M387 1481l182 -195l183 195h104l-229 -281h-115l-229 281h104z" />
    <glyph glyph-name="uni02C9" unicode="&#x2c9;" horiz-adv-x="1138" 
d="M295 1292v97h549v-97h-549z" />
    <glyph glyph-name="uni02CB" unicode="&#x2cb;" horiz-adv-x="1138" 
d="M649 1200l-272 281h155l228 -281h-111z" />
    <glyph glyph-name="breve" unicode="&#x2d8;" horiz-adv-x="1138" 
d="M568 1214q-124 0 -200 67t-79 183h98q2 -74 50 -116t132 -43q84 0 132 43t51 116h98q-4 -118 -81 -184t-201 -66z" />
    <glyph glyph-name="dotaccent" unicode="&#x2d9;" horiz-adv-x="1138" 
d="M569 1280q-41 0 -67 25t-25 67q0 42 26 68q27 24 67 24t66 -24t26 -68t-26 -68t-67 -24z" />
    <glyph glyph-name="ring" unicode="&#x2da;" horiz-adv-x="1138" 
d="M569 1292q61 0 97 36q35 36 34 93q0 57 -34 93t-96 36t-97 -36t-35 -93t35 -93t96 -36zM569 1214q-98 0 -157 58t-60 149q0 91 60 149t157 58t157 -58t60 -148t-60 -150q-60 -58 -157 -58z" />
    <glyph glyph-name="ogonek" unicode="&#x2db;" horiz-adv-x="1138" 
d="M432 -260q0 137 191 285l84 -19q-170 -133 -170 -242q0 -92 102 -92q31 0 68 9v-84q-41 -11 -112 -11t-117 40t-46 114z" />
    <glyph glyph-name="tilde" unicode="&#x2dc;" horiz-adv-x="1138" 
d="M682 1323q74 0 80 119h88q-4 -209 -162 -209q-74 0 -128 51q-54 52 -70 62t-33 10q-74 0 -80 -119h-88q4 209 162 209q74 0 128 -51t70 -61t33 -11z" />
    <glyph glyph-name="hungarumlaut" unicode="&#x2dd;" horiz-adv-x="1138" 
d="M530 1200l230 281h153l-272 -281h-111zM223 1200l230 281h153l-272 -281h-111z" />
    <glyph glyph-name="gravecomb" unicode="&#x300;" horiz-adv-x="0" 
d="M6 1200l-272 281h155l228 -281h-111z" />
    <glyph glyph-name="acutecomb" unicode="&#x301;" horiz-adv-x="0" 
d="M-117 1200l228 281h155l-272 -281h-111z" />
    <glyph glyph-name="uni0302" unicode="&#x302;" horiz-adv-x="0" 
d="M182 1200l-182 193l-182 -193h-105l230 281h114l230 -281h-105z" />
    <glyph glyph-name="tildecomb" unicode="&#x303;" horiz-adv-x="0" 
d="M-121 1446q76 0 130 -51t70.5 -61.5t33.5 -10.5q74 0 80 119h88q-2 -100 -43 -154.5t-117 -54.5t-130 51t-70.5 61.5t-33.5 10.5q-74 0 -80 -119h-88q2 100 43 154.5t117 54.5z" />
    <glyph glyph-name="uni0304" unicode="&#x304;" horiz-adv-x="0" 
d="M-274 1292v97h548v-97h-548z" />
    <glyph glyph-name="uni0306" unicode="&#x306;" horiz-adv-x="0" 
d="M-1 1214q-124 0 -199.5 67t-80.5 183h99q2 -74 50 -116.5t132 -42.5t132 43t50 116h99q-4 -117 -81 -183.5t-201 -66.5z" />
    <glyph glyph-name="uni0307" unicode="&#x307;" horiz-adv-x="0" 
d="M0 1280q-41 0 -66.5 24.5t-25.5 67.5t25.5 67.5t66.5 24.5t66.5 -24.5t25.5 -67.5t-25.5 -67.5t-66.5 -24.5z" />
    <glyph glyph-name="uni0308" unicode="&#x308;" horiz-adv-x="0" 
d="M202 1286q-40 0 -63.5 23.5t-23.5 63.5t23.5 62.5t63.5 22.5t62.5 -22.5t22.5 -62.5t-22.5 -63.5t-62.5 -23.5zM-202 1286q-40 0 -62.5 23.5t-22.5 63.5t22.5 62.5t62.5 22.5t63.5 -22.5t23.5 -62.5t-23.5 -63.5t-63.5 -23.5z" />
    <glyph glyph-name="uni030A" unicode="&#x30a;" horiz-adv-x="0" 
d="M0 1292q61 0 96 36t35 93.5t-35 93t-96 35.5t-96 -35.5t-35 -93t35 -93.5t96 -36zM0 1214q-98 0 -157.5 58.5t-59.5 148.5t59.5 148.5t157.5 58.5t157.5 -58.5t59.5 -148.5t-59.5 -148.5t-157.5 -58.5z" />
    <glyph glyph-name="uni030B" unicode="&#x30b;" horiz-adv-x="0" 
d="M37 1200l229 281h154l-273 -281h-110zM-270 1200l229 281h154l-273 -281h-110z" />
    <glyph glyph-name="uni030C" unicode="&#x30c;" horiz-adv-x="0" 
d="M-182 1481l182 -195l182 195h105l-230 -281h-114l-230 281h105z" />
    <glyph glyph-name="uni0312" unicode="&#x312;" horiz-adv-x="0" 
d="M88 1368q0 -39 -23.5 -63.5t-64.5 -24.5q-88 0 -88 119q0 59 34 136t89 140l47 -30q-53 -96 -57 -193q63 -12 63 -84z" />
    <glyph glyph-name="uni0315" unicode="&#x315;" horiz-adv-x="0" 
d="M-43 971v463h119l-31 -463h-88z" />
    <glyph glyph-name="uni0326" unicode="&#x326;" horiz-adv-x="0" 
d="M-88 -338q0 39 23.5 63.5t64.5 24.5q88 0 88 -119q0 -59 -34 -136t-89 -140l-47 31q53 96 57 192q-63 12 -63 84z" />
    <glyph glyph-name="uni0327" unicode="&#x327;" horiz-adv-x="0" 
d="M-15.5 -444q85.5 0 128.5 30.5t43 82.5t-36 82t-95 30t-103 -19l-47 45l90 213h88l-76 -176q35 6 74 6q90 0 145.5 -49t55.5 -136t-71.5 -141t-179 -54t-187.5 43l-9 86q94 -43 179.5 -43z" />
    <glyph glyph-name="uni0328" unicode="&#x328;" horiz-adv-x="0" 
d="M-207 -260q0 137 191 285l84 -19q-170 -133 -170 -242q0 -92 102 -92q31 0 68 9v-84q-41 -10 -112 -10.5t-117 39.5t-46 114z" />
    <glyph glyph-name="pi" unicode="&#x3c0;" horiz-adv-x="1239" 
d="M236 0v936h-160v94h1087v-94h-159v-733q0 -66 19 -92.5t61 -26.5t79 10v-90q-49 -16 -102 -16q-96 0 -138 51t-42 170v727h-523v-936h-122z" />
    <glyph glyph-name="Wgrave" unicode="&#x1e80;" horiz-adv-x="1748" 
d="M1208 0l-334 1278l-335 -1278h-138l-362 1434h131l303 -1268l328 1268h147l328 -1272l305 1272h129l-362 -1434h-140zM879 1620l-271 252h162l223 -252h-114z" />
    <glyph glyph-name="wgrave" unicode="&#x1e81;" horiz-adv-x="1468" 
d="M1012 0l-277 893l-268 -893h-117l-327 1030h124l263 -878l258 878h137l262 -885l260 885h119l-318 -1030h-116zM741 1200l-272 281h156l227 -281h-111z" />
    <glyph glyph-name="Wacute" unicode="&#x1e82;" horiz-adv-x="1748" 
d="M1208 0l-334 1278l-335 -1278h-138l-362 1434h131l303 -1268l328 1268h147l328 -1272l305 1272h129l-362 -1434h-140zM756 1620l223 252h162l-271 -252h-114z" />
    <glyph glyph-name="wacute" unicode="&#x1e83;" horiz-adv-x="1468" 
d="M1012 0l-277 893l-268 -893h-117l-327 1030h124l263 -878l258 878h137l262 -885l260 885h119l-318 -1030h-116zM618 1200l228 281h155l-272 -281h-111z" />
    <glyph glyph-name="Wdieresis" unicode="&#x1e84;" horiz-adv-x="1748" 
d="M1208 0l-334 1278l-335 -1278h-138l-362 1434h131l303 -1268l328 1268h147l328 -1272l305 1272h129l-362 -1434h-140zM1076 1688q-40 0 -64 24t-25 65q0 39 25 63q24 24 64 24t64 -24t24 -64t-24 -64t-64 -24zM673 1688q-40 0 -64 24q-23 24 -23 65q0 39 24 63t63 24
q41 0 65 -24t24 -64t-24 -64t-65 -24z" />
    <glyph glyph-name="wdieresis" unicode="&#x1e85;" horiz-adv-x="1468" 
d="M1012 0l-277 893l-268 -893h-117l-327 1030h124l263 -878l258 878h137l262 -885l260 885h119l-318 -1030h-116zM1022 1373q0 -39 -22 -63t-63 -24q-40 0 -64 24q-23 24 -23 64t23 62q24 22 64 22q41 0 63 -22t22 -63zM621 1373q1 -39 -23 -63t-64 -24t-63 24t-23 64
t23 62t63 22t64 -22t23 -63z" />
    <glyph glyph-name="uni1E9E" unicode="&#x1e9e;" horiz-adv-x="1347" 
d="M322 881v-881h-129v881q0 285 128.5 434t374.5 149t451 -151l-252 -520q195 -63 285 -160.5t90 -247.5q0 -195 -122 -305.5t-335 -110.5q-158 0 -283 56l-18 108q133 -59 293 -59t246 81t86 232q0 84 -34 143.5t-117 105.5t-245 93l263 545q-143 86 -320 86
q-362 0 -362 -479z" />
    <glyph glyph-name="Ygrave" unicode="&#x1ef2;" horiz-adv-x="1150" 
d="M512 0v528l-494 906h140l417 -797l424 797h134l-492 -906v-528h-129zM580 1620l-271 252h162l223 -252h-114z" />
    <glyph glyph-name="ygrave" unicode="&#x1ef3;" horiz-adv-x="937" 
d="M31 -354q145 26 227 102t152 242l-394 1040h129l322 -903l332 903h123l-394 -1020q-55 -147 -115 -240q-61 -94 -143 -148t-213 -83zM471 1200l-272 281h155l228 -281h-111z" />
    <glyph glyph-name="uni2000" unicode="&#x2000;" horiz-adv-x="1228" 
 />
    <glyph glyph-name="uni2001" unicode="&#x2001;" horiz-adv-x="1759" 
 />
    <glyph glyph-name="uni2002" unicode="&#x2002;" horiz-adv-x="1228" 
 />
    <glyph glyph-name="uni2003" unicode="&#x2003;" horiz-adv-x="1759" 
 />
    <glyph glyph-name="uni2004" unicode="&#x2004;" horiz-adv-x="585" 
 />
    <glyph glyph-name="uni2005" unicode="&#x2005;" horiz-adv-x="438" 
 />
    <glyph glyph-name="uni2006" unicode="&#x2006;" horiz-adv-x="292" 
 />
    <glyph glyph-name="uni2007" unicode="&#x2007;" horiz-adv-x="1228" 
 />
    <glyph glyph-name="uni2008" unicode="&#x2008;" horiz-adv-x="421" 
 />
    <glyph glyph-name="uni2009" unicode="&#x2009;" horiz-adv-x="409" 
 />
    <glyph glyph-name="uni200A" unicode="&#x200a;" horiz-adv-x="126" 
 />
    <glyph glyph-name="uni200B" unicode="&#x200b;" horiz-adv-x="0" 
 />
    <glyph glyph-name="uni2010" unicode="&#x2010;" horiz-adv-x="739" 
d="M102 463v106h535v-106h-535z" />
    <glyph glyph-name="uni2011" unicode="&#x2011;" horiz-adv-x="739" 
d="M102 463v106h535v-106h-535z" />
    <glyph glyph-name="figuredash" unicode="&#x2012;" horiz-adv-x="1228" 
d="M102 643v96h1024v-96h-1024z" />
    <glyph glyph-name="endash" unicode="&#x2013;" horiz-adv-x="1228" 
d="M102 467v96h1024v-96h-1024z" />
    <glyph glyph-name="emdash" unicode="&#x2014;" horiz-adv-x="1759" 
d="M102 467v96h1555v-96h-1555z" />
    <glyph glyph-name="uni2015" unicode="&#x2015;" horiz-adv-x="1759" 
d="M102 467v96h1555v-96h-1555z" />
    <glyph glyph-name="quoteleft" unicode="&#x2018;" horiz-adv-x="419" 
d="M207 961q-92 -1 -92 135q0 72 58 184.5t146 192.5l46 -29q-119 -156 -125 -299q63 -20 63 -90q0 -43 -26.5 -68.5t-69.5 -25.5z" />
    <glyph glyph-name="quoteright" unicode="&#x2019;" horiz-adv-x="419" 
d="M213 1473q92 -1 92 -137q0 -72 -58.5 -184t-146.5 -191l-45 28q121 158 125 299q-63 16 -63 90q0 43 26.5 69t69.5 26z" />
    <glyph glyph-name="quotesinglbase" unicode="&#x201a;" horiz-adv-x="419" 
d="M117 82q0 43 26 69q27 25 70 25t68 -32t25 -104t-59 -184q-58 -112 -147 -192l-45 29q121 158 125 299q-63 16 -63 90z" />
    <glyph glyph-name="quotedblleft" unicode="&#x201c;" horiz-adv-x="747" 
d="M303 1055q0 -43 -27 -69q-28 -26 -70 -26t-67 32t-25 104t59 185q58 112 146 192l46 -29q-119 -156 -125 -299q63 -20 63 -90zM442 1096q0 72 59 185q58 112 146 192l45 -29q-119 -156 -125 -299q62 -20 64 -90q0 -43 -27 -69q-28 -26 -70 -26t-67 32t-25 104z" />
    <glyph glyph-name="quotedblright" unicode="&#x201d;" horiz-adv-x="747" 
d="M213 1473q93 -1 93 -137q0 -72 -59 -184q-58 -112 -147 -191l-45 28q121 158 125 299q-63 16 -63 90q0 43 26 69q27 26 70 26zM541 1473q92 -1 92 -137q-1 -72 -59 -184t-146 -191l-45 28q121 158 125 299q-62 16 -64 90q0 43 27 69t70 26z" />
    <glyph glyph-name="quotedblbase" unicode="&#x201e;" horiz-adv-x="747" 
d="M117 82q0 43 26 69q27 25 70 25t68 -32t25 -104t-59 -184q-58 -112 -147 -192l-45 29q121 158 125 299q-63 16 -63 90zM633 40q-1 -72 -59 -184t-146 -192l-45 29q121 158 125 299q-62 16 -64 90q0 43 27 69q27 25 70 25t67 -32t25 -104z" />
    <glyph glyph-name="dagger" unicode="&#x2020;" horiz-adv-x="1021" 
d="M453 -301v1169h-385v99h385v467h116v-467h385v-99h-385v-1169h-116z" />
    <glyph glyph-name="daggerdbl" unicode="&#x2021;" horiz-adv-x="1021" 
d="M569 868v-604h385v-98h-385v-467h-116v467h-385v98h385v604h-385v99h385v467h116v-467h385v-99h-385z" />
    <glyph glyph-name="bullet" unicode="&#x2022;" horiz-adv-x="700" 
d="M350.5 285q-104.5 0 -169 66.5t-64.5 175t64.5 175t169 66.5t169 -66.5t64.5 -175t-64.5 -175t-169 -66.5z" />
    <glyph glyph-name="ellipsis" unicode="&#x2026;" horiz-adv-x="1759" 
d="M293 -10q-41 0 -68 26t-26 68q0 43 26 69q27 25 68 25t67 -26t27 -68q-1 -42 -27 -68t-67 -26zM879 -10q-41 0 -68 26t-27 68q0 43 27 69q27 25 68 25t67 -26t27 -68q-1 -42 -27 -68t-67 -26zM1464 -10q-42 0 -68 26t-26 68q0 43 27 69q27 25 67 25t68 -26q27 -26 27 -68
t-27 -68t-68 -26z" />
    <glyph glyph-name="perthousand" unicode="&#x2030;" horiz-adv-x="2686" 
d="M508 0l741 1403h111l-742 -1403h-110zM410 514q-158 0 -242 116t-84 339t84 339t242 116t242 -116t83 -339q1 -223 -83 -339t-242 -116zM410 596q108 0 160 90t53 283q-1 193 -53 283t-160 89q-108 0 -161 -90q-52 -91 -52 -283t52 -282t161 -90zM1458 -20
q-158 0 -242 116t-83 338q0 223 84 339q83 116 241 116t242 -116t84 -339q0 -222 -84 -338t-242 -116zM1458 61q109 1 161 91t52 282t-52 283q-52 90 -161 90t-161 -90t-52 -283t52 -283t161 -90zM2277 -20q-157 0 -241 116t-84 338q0 223 84 339t242 116t241 -116
q84 -116 84 -339q0 -222 -84 -338t-242 -116zM2277 61q109 1 161 91t52 282t-52 283q-52 90 -161 90t-161 -90t-52 -283t52 -283t161 -90z" />
    <glyph glyph-name="minute" unicode="&#x2032;" horiz-adv-x="421" 
d="M68 963l157 471h129l-202 -471h-84z" />
    <glyph glyph-name="second" unicode="&#x2033;" horiz-adv-x="720" 
d="M68 963l157 471h129l-202 -471h-84zM367 963l157 471h129l-202 -471h-84z" />
    <glyph glyph-name="guilsinglleft" unicode="&#x2039;" horiz-adv-x="516" 
d="M297 137l-248 389l248 394h119l-244 -392l246 -391h-121z" />
    <glyph glyph-name="guilsinglright" unicode="&#x203a;" horiz-adv-x="516" 
d="M219 920l248 -390l-248 -393h-119l244 391l-246 392h121z" />
    <glyph glyph-name="fraction" unicode="&#x2044;" horiz-adv-x="237" 
d="M-307 0l741 1403h111l-742 -1403h-110z" />
    <glyph glyph-name="uni2052" unicode="&#x2052;" horiz-adv-x="1228" 
d="M188 0l742 1403h110l-741 -1403h-111zM883 -10q-41 0 -68 26t-27 68q0 43 27 69q27 25 68 25t67 -26t27 -68q-1 -42 -27 -68t-67 -26zM346 1227q-42 -1 -68 25t-26 69t27 69t67 26t68 -26q26 -26 26 -69t-26 -69q-27 -25 -68 -25z" />
    <glyph glyph-name="uni2070" unicode="&#x2070;" 
d="M410 758q-158 0 -242 116t-84 338q0 223 84 339t242 116t242 -116t83 -339q1 -222 -83 -338t-242 -116zM410 840q108 0 160 90t52 282t-52 283q-52 90 -160 90t-161 -90q-52 -90 -52 -283q0 -192 52 -282t161 -90z" />
    <glyph glyph-name="uni2074" unicode="&#x2074;" 
d="M514 1073v455l-336 -455h336zM514 778v213h-436v82l424 574h110v-574h6q55 0 121 4v-86h-127v-213h-98z" />
    <glyph glyph-name="uni2075" unicode="&#x2075;" 
d="M609 838q-89 -80 -226 -80t-240 47l-12 90q102 -53 221 -53q236 0 238 209q0 94 -52 145t-148 51t-173 -47l-53 31l41 416h321q55 0 121 4v-90h-366l-25 -277q71 39 182 39t186 -75q74 -74 74 -202t-89 -208z" />
    <glyph glyph-name="uni2076" unicode="&#x2076;" 
d="M618 1038q0 90 -50 146t-124 55q-74 0 -136 -35t-97 -92q8 -129 65 -201q56 -71 148 -71t143 54t51 144zM455 1317q119 0 195 -77t75 -201q0 -125 -83 -203q-82 -78 -222 -78t-226 103t-85 271q0 331 238 464q114 65 265 71l13 -86q-180 -8 -288 -104t-124 -267
q39 47 105 77t137 30z" />
    <glyph glyph-name="uni2077" unicode="&#x2077;" 
d="M248 1561q-55 0 -121 -5v91h578v-80q-162 -269 -248 -449t-135 -340h-113q99 321 389 783h-350z" />
    <glyph glyph-name="uni2078" unicode="&#x2078;" 
d="M410 1274q86 0 136 42t50 115t-50 115t-136 41q-86 0 -136 -42q-50 -43 -51 -115q1 -72 51 -114t136 -42zM410 838q100 0 158 48t58 129t-58 128t-158 47t-158 -47t-59 -128q1 -81 59 -129t158 -48zM698 1434q0 -151 -161 -199q94 -23 145 -80t51 -141q0 -116 -88 -186
t-235 -70t-236 69q-88 70 -88 187q0 84 52 142t145 79q-162 52 -162 199q0 106 80 170t209 63q128 0 208 -63t80 -170z" />
    <glyph glyph-name="uni2079" unicode="&#x2079;" 
d="M377 1186q74 0 136 35t95 90q-6 129 -63 201t-149 73q-92 0 -142 -54q-51 -55 -51 -145t50 -145t124 -55zM367 1108q-119 0 -195 77t-76 201t83 202q83 79 223 79t225 -103q86 -102 86 -272t-66 -288q-65 -118 -183 -180q-118 -64 -276 -66l-30 86q198 0 314 96t134 272
q-38 -48 -104 -76t-135 -28z" />
    <glyph glyph-name="uni207A" unicode="&#x207a;" 
d="M365 928v243h-234v82h234v244h90v-244h233v-82h-233v-243h-90z" />
    <glyph glyph-name="uni207B" unicode="&#x207b;" 
d="M131 1171v82h557v-82h-557z" />
    <glyph glyph-name="uni207C" unicode="&#x207c;" 
d="M131 1032v82h557v-82h-557zM131 1311v82h557v-82h-557z" />
    <glyph glyph-name="uni207D" unicode="&#x207d;" 
d="M305 1214q0 152 48 306t130 264l90 -6q-75 -102 -115 -252t-40 -314t41 -314t114 -249l-90 -8q-82 111 -130 265q-48 156 -48 308z" />
    <glyph glyph-name="uni207E" unicode="&#x207e;" 
d="M514 1211q0 -153 -48 -307t-130 -263l-90 6q74 102 114 252q41 149 41 313t-41 314t-114 250l90 8q82 -112 130 -266t48 -307z" />
    <glyph glyph-name="uni207F" unicode="&#x207f;" horiz-adv-x="765" 
d="M659 1233v-455h-104v441q0 143 -143 143q-99 0 -191 -49v-535h-104v635l86 10l8 -45q109 60 220 61t169 -55t59 -151z" />
    <glyph glyph-name="uni2080" unicode="&#x2080;" 
d="M410 -266q-158 0 -242 116t-84 338q0 223 84 339t242 116t242 -116t83 -339q1 -222 -83 -338t-242 -116zM410 -184q108 0 160 90t52 282t-52 283q-52 90 -160 90t-161 -90q-52 -90 -52 -283q0 -192 52 -282t161 -90z" />
    <glyph glyph-name="uni2081" unicode="&#x2081;" 
d="M451 -246v758l-244 -160l-21 84l281 187h90v-869h-106z" />
    <glyph glyph-name="uni2082" unicode="&#x2082;" 
d="M551 419q0 59 -49 99q-50 40 -146 41q-96 0 -204 -70v86q100 68 228 68t204 -63t75 -166q0 -124 -141 -246l-106 -94q-96 -86 -132 -134t-49 -100h332q55 0 121 4v-90h-569q4 102 51 184t166 187l108 96q59 51 85 95t26 103z" />
    <glyph glyph-name="uni2083" unicode="&#x2083;" 
d="M333 -186q115 0 175 48q59 48 59 131t-56 129t-155 46h-77v82h77q86 0 136 41q49 41 49 115q-1 74 -53 115q-52 42 -148 42t-197 -43v80q94 43 219 43t206 -63t81 -168q0 -74 -43 -126t-123 -75q93 -23 143 -81t50 -142q0 -115 -88 -185q-88 -69 -230 -69t-235 47l-14 90
q109 -57 224 -57z" />
    <glyph glyph-name="uni2084" unicode="&#x2084;" 
d="M514 49v455l-336 -455h336zM514 -246v213h-436v82l424 574h110v-574h6q55 0 121 4v-86h-127v-213h-98z" />
    <glyph glyph-name="uni2085" unicode="&#x2085;" 
d="M438 299q111 0 186 -75q74 -74 74 -202t-89 -208t-226 -80t-240 47l-12 90q102 -53 221 -53q236 0 238 209q0 94 -52 145t-148 51t-173 -47l-53 31l41 416h321q55 0 121 4v-90h-366l-25 -277q71 39 182 39z" />
    <glyph glyph-name="uni2086" unicode="&#x2086;" 
d="M618 14q0 90 -50 146t-124 55q-74 0 -136 -35t-97 -92q8 -129 65 -201q56 -71 148 -71t143 54t51 144zM455 293q119 0 195 -77t75 -201q0 -125 -83 -203q-82 -78 -222 -78t-226 103t-85 271q0 331 238 464q114 65 265 71l13 -86q-180 -8 -288 -104t-124 -267
q39 47 105 77t137 30z" />
    <glyph glyph-name="uni2087" unicode="&#x2087;" 
d="M248 537q-55 0 -121 -5v91h578v-80q-162 -269 -248 -449t-135 -340h-113q99 321 389 783h-350z" />
    <glyph glyph-name="uni2088" unicode="&#x2088;" 
d="M410 250q86 0 136 42t50 115t-50 115t-136 41q-86 0 -136 -42q-50 -43 -51 -115q1 -72 51 -114t136 -42zM410 -186q100 0 158 48t58 129t-58 128t-158 47t-158 -47t-59 -128q1 -81 59 -129t158 -48zM698 410q0 -151 -161 -199q94 -23 145 -80t51 -141q0 -116 -88 -186
t-235 -70t-236 69q-88 70 -88 187q0 84 52 142t145 79q-162 52 -162 199q0 106 80 170t209 63q128 0 208 -63t80 -170z" />
    <glyph glyph-name="uni2089" unicode="&#x2089;" 
d="M377 162q74 0 136 35t95 90q-6 129 -63 201t-149 73q-92 0 -142 -54q-51 -55 -51 -145t50 -145t124 -55zM367 84q-119 0 -195 77t-76 201t83 202q83 79 223 79t225 -103q86 -102 86 -272t-66 -288q-65 -118 -183 -180q-118 -64 -276 -66l-30 86q198 0 314 96t134 272
q-38 -48 -104 -76t-135 -28z" />
    <glyph glyph-name="uni208A" unicode="&#x208a;" 
d="M365 -96v243h-234v82h234v244h90v-244h233v-82h-233v-243h-90z" />
    <glyph glyph-name="uni208B" unicode="&#x208b;" 
d="M131 147v82h557v-82h-557z" />
    <glyph glyph-name="uni208C" unicode="&#x208c;" 
d="M131 8v82h557v-82h-557zM131 287v82h557v-82h-557z" />
    <glyph glyph-name="uni208D" unicode="&#x208d;" 
d="M305 190q0 152 48 306t130 264l90 -6q-75 -102 -115 -252t-40 -314t41 -314t114 -249l-90 -8q-82 111 -130 265q-48 156 -48 308z" />
    <glyph glyph-name="uni208E" unicode="&#x208e;" 
d="M514 187q0 -153 -48 -307t-130 -263l-90 6q74 102 114 252q41 149 41 313t-41 314t-114 250l90 8q82 -112 130 -266t48 -307z" />
    <glyph glyph-name="Euro" unicode="&#x20ac;" horiz-adv-x="1228" 
d="M375 702.5q0 -50.5 4 -100.5h608l-14 -88h-588q59 -442 436 -442q180 0 353 86v-101q-176 -88 -387 -88t-349.5 141.5t-173.5 403.5h-164l15 88h141q-4 50 -4 100.5t4 104.5h-156l15 88h149q37 260 176.5 399.5t364.5 139.5q184 0 360 -88v-101q-176 86 -344 86
q-375 0 -434 -436h647l-14 -88h-641q-4 -54 -4 -104.5z" />
    <glyph glyph-name="uni20B9" unicode="&#x20b9;" horiz-adv-x="1228" 
d="M436 594h-78l619 -594h-166l-610 594v88h209q180 0 288.5 69.5t130.5 202.5h-628v88h633q-16 273 -414 273h-219v88h954l-14 -88h-340q147 -88 155 -273h140l-15 -88h-129q-23 -168 -160 -264t-356 -96z" />
    <glyph glyph-name="uni20BA" unicode="&#x20ba;" horiz-adv-x="1228" 
d="M354 104h162q481 0 481 422v49h115v-49q0 -268 -146.5 -397t-449.5 -129h-283v465l-149 -59v96l149 59v221l-149 -59v96l149 60v524h121v-477l406 161v-96l-406 -162v-221l406 162v-96l-406 -162v-408z" />
    <glyph glyph-name="uni2105" unicode="&#x2105;" horiz-adv-x="1554" 
d="M322 0l741 1403h111l-742 -1403h-110zM1190 57q96 -1 141 63t45 200t-45 200t-141 64t-141 -64t-45 -199q0 -136 45 -200t141 -64zM1190 -20q-143 0 -219 88t-76 254t77 252t218 88q141 0 218 -88t77 -252q0 -166 -76 -254t-219 -88zM351 752q-123 0 -201 90t-78 252
t78 251t200 89t209 -41v-78q-92 39 -183 39q-92 0 -144 -67t-52 -193q0 -263 205 -263q86 0 178 39v-77q-89 -41 -212 -41z" />
    <glyph glyph-name="uni2113" unicode="&#x2113;" horiz-adv-x="804" 
d="M623 1276q0 205 -138 205q-70 0 -108.5 -50.5t-38.5 -140.5v-606q285 248 285 592zM223 1288q0 131 70.5 209t192.5 78t189.5 -79.5t67.5 -245.5t-105.5 -349.5t-299.5 -337.5v-280q0 -109 48 -159t132 -50t160 22v-90q-82 -29 -160 -29q-295 0 -295 306v198l-147 -102
v115l147 102v692z" />
    <glyph glyph-name="uni2116" unicode="&#x2116;" horiz-adv-x="2035" 
d="M1096 1434h125v-1434h-123l-770 1221v-1221h-125v1434h123l770 -1221v1221zM1671 829q96 -1 141 63q46 64 46 200t-46 200t-141 64q-96 0 -141 -64t-45 -199q0 -136 45 -200t141 -64zM1671 752q-143 0 -219 88t-76 254t77 253t218 87t218 -87t77 -253t-76 -254t-219 -88z
M1389 563v86h565v-86h-565z" />
    <glyph glyph-name="uni2117" unicode="&#x2117;" horiz-adv-x="1597" 
d="M788 692q113 0 177.5 53.5t64.5 146.5t-60.5 142t-174.5 49q-59 0 -133 -10v-381h126zM551 276v865q147 25 252 24q156 0 247 -72.5t91 -200.5t-95.5 -205t-257.5 -77h-126v-334h-111zM805 53q184 0 331.5 90t228.5 241.5t81 339.5t-88 340.5t-234.5 234t-330.5 81.5
t-332 -90t-228.5 -241t-80.5 -339t88 -340.5t234.5 -234.5t330.5 -82zM792 -31q-206 0 -377 103.5t-265.5 273.5t-94.5 378t103.5 380t272.5 266t375 94t377 -103.5t265 -273t94 -377.5t-103.5 -380t-272 -266.5t-374.5 -94.5z" />
    <glyph glyph-name="uni2120" unicode="&#x2120;" horiz-adv-x="1814" 
d="M541 776q0 74 -36 113t-122 65l-92 29q-109 33 -160 88t-51 153t84 163t213 65t233 -45v-86q-109 45 -210 45t-155.5 -40t-54.5 -104t30 -93t108 -54l96 -31q117 -37 172 -99t55 -171t-85.5 -178.5t-237.5 -69.5t-254 54l-15 92q131 -60 247 -60t175.5 45t59.5 119z
M1610 545l-47 729l-252 -639h-94l-256 639l-46 -729h-104l66 889h122l265 -670l266 670h121l65 -889h-106z" />
    <glyph glyph-name="trademark" unicode="&#x2122;" horiz-adv-x="1816" 
d="M317 545v801h-268v88h647v-88h-268v-801h-111zM1612 545l-47 729l-252 -639h-94l-256 639l-45 -729h-105l66 889h122l265 -670l266 670h121l65 -889h-106z" />
    <glyph glyph-name="Omega" unicode="&#x2126;" horiz-adv-x="1507" 
d="M424 104q-231 238 -231 646q0 204 70.5 361t196.5 240t297 83t298 -87t193.5 -244t66.5 -355q0 -401 -234 -644h305v-104h-448v98q248 228 248 635q0 285 -114 443.5t-318.5 158.5t-318 -158.5t-113.5 -443.5q0 -408 247 -635v-98h-448v104h303z" />
    <glyph glyph-name="estimated" unicode="&#x212e;" horiz-adv-x="1908" 
d="M102 732q0 218 116 390t312.5 265.5t441.5 93.5t436 -104.5t294.5 -285t103.5 -405.5h-1349v-407q195 -221 515 -221t501 225h217q-248 -315 -738 -316q-246 0 -442.5 102.5t-302 273.5t-105.5 389zM956 1391q-330 0 -499 -240v-371h1007v371q-178 240 -508 240z" />
    <glyph glyph-name="uni2150" unicode="&#x2150;" horiz-adv-x="1867" 
d="M444 0l742 1403h110l-741 -1403h-111zM1296 782q-55 0 -120 -4v90h577v-80q-162 -270 -248 -449t-135 -339h-113q97 316 390 782h-351zM451 535v757l-244 -159l-21 84l281 186h90v-868h-106z" />
    <glyph glyph-name="uni2151" unicode="&#x2151;" horiz-adv-x="1867" 
d="M465 0l741 1403h111l-742 -1403h-110zM1426 408q74 0 136 34t95 90q-5 129 -63 202t-149 73t-142 -54q-51 -55 -51 -145t50 -145t124 -55zM1145 608q0 124 83 202q82 79 222 79q140 1 226 -103t85 -273q1 -169 -65 -287t-184 -181t-275 -65l-31 86q199 0 315 96t134 272
q-37 -47 -104 -76t-136 -28q-119 0 -195 77t-75 201zM451 535v757l-244 -159l-21 84l281 186h90v-868h-106z" />
    <glyph glyph-name="onethird" unicode="&#x2153;" horiz-adv-x="1867" 
d="M465 0l741 1403h111l-742 -1403h-110zM1405 414h-78v82h78q86 0 135 41t49 115t-52 115q-52 42 -148 42t-197 -43v80q94 43 219 43q125 1 206 -63t81 -169q0 -74 -43 -126t-123 -74q92 -23 142 -81t50 -143q0 -115 -88 -185t-229 -68q-141 0 -236 47l-14 90
q109 -57 225 -57t174 48q60 48 60 131t-56 129t-155 46zM451 535v757l-244 -159l-21 84l281 186h90v-868h-106z" />
    <glyph glyph-name="twothirds" unicode="&#x2154;" horiz-adv-x="1867" 
d="M522 0l742 1403h110l-741 -1403h-111zM1405 414h-78v82h78q86 0 135 41t49 115t-52 115q-52 42 -148 42t-197 -43v80q94 43 219 43q125 1 206 -63t81 -169q0 -74 -43 -126t-123 -74q92 -23 142 -81t50 -143q0 -115 -88 -185t-229 -68q-141 0 -236 47l-14 90
q109 -57 225 -57t174 48q60 48 60 131t-56 129t-155 46zM551 1200q0 58 -49 98q-50 40 -146 41q-96 0 -204 -69v86q100 68 228 68t204 -64q76 -63 75 -166q0 -124 -141 -246l-106 -94q-96 -86 -132 -134t-49 -99h332q55 0 121 4v-90h-569q4 102 51 184t166 186l108 96
q59 51 85 95q26 46 26 104z" />
    <glyph glyph-name="uni2155" unicode="&#x2155;" horiz-adv-x="1867" 
d="M477 0l742 1403h110l-741 -1403h-111zM1487 545q110 0 185 -75t75 -203t-89 -208q-89 -79 -227 -79t-239 47l-12 90q102 -53 221 -53t178 54t59 151t-52 149t-147 51q-95 0 -173 -47l-54 31l41 415h322q55 0 121 4v-90h-367l-24 -276q72 39 182 39zM451 535v757
l-244 -159l-21 84l281 186h90v-868h-106z" />
    <glyph glyph-name="uni2156" unicode="&#x2156;" horiz-adv-x="1867" 
d="M539 0l741 1403h111l-742 -1403h-110zM1487 545q110 0 185 -75t75 -203t-89 -208q-89 -79 -227 -79t-239 47l-12 90q102 -53 221 -53t178 54t59 151t-52 149t-147 51q-95 0 -173 -47l-54 31l41 415h322q55 0 121 4v-90h-367l-24 -276q72 39 182 39zM551 1200q0 58 -49 98
q-50 40 -146 41q-96 0 -204 -69v86q100 68 228 68t204 -64q76 -63 75 -166q0 -124 -141 -246l-106 -94q-96 -86 -132 -134t-49 -99h332q55 0 121 4v-90h-569q4 102 51 184t166 186l108 96q59 51 85 95q26 46 26 104z" />
    <glyph glyph-name="uni2157" unicode="&#x2157;" horiz-adv-x="1867" 
d="M494 0l741 1403h111l-742 -1403h-110zM1487 545q110 0 185 -75t75 -203t-89 -208q-89 -79 -227 -79t-239 47l-12 90q102 -53 221 -53t178 54t59 151t-52 149t-147 51q-95 0 -173 -47l-54 31l41 415h322q55 0 121 4v-90h-367l-24 -276q72 39 182 39zM333 594q115 0 175 48
q59 48 59 131t-56 129t-155 46h-77v82h77q86 0 136 41q49 41 49 115q-1 74 -53 116t-148 42t-197 -44v80q94 43 219 43t206 -63t81 -168q0 -74 -43 -126t-123 -75q93 -23 143 -81t50 -142q0 -114 -88 -184t-230 -70t-235 47l-14 90q109 -57 224 -57z" />
    <glyph glyph-name="uni2158" unicode="&#x2158;" horiz-adv-x="1867" 
d="M522 0l742 1403h110l-741 -1403h-111zM1487 545q110 0 185 -75t75 -203t-89 -208q-89 -79 -227 -79t-239 47l-12 90q102 -53 221 -53t178 54t59 151t-52 149t-147 51q-95 0 -173 -47l-54 31l41 415h322q55 0 121 4v-90h-367l-24 -276q72 39 182 39zM514 829v455
l-336 -455h336zM514 535v213h-436v81l424 574h110v-574h6q55 0 121 5v-86h-127v-213h-98z" />
    <glyph glyph-name="uni2159" unicode="&#x2159;" horiz-adv-x="1867" 
d="M504 0l741 1403h111l-742 -1403h-110zM1667 260q0 90 -50 146t-124 55q-74 0 -136 -35t-97 -92q8 -129 65 -201t149 -72q92 1 142 55q51 54 51 144zM1503 539q119 0 195 -77t76 -201t-83 -203q-83 -78 -223 -78t-225 103q-86 103 -86 271q0 330 239 464q114 65 265 71
l12 -86q-180 -9 -288 -105t-123 -266q40 47 106 77t135 30zM451 535v757l-244 -159l-21 84l281 186h90v-868h-106z" />
    <glyph glyph-name="uni215A" unicode="&#x215a;" horiz-adv-x="1867" 
d="M526 0l742 1403h110l-741 -1403h-111zM1667 260q0 90 -50 146t-124 55q-74 0 -136 -35t-97 -92q8 -129 65 -201t149 -72q92 1 142 55q51 54 51 144zM1503 539q119 0 195 -77t76 -201t-83 -203q-83 -78 -223 -78t-225 103q-86 103 -86 271q0 330 239 464q114 65 265 71
l12 -86q-180 -9 -288 -105t-123 -266q40 47 106 77t135 30zM438 1079q111 -1 186 -75q74 -74 74 -202t-89 -208t-226 -80t-240 47l-12 90q102 -53 221 -53q236 0 238 209q0 94 -52 145q-52 52 -148 52t-173 -48l-53 31l41 416h321q55 0 121 4v-90h-366l-25 -277
q71 39 182 39z" />
    <glyph glyph-name="oneeighth" unicode="&#x215b;" horiz-adv-x="1867" 
d="M473 0l741 1403h111l-741 -1403h-111zM1458 496q86 0 136 42t50 114t-50 115q-50 42 -136 42t-136 -42t-50 -115q0 -72 50 -114t136 -42zM1458 59q100 1 158 49t59 129q0 81 -58 128q-59 47 -159 47t-158 -47t-59 -128q1 -81 59 -129t158 -49zM1169 655q0 105 80 169
t209 64t209 -62q80 -64 80 -171q0 -74 -42 -125t-120 -73q93 -23 145 -80t52 -141q0 -117 -88 -187q-89 -69 -236 -69t-235 70t-88 186q0 84 52 142t144 79q-162 52 -162 198zM451 535v757l-244 -159l-21 84l281 186h90v-868h-106z" />
    <glyph glyph-name="threeeighths" unicode="&#x215c;" horiz-adv-x="1867" 
d="M496 0l741 1403h111l-742 -1403h-110zM1458 496q86 0 136 42t50 114t-50 115q-50 42 -136 42t-136 -42t-50 -115q0 -72 50 -114t136 -42zM1458 59q100 1 158 49t59 129q0 81 -58 128q-59 47 -159 47t-158 -47t-59 -128q1 -81 59 -129t158 -49zM1169 655q0 105 80 169
t209 64t209 -62q80 -64 80 -171q0 -74 -42 -125t-120 -73q93 -23 145 -80t52 -141q0 -117 -88 -187q-89 -69 -236 -69t-235 70t-88 186q0 84 52 142t144 79q-162 52 -162 198zM333 594q115 0 175 48q59 48 59 131t-56 129t-155 46h-77v82h77q86 0 136 41q49 41 49 115
q-1 74 -53 116t-148 42t-197 -44v80q94 43 219 43t206 -63t81 -168q0 -74 -43 -126t-123 -75q93 -23 143 -81t50 -142q0 -114 -88 -184t-230 -70t-235 47l-14 90q109 -57 224 -57z" />
    <glyph glyph-name="fiveeighths" unicode="&#x215d;" horiz-adv-x="1867" 
d="M496 0l741 1403h111l-742 -1403h-110zM1458 496q86 0 136 42t50 114t-50 115q-50 42 -136 42t-136 -42t-50 -115q0 -72 50 -114t136 -42zM1458 59q100 1 158 49t59 129q0 81 -58 128q-59 47 -159 47t-158 -47t-59 -128q1 -81 59 -129t158 -49zM1169 655q0 105 80 169
t209 64t209 -62q80 -64 80 -171q0 -74 -42 -125t-120 -73q93 -23 145 -80t52 -141q0 -117 -88 -187q-89 -69 -236 -69t-235 70t-88 186q0 84 52 142t144 79q-162 52 -162 198zM438 1079q111 -1 186 -75q74 -74 74 -202t-89 -208t-226 -80t-240 47l-12 90q102 -53 221 -53
q236 0 238 209q0 94 -52 145q-52 52 -148 52t-173 -48l-53 31l41 416h321q55 0 121 4v-90h-366l-25 -277q71 39 182 39z" />
    <glyph glyph-name="seveneighths" unicode="&#x215e;" horiz-adv-x="1867" 
d="M395 0l742 1403h110l-741 -1403h-111zM1458 496q86 0 136 42t50 114t-50 115q-50 42 -136 42t-136 -42t-50 -115q0 -72 50 -114t136 -42zM1458 59q100 1 158 49t59 129q0 81 -58 128q-59 47 -159 47t-158 -47t-59 -128q1 -81 59 -129t158 -49zM1169 655q0 105 80 169
t209 64t209 -62q80 -64 80 -171q0 -74 -42 -125t-120 -73q93 -23 145 -80t52 -141q0 -117 -88 -187q-89 -69 -236 -69t-235 70t-88 186q0 84 52 142t144 79q-162 52 -162 198zM248 1317q-55 0 -121 -4v90h578v-80q-288 -480 -383 -788h-113q98 319 389 782h-350z" />
    <glyph glyph-name="partialdiff" unicode="&#x2202;" horiz-adv-x="1228" 
d="M930 659q-125 129 -311 129q-92 0 -171 -54t-121 -151t-42 -227t65.5 -209t184.5 -79q162 0 264 153.5t131 437.5zM942 885q0 450 -318 450q-158 0 -292 -71v98q139 72 305 72q432 0 432 -553q0 -428 -143.5 -670t-397.5 -242q-170 0 -270 107.5t-100 275.5t61.5 286
t164.5 181.5t230 63.5q190 0 324 -133q4 86 4 135z" />
    <glyph glyph-name="Delta" unicode="&#x2206;" horiz-adv-x="1206" 
d="M186 104h832l-420 1180zM18 0l506 1403h150l512 -1403h-1168z" />
    <glyph glyph-name="product" unicode="&#x220f;" horiz-adv-x="1355" 
d="M203 -301v1735h950v-1735h-129v1630h-692v-1630h-129z" />
    <glyph glyph-name="summation" unicode="&#x2211;" horiz-adv-x="1228" 
d="M141 -301v98l496 772l-483 766v99h893v-105h-752l483 -762l-493 -764h802v-104h-946z" />
    <glyph glyph-name="minus" unicode="&#x2212;" horiz-adv-x="1228" 
d="M172 653v97h885v-97h-885z" />
    <glyph glyph-name="uni2215" unicode="&#x2215;" horiz-adv-x="749" 
d="M55 0l516 1538h123l-516 -1538h-123z" />
    <glyph glyph-name="uni2219" unicode="&#x2219;" horiz-adv-x="421" 
d="M211 608q-41 0 -68 26t-27 68t27 69q27 26 68 26t68 -26t27 -69q0 -42 -28 -68q-26 -26 -67 -26z" />
    <glyph glyph-name="radical" unicode="&#x221a;" horiz-adv-x="1228" 
d="M102 653v97h213l224 -598l460 1386h123l-518 -1538h-115l-251 653h-136z" />
    <glyph glyph-name="infinity" unicode="&#x221e;" horiz-adv-x="1228" 
d="M327.5 510q75.5 0 128 42t113.5 148q-61 106 -115 148.5t-128 42.5t-118 -51.5t-44 -139.5t44 -139t119.5 -51zM901 510q76 0 120 51t44 139t-44 139.5t-119 51.5t-128 -42t-115 -149q61 -106 113.5 -148t128.5 -42zM916 422q-104 0 -169 45t-133 154
q-66 -106 -132 -152.5t-170 -46.5t-173 76.5t-69 201.5t69 202t173 77t170.5 -47t131.5 -154q68 111 135 156t169 45t171.5 -76t69.5 -203t-69.5 -202.5t-173.5 -75.5z" />
    <glyph glyph-name="integral" unicode="&#x222b;" horiz-adv-x="786" 
d="M332 1262q0 152 74.5 232.5t218.5 80.5q78 0 157 -29v-90q-74 23 -156 23q-172 0 -171 -207v-1436q0 -152 -75 -232.5t-218 -80.5q-78 0 -158 28v91q74 -23 156 -23q172 0 172 207v1436z" />
    <glyph glyph-name="approxequal" unicode="&#x2248;" horiz-adv-x="1228" 
d="M129 322q0 152 65 238t179 85q55 -1 109 -25t158 -98t139 -90q36 -18 69 -18q70 0 108 58t39 163h105q0 -152 -65 -238t-179 -86q-56 0 -110 25t-158 98q-104 72 -138 90q-36 18 -69 19q-70 -1 -109 -59t-39 -162h-104zM129 768q0 152 65 238t179 86q55 0 109 -25
t158 -99t139 -90q36 -17 69 -18q70 0 108 58t39 163h105q0 -151 -65 -237t-179 -86q-56 0 -110 24t-158 98t-138 92q-36 18 -69 17q-70 0 -109 -58t-39 -163h-104z" />
    <glyph glyph-name="notequal" unicode="&#x2260;" horiz-adv-x="1228" 
d="M1057 530v-96h-572l-131 -186h-114l131 186h-199v96h266l240 342h-504v97h571l132 186h114l-131 -186h199v-97h-266l-240 -342h504z" />
    <glyph glyph-name="lessequal" unicode="&#x2264;" horiz-adv-x="1228" 
d="M172 676v117l885 352v-103l-781 -307l781 -303v-108zM172 0v96h885v-96h-885z" />
    <glyph glyph-name="greaterequal" unicode="&#x2265;" horiz-adv-x="1228" 
d="M1057 793v-117l-885 -352v102l780 307l-780 303v109zM172 0v96h885v-96h-885z" />
    <glyph glyph-name="lozenge" unicode="&#x25ca;" horiz-adv-x="1228" 
d="M561 0l-434 717l434 717h107l434 -717l-434 -717h-107zM979 713l-367 612l-362 -604l366 -612z" />
    <glyph glyph-name="uni27E8" unicode="&#x27e8;" horiz-adv-x="634" 
d="M385 -301l-305 919l305 920h121l-303 -920l303 -919h-121z" />
    <glyph glyph-name="uni27E9" unicode="&#x27e9;" horiz-adv-x="634" 
d="M250 1538l305 -920l-305 -919h-121l303 919l-303 920h121z" />
    <glyph glyph-name="uniF507" unicode="&#xf507;" horiz-adv-x="1867" 
d="M506 0l741 1403h111l-742 -1403h-110zM1296 782q-55 0 -120 -4v90h577v-80q-162 -270 -248 -449t-135 -339h-113q97 316 390 782h-351zM551 1200q0 58 -49 98q-50 40 -146 41q-96 0 -204 -69v86q100 68 228 68t204 -64q76 -63 75 -166q0 -124 -141 -246l-106 -94
q-96 -86 -132 -134t-49 -99h332q55 0 121 4v-90h-569q4 102 51 184t166 186l108 96q59 51 85 95q26 46 26 104z" />
    <glyph glyph-name="uniF508" unicode="&#xf508;" horiz-adv-x="1867" 
d="M459 0l741 1403h111l-742 -1403h-110zM1296 782q-55 0 -120 -4v90h577v-80q-162 -270 -248 -449t-135 -339h-113q97 316 390 782h-351zM333 594q115 0 175 48q59 48 59 131t-56 129t-155 46h-77v82h77q86 0 136 41q49 41 49 115q-1 74 -53 116t-148 42t-197 -44v80
q94 43 219 43t206 -63t81 -168q0 -74 -43 -126t-123 -75q93 -23 143 -81t50 -142q0 -114 -88 -184t-230 -70t-235 47l-14 90q109 -57 224 -57z" />
    <glyph glyph-name="uniF509" unicode="&#xf509;" horiz-adv-x="1867" 
d="M483 0l742 1403h110l-741 -1403h-111zM1296 782q-55 0 -120 -4v90h577v-80q-162 -270 -248 -449t-135 -339h-113q97 316 390 782h-351zM514 829v455l-336 -455h336zM514 535v213h-436v81l424 574h110v-574h6q55 0 121 5v-86h-127v-213h-98z" />
    <glyph glyph-name="uniF50A" unicode="&#xf50a;" horiz-adv-x="1867" 
d="M469 0l741 1403h111l-741 -1403h-111zM1296 782q-55 0 -120 -4v90h577v-80q-162 -270 -248 -449t-135 -339h-113q97 316 390 782h-351zM438 1079q111 -1 186 -75q74 -74 74 -202t-89 -208t-226 -80t-240 47l-12 90q102 -53 221 -53q236 0 238 209q0 94 -52 145
q-52 52 -148 52t-173 -48l-53 31l41 416h321q55 0 121 4v-90h-366l-25 -277q71 39 182 39z" />
    <glyph glyph-name="uniF50B" unicode="&#xf50b;" horiz-adv-x="1867" 
d="M479 0l742 1403h110l-741 -1403h-111zM1296 782q-55 0 -120 -4v90h577v-80q-162 -270 -248 -449t-135 -339h-113q97 316 390 782h-351zM444 995q-74 -1 -136 -35t-97 -92q8 -128 65 -200q56 -72 148 -72t143 54t51 144t-50 146q-50 55 -124 55zM455 1073q119 0 195 -77
q76 -76 75 -200q0 -124 -83 -203q-82 -79 -222 -79t-226 103t-85 271q0 168 62 284t176 181t265 70l13 -86q-180 -8 -288 -104t-124 -266q39 47 105 77t137 29z" />
    <glyph glyph-name="uniF50D" unicode="&#xf50d;" horiz-adv-x="1867" 
d="M524 0l742 1403h110l-741 -1403h-111zM1426 408q74 0 136 34t95 90q-5 129 -63 202t-149 73t-142 -54q-51 -55 -51 -145t50 -145t124 -55zM1145 608q0 124 83 202q82 79 222 79q140 1 226 -103t85 -273q1 -169 -65 -287t-184 -181t-275 -65l-31 86q199 0 315 96t134 272
q-37 -47 -104 -76t-136 -28q-119 0 -195 77t-75 201zM551 1200q0 58 -49 98q-50 40 -146 41q-96 0 -204 -69v86q100 68 228 68t204 -64q76 -63 75 -166q0 -124 -141 -246l-106 -94q-96 -86 -132 -134t-49 -99h332q55 0 121 4v-90h-569q4 102 51 184t166 186l108 96
q59 51 85 95q26 46 26 104z" />
    <glyph glyph-name="uniF50E" unicode="&#xf50e;" horiz-adv-x="1867" 
d="M514 0l741 1403h111l-741 -1403h-111zM1426 408q74 0 136 34t95 90q-5 129 -63 202t-149 73t-142 -54q-51 -55 -51 -145t50 -145t124 -55zM1145 608q0 124 83 202q82 79 222 79q140 1 226 -103t85 -273q1 -169 -65 -287t-184 -181t-275 -65l-31 86q199 0 315 96t134 272
q-37 -47 -104 -76t-136 -28q-119 0 -195 77t-75 201zM514 829v455l-336 -455h336zM514 535v213h-436v81l424 574h110v-574h6q55 0 121 5v-86h-127v-213h-98z" />
    <glyph glyph-name="uniF50F" unicode="&#xf50f;" horiz-adv-x="1867" 
d="M492 0l741 1403h110l-741 -1403h-110zM1426 408q74 0 136 34t95 90q-5 129 -63 202t-149 73t-142 -54q-51 -55 -51 -145t50 -145t124 -55zM1145 608q0 124 83 202q82 79 222 79q140 1 226 -103t85 -273q1 -169 -65 -287t-184 -181t-275 -65l-31 86q199 0 315 96t134 272
q-37 -47 -104 -76t-136 -28q-119 0 -195 77t-75 201zM438 1079q111 -1 186 -75q74 -74 74 -202t-89 -208t-226 -80t-240 47l-12 90q102 -53 221 -53q236 0 238 209q0 94 -52 145q-52 52 -148 52t-173 -48l-53 31l41 416h321q55 0 121 4v-90h-366l-25 -277q71 39 182 39z" />
    <glyph glyph-name="uniF510" unicode="&#xf510;" horiz-adv-x="1867" 
d="M406 0l741 1403h110l-741 -1403h-110zM1426 408q74 0 136 34t95 90q-5 129 -63 202t-149 73t-142 -54q-51 -55 -51 -145t50 -145t124 -55zM1145 608q0 124 83 202q82 79 222 79q140 1 226 -103t85 -273q1 -169 -65 -287t-184 -181t-275 -65l-31 86q199 0 315 96t134 272
q-37 -47 -104 -76t-136 -28q-119 0 -195 77t-75 201zM248 1317q-55 0 -121 -4v90h578v-80q-288 -480 -383 -788h-113q98 319 389 782h-350z" />
    <glyph glyph-name="uniF511" unicode="&#xf511;" horiz-adv-x="1867" 
d="M510 0l741 1403h111l-741 -1403h-111zM1426 408q74 0 136 34t95 90q-5 129 -63 202t-149 73t-142 -54q-51 -55 -51 -145t50 -145t124 -55zM1145 608q0 124 83 202q82 79 222 79q140 1 226 -103t85 -273q1 -169 -65 -287t-184 -181t-275 -65l-31 86q199 0 315 96t134 272
q-37 -47 -104 -76t-136 -28q-119 0 -195 77t-75 201zM410 1030q86 0 136 42t50 115t-50 115t-136 42t-137 -42q-50 -42 -50 -115q1 -73 51 -115t136 -42zM410 594q100 0 158 48t58 129t-58 128t-158 47t-158 -47t-59 -128q1 -81 59 -129t158 -48zM698 1190q0 -151 -161 -199
q94 -23 145 -80t51 -141q0 -116 -88 -186t-235 -70t-236 70q-88 70 -88 186q0 84 52 142t145 79q-162 52 -162 199q0 106 80 170t209 63q128 0 208 -63t80 -170z" />
    <glyph glyph-name="uniF804" unicode="&#xf804;" horiz-adv-x="1187" 
d="M774 0v358h-713v97l519 948h131l-525 -946h588v614l119 14v-628h47q115 0 172 6v-105h-219v-358h-119z" />
    <glyph glyph-name="uniFEFF" unicode="&#xfeff;" horiz-adv-x="0" 
 />
    <glyph glyph-name="uniFFFD" unicode="&#xfffd;" horiz-adv-x="2048" 
d="M1022 -14q37 0 59.5 22.5t22.5 61.5t-22.5 61.5t-59.5 22.5t-59.5 -22.5t-22.5 -61.5t22.5 -61.5t59.5 -22.5zM1063 352q0 172 129 289q104 98 142 162.5t38 144.5q0 131 -91 211t-253 80t-307 -106v-84q147 106 283 106t200 -56.5t64 -158.5q0 -59 -30 -110.5
t-116 -137.5q-141 -141 -141 -340h82zM59 696l965 965l965 -965l-965 -964z" />
    <glyph glyph-name="questiondown.case" horiz-adv-x="944" 
d="M514 1434q41 0 68 -26q26 -26 26 -69t-26 -69t-68 -25q-41 0 -68 26q-26 27 -26 69t26 68q27 26 68 26zM94 330q0 88 45 162t149 166t141 168q36 76 38 188h94q0 -129 -41 -221q-41 -93 -138 -181t-130 -144t-33 -130q0 -118 77 -182t212 -64q174 0 344 125v-102
q-174 -125 -358 -125t-292 93t-108 247z" />
    <glyph glyph-name="exclamdown.case" horiz-adv-x="591" 
d="M297 1434q41 0 68 -26t27 -69t-28 -69q-26 -26 -67 -25q-41 0 -68 26q-27 27 -27 69t27 68t68 26zM344 1014l18 -1024l-131 -17l19 1041h94z" />
    <glyph glyph-name="zero.tnum" horiz-adv-x="1228" 
d="M614 -31q-244 -1 -368 185t-125 547q0 361 125 547q124 186 368 186t369 -186t125 -546q0 -362 -125 -548t-369 -185zM614 68q184 0 275 156q90 156 90 478t-90 478q-91 156 -275 156t-274 -156t-90 -478t90 -478t274 -156z" />
    <glyph glyph-name="one.tnum" horiz-adv-x="1228" 
d="M586 0v1270l-353 -236l-26 103l401 266h101v-1403h-123z" />
    <glyph glyph-name="two.tnum" horiz-adv-x="1228" 
d="M881 1063q0 121 -88 195t-253 75q-165 0 -341 -123v103q175 121 373 121t317 -104t119 -261q0 -126 -97 -240q-51 -59 -147 -137l-176 -143q-257 -208 -293 -445h567q115 0 172 7v-111h-876q10 184 92 332t250 282l182 148q113 92 156 158t43 143z" />
    <glyph glyph-name="three.tnum" horiz-adv-x="1228" 
d="M476 68q181 0 284 84q102 84 102 225t-96 225t-260 84h-121v98h117q147 0 233 74t86 202t-88 202t-248 74t-317 -68v98q147 68 339 68q191 0 317 -104t126 -265q0 -119 -68 -205t-192 -123q141 -35 221 -132t80 -224q-1 -127 -65 -220t-176 -143t-230 -49q-231 0 -387 80
l-18 107q180 -88 361 -88z" />
    <glyph glyph-name="four.tnum" horiz-adv-x="1228" 
d="M801 457v803l-592 -803h592zM1137 358h-219v-358h-117v358h-715v97l698 948h134v-946h47q115 0 172 6v-105z" />
    <glyph glyph-name="five.tnum" horiz-adv-x="1228" 
d="M567 772q-168 0 -288 -76l-66 43l66 664h526q115 0 172 6v-111h-598l-49 -491q111 59 292 59t301 -118t119 -314q0 -141 -64 -247q-64 -105 -178 -161q-192 -95 -460 -35q-98 22 -168 58l-18 109q180 -88 368 -88t290 96q101 96 101 263t-89 255t-257 88z" />
    <glyph glyph-name="six.tnum" horiz-adv-x="1228" 
d="M649 768q-129 0 -234 -59t-161 -154q4 -235 98 -361t255 -126t252 97t91 257t-86 253t-215 93zM658 866q120 0 218 -60t149 -160q52 -100 52 -229q0 -127 -60 -231q-61 -104 -165 -160t-234 -57q-227 0 -356 164q-129 163 -129 435t103 460q102 188 291 292t448 114
l16 -103q-336 -14 -527 -185t-208 -472q57 84 169 138q113 54 233 54z" />
    <glyph glyph-name="seven.tnum" horiz-adv-x="1228" 
d="M293 1298q-113 0 -172 -6v111h897v-98q-258 -451 -398 -748t-219 -557h-129q82 262 225 564q142 302 390 734h-594z" />
    <glyph glyph-name="eight.tnum" horiz-adv-x="1228" 
d="M614 782q147 0 232 74q84 74 84 202t-84 203t-232 75t-231 -76q-84 -74 -84 -202t84 -202t231 -74zM614 68q164 0 259 83t96 226q-1 143 -95 225t-260 82t-260 -82t-94 -225t95 -226t259 -83zM133 375q0 135 80 230t223 132q-126 37 -194 122t-68 200t56 199t156 130
t230 46q132 0 232 -48t153 -133t53 -197t-68 -197q-69 -85 -193 -122q143 -37 223 -132t80 -230q0 -182 -132 -294t-350 -112t-349 112q-132 112 -132 294z" />
    <glyph glyph-name="nine.tnum" horiz-adv-x="1228" 
d="M549 635q129 0 234 59t161 154q-4 236 -98 362t-255 125q-161 0 -252 -97t-91 -257t86 -253t215 -93zM540 537q-120 0 -217 60q-97 61 -149 161t-53 228q0 128 60 232q61 104 165 159q104 56 234 57q227 0 356 -164t129 -451q0 -381 -220 -605t-614 -245l-38 103
q345 10 539 182t210 475q-57 -84 -169 -138q-113 -54 -233 -54z" />
    <glyph glyph-name="four.tnum.ss01" horiz-adv-x="1228" 
d="M799 0v358h-713v97l518 948h131l-524 -946h588v614l119 14v-628h47q115 0 172 6v-105h-219v-358h-119z" />
    <glyph glyph-name="percent.inferior" horiz-adv-x="1228" 
d="M274 74q-100 0 -153 74t-53 210q0 137 53 211t153 74t154 -74t53 -211q0 -137 -53 -211q-54 -73 -154 -73zM274 135q125 0 123 223q0 117 -29 170q-30 53 -94 54q-124 0 -122 -224q0 -115 30 -169t92 -54zM954 -266q-100 0 -153 74t-53 210q0 137 53 211t153 74t154 -74
t53 -211q0 -137 -53 -211q-54 -73 -154 -73zM831 18q0 -224 124 -223q124 0 122 223q0 117 -29 170q-30 53 -94 54q-123 0 -123 -224zM348 -246l449 869h84l-449 -869h-84z" />
    <glyph glyph-name="percent.superior" horiz-adv-x="1228" 
d="M274 1098q-100 0 -153 74t-53 210q0 137 53 211t153 74t154 -74t53 -211q0 -137 -53 -211q-54 -73 -154 -73zM274 1159q125 0 123 223q0 117 -29 170q-30 53 -94 54q-124 0 -122 -224q0 -115 30 -169t92 -54zM954 758q-100 0 -153 74t-53 210q0 137 53 211t153 74
t154 -74t53 -211q0 -137 -53 -211q-54 -73 -154 -73zM831 1042q0 -224 124 -223q124 0 122 223q0 117 -29 170q-30 53 -94 54q-123 0 -123 -224zM348 778l449 869h84l-449 -869h-84z" />
    <glyph glyph-name="zero.dnom" 
d="M409.5 -20q-157.5 0 -241.5 115.5t-84 338.5t84 339t241.5 116t241.5 -116t84 -339t-84 -338.5t-241.5 -115.5zM409.5 61q108.5 0 161 90.5t52.5 283t-52.5 282.5t-161 90t-160.5 -90t-52 -282.5t52 -283t160.5 -90.5z" />
    <glyph glyph-name="one.dnom" 
d="M451 0v758l-244 -160l-21 84l281 186h90v-868h-106z" />
    <glyph glyph-name="two.dnom" 
d="M551 664q0 58 -49.5 99.5t-145.5 41.5t-204 -70v86q100 68 228 68t203.5 -63.5t75.5 -177.5t-141 -234l-106 -95q-96 -86 -132 -134t-49 -99h332q55 0 121 4v-90h-569q4 102 51 184t166 187l108 96q59 51 85 95t26 102z" />
    <glyph glyph-name="three.dnom" 
d="M567 239q0 83 -56 129t-155 46h-77v82h77q86 0 135.5 41t49.5 115t-52.5 115.5t-148.5 41.5t-197 -43v80q94 43 219 43t206 -63.5t81 -168.5q0 -74 -43 -126t-123 -74q92 -23 142.5 -81.5t50.5 -142.5q0 -115 -88 -184t-230 -69t-235 47l-14 90q109 -57 224 -57t174.5 48
t59.5 131z" />
    <glyph glyph-name="four.dnom" 
d="M514 295v455l-336 -455h336zM514 0v213h-436v82l424 573h110v-573h6q55 0 121 4v-86h-127v-213h-98z" />
    <glyph glyph-name="five.dnom" 
d="M438 545q111 0 185.5 -75t74.5 -203t-89 -207.5t-227 -79.5t-239 47l-12 90q102 -53 221 -53t178.5 54t59.5 151t-52.5 148.5t-147.5 51.5t-173 -47l-53 31l41 415h321q55 0 121 4v-90h-366l-25 -276q71 39 182 39z" />
    <glyph glyph-name="six.dnom" 
d="M444 461q-74 0 -136 -35t-97 -92q8 -129 65.5 -201t148.5 -72t142 54.5t51 144.5t-50 145.5t-124 55.5zM455 539q119 0 194.5 -77t75.5 -201t-82.5 -202.5t-222.5 -78.5t-225.5 103t-85.5 271t62 284t176 180.5t265 70.5l13 -86q-180 -8 -288 -104.5t-124 -266.5
q39 47 105.5 77t136.5 30z" />
    <glyph glyph-name="seven.dnom" 
d="M248 782q-55 0 -121 -4v90h578v-80q-162 -270 -248 -449t-135 -339h-113q100 323 389 782h-350z" />
    <glyph glyph-name="eight.dnom" 
d="M410 496q86 0 136 42t50 114t-50 114.5t-136 42.5t-136.5 -42t-50.5 -115t50.5 -114.5t136.5 -41.5zM409.5 59q100.5 0 159 48.5t58.5 129.5t-58.5 128t-159 47t-158.5 -48t-58 -128t58 -128.5t158.5 -48.5zM121 655q0 106 80 170t209 64t208.5 -63.5t79.5 -170.5
q0 -74 -42 -125t-119 -73q94 -23 145 -80.5t51 -140.5q0 -117 -88 -186.5t-235.5 -69.5t-235.5 69.5t-88 186.5q0 84 52 142t145 79q-162 52 -162 198z" />
    <glyph glyph-name="nine.dnom" 
d="M377 408q74 0 136 34.5t95 89.5q-6 129 -63.5 202t-148.5 73t-142 -54.5t-51 -144.5t50 -145t124 -55zM367 330q-119 0 -195 76.5t-76 200.5t83 203t223 79t225.5 -103.5t85.5 -272.5t-65.5 -286.5t-183.5 -181t-276 -65.5l-30 86q199 0 314.5 96t133.5 272
q-37 -47 -103.5 -75.5t-135.5 -28.5z" />
    <glyph glyph-name="plus.dnom" 
d="M365 150v243h-234v82h234v244h90v-244h233v-82h-233v-243h-90z" />
    <glyph glyph-name="minus.dnom" 
d="M131 393v82h557v-82h-557z" />
    <glyph glyph-name="equal.dnom" 
d="M131 254v82h557v-82h-557zM131 532v82h557v-82h-557z" />
    <glyph glyph-name="parenleft.dnom" 
d="M305 436q0 152 48 305.5t130 264.5l90 -7q-74 -102 -114.5 -251.5t-40.5 -313.5t41 -313.5t114 -249.5l-90 -8q-82 111 -130 266t-48 307z" />
    <glyph glyph-name="parenright.dnom" 
d="M514 433q0 -153 -48 -306.5t-130 -263.5l-90 6q74 102 114.5 251.5t40.5 313.5t-41 313.5t-114 249.5l90 9q82 -111 130 -265.5t48 -307.5z" />
    <glyph glyph-name="percent.dnom" horiz-adv-x="1228" 
d="M274.5 319q-100.5 0 -153.5 74t-53 211t53 211t153.5 74t153.5 -74t53 -211t-53 -211t-153.5 -74zM274.5 381q63.5 0 93 54t29.5 170t-29.5 169t-93 53t-93 -53t-29.5 -169t29.5 -170t93 -54zM954.5 -20q-100.5 0 -153.5 73.5t-53 210.5t53 211t153.5 74t153.5 -74
t53 -211t-53 -210.5t-153.5 -73.5zM954.5 41q63.5 0 93 54.5t29.5 170.5t-29.5 168.5t-93 52.5t-93.5 -53t-30 -169t30 -170t93.5 -54zM348 0l449 868h84l-449 -868h-84z" />
    <glyph glyph-name="zero.numr" 
d="M410 514q-158 0 -242 116t-84 339t84 339t242 116t242 -116t83 -339q1 -223 -83 -339t-242 -116zM410 596q108 0 160 90t53 283q-1 193 -53 283t-160 89q-108 0 -161 -90q-52 -91 -52 -283t52 -282t161 -90z" />
    <glyph glyph-name="one.numr" 
d="M451 535v757l-244 -159l-21 84l281 186h90v-868h-106z" />
    <glyph glyph-name="two.numr" 
d="M551 1200q0 58 -49 98q-50 40 -146 41q-96 0 -204 -69v86q100 68 228 68t204 -64q76 -63 75 -166q0 -124 -141 -246l-106 -94q-96 -86 -132 -134t-49 -99h332q55 0 121 4v-90h-569q4 102 51 184t166 186l108 96q59 51 85 95q26 46 26 104z" />
    <glyph glyph-name="three.numr" 
d="M333 594q115 0 175 48q59 48 59 131t-56 129t-155 46h-77v82h77q86 0 136 41q49 41 49 115q-1 74 -53 116t-148 42t-197 -44v80q94 43 219 43t206 -63t81 -168q0 -74 -43 -126t-123 -75q93 -23 143 -81t50 -142q0 -114 -88 -184t-230 -70t-235 47l-14 90q109 -57 224 -57
z" />
    <glyph glyph-name="four.numr" 
d="M514 829v455l-336 -455h336zM514 535v213h-436v81l424 574h110v-574h6q55 0 121 5v-86h-127v-213h-98z" />
    <glyph glyph-name="five.numr" 
d="M438 1079q111 -1 186 -75q74 -74 74 -202t-89 -208t-226 -80t-240 47l-12 90q102 -53 221 -53q236 0 238 209q0 94 -52 145q-52 52 -148 52t-173 -48l-53 31l41 416h321q55 0 121 4v-90h-366l-25 -277q71 39 182 39z" />
    <glyph glyph-name="six.numr" 
d="M444 995q-74 -1 -136 -35t-97 -92q8 -128 65 -200q56 -72 148 -72t143 54t51 144t-50 146q-50 55 -124 55zM455 1073q119 0 195 -77q76 -76 75 -200q0 -124 -83 -203q-82 -79 -222 -79t-226 103t-85 271q0 168 62 284t176 181t265 70l13 -86q-180 -8 -288 -104t-124 -266
q39 47 105 77t137 29z" />
    <glyph glyph-name="seven.numr" 
d="M248 1317q-55 0 -121 -4v90h578v-80q-288 -480 -383 -788h-113q98 319 389 782h-350z" />
    <glyph glyph-name="eight.numr" 
d="M410 1030q86 0 136 42t50 115t-50 115t-136 42t-137 -42q-50 -42 -50 -115q1 -73 51 -115t136 -42zM410 594q100 0 158 48t58 129t-58 128t-158 47t-158 -47t-59 -128q1 -81 59 -129t158 -48zM698 1190q0 -151 -161 -199q94 -23 145 -80t51 -141q0 -116 -88 -186
t-235 -70t-236 70q-88 70 -88 186q0 84 52 142t145 79q-162 52 -162 199q0 106 80 170t209 63q128 0 208 -63t80 -170z" />
    <glyph glyph-name="nine.numr" 
d="M203 1143q0 -89 50 -145t124 -56t136 35t95 90q-6 129 -63 202t-149 73t-142 -55q-51 -54 -51 -144zM367 864q-119 0 -195 77t-76 201t83 203t223 79t225 -104q86 -102 86 -272t-66 -288q-135 -240 -459 -246l-30 86q198 0 314 96t134 273q-38 -47 -104 -76t-135 -29z
" />
    <glyph glyph-name="plus.numr" 
d="M365 684v244h-234v82h234v243h90v-243h233v-82h-233v-244h-90z" />
    <glyph glyph-name="minus.numr" 
d="M131 928v82h557v-82h-557z" />
    <glyph glyph-name="equal.numr" 
d="M131 788v82h557v-82h-557zM131 1067v82h557v-82h-557z" />
    <glyph glyph-name="parenleft.numr" 
d="M305 970q0 152 48 306t130 264l90 -6q-75 -102 -115 -252t-40 -314t41 -313q41 -150 114 -249l-90 -9q-82 111 -130 266t-48 307z" />
    <glyph glyph-name="parenright.numr" 
d="M514 968q0 -152 -48 -306t-130 -265l-90 6q74 102 114 252q41 150 41 314q0 163 -41 313t-114 250l90 8q82 -112 130 -266t48 -306z" />
    <glyph glyph-name="percent.numr" horiz-adv-x="1228" 
d="M274 854q-100 0 -153 74t-53 211t53 211t153 74t154 -74q53 -74 53 -211q1 -137 -53 -211t-154 -74zM274 915q125 0 123 224q0 117 -29 170q-30 53 -94 53t-93 -53t-29 -169t30 -170t92 -55zM954 514q-100 0 -153 74t-53 211t53 211t153 74t154 -74q53 -74 53 -211
q1 -137 -53 -211t-154 -74zM831 799q0 -224 124 -224t122 224q0 117 -29 170q-30 53 -94 53t-93 -53q-30 -53 -30 -170zM348 535l449 868h84l-449 -868h-84z" />
    <glyph glyph-name="dollar.inferior" 
d="M223 416q0 -55 31 -85t104 -55l27 -8v291q-76 -8 -119 -48t-43 -95zM449 158v-342q162 20 161 170q0 132 -161 172zM385 -432v166q-143 4 -258 53l-14 84q139 -57 272 -57v362l-51 17q-209 66 -209 215q0 96 71 158t189 73v172h64v-168q109 -4 215 -47v-80
q-111 43 -215 47v-315l45 -15q110 -35 162 -95t52 -158t-68 -164q-69 -66 -191 -78v-170h-64z" />
    <glyph glyph-name="cent.inferior" 
d="M285 64q0 -215 157 -246v491q-76 -14 -116 -77t-41 -168zM442 -432v168q-122 14 -188 100t-66 227t67 227t187 101v168h64v-166q74 -6 153 -41v-78q-74 35 -153 39v-499q84 4 156 39v-78q-80 -35 -156 -41v-166h-64z" />
    <glyph glyph-name="sterling.inferior" 
d="M336 385q0 -12 14 -162h271v-67h-265v-31q0 -195 -98 -285h356q55 0 121 4v-90h-596v78q117 80 117 289v35h-104v67h98q-16 124 -17 166q0 121 70 188q71 67 181 67t206 -40v-80q-76 35 -166 35q-188 0 -188 -174z" />
    <glyph glyph-name="yen.inferior" 
d="M354 -37h-207v64h207v90l-16 28h-191v64h156l-227 414h114l220 -420l223 420h110l-231 -414h158v-64h-193l-16 -28v-90h209v-64h-209v-209h-107v209z" />
    <glyph glyph-name="Euro.inferior" 
d="M551 643q102 0 211 -49v-82q-109 49 -195 49q-223 0 -262 -248h379l-10 -63h-375q-2 -27 -2 -61t2 -58h356l-10 -63h-340q39 -252 264 -252q94 0 199 47v-80q-108 -49 -236 -49t-218 85q-89 85 -113 249h-105l10 63h89q-2 25 -2 59t2 60h-99l10 63h95q55 330 350 330z
" />
    <glyph glyph-name="uni20B9.inferior" 
d="M305 115h-31l367 -361h-135l-361 361v63h129q227 0 248 158h-377v63h377q-16 160 -246 160h-131v64h603l-11 -64h-209q82 -55 97 -160h88l-11 -63h-77q-13 -102 -97 -162t-223 -59z" />
    <glyph glyph-name="uni20BA.inferior" 
d="M270 -162h97q270 0 270 244v35h98v-35q0 -168 -91 -248t-282 -80h-196v287l-107 -39v68l107 39v129l-107 -39v67l107 39v318h104v-279l217 82v-68l-217 -82v-129l217 82v-67l-217 -82v-242z" />
    <glyph glyph-name="dollar.superior" 
d="M223 1440q0 -55 31 -85t104 -55l27 -8v291q-76 -8 -119 -48t-43 -95zM449 1182v-342q162 20 161 170q0 132 -161 172zM385 592v166q-143 4 -258 53l-14 84q139 -57 272 -57v362l-51 17q-209 66 -209 215q0 96 71 158t189 73v172h64v-168q109 -4 215 -47v-80
q-111 43 -215 47v-315l45 -15q110 -35 162 -95t52 -158t-68 -164q-69 -66 -191 -78v-170h-64z" />
    <glyph glyph-name="cent.superior" 
d="M285 1088q0 -215 157 -246v491q-76 -14 -116 -77t-41 -168zM442 592v168q-122 14 -188 100t-66 227t67 227t187 101v168h64v-166q74 -6 153 -41v-78q-74 35 -153 39v-499q84 4 156 39v-78q-80 -35 -156 -41v-166h-64z" />
    <glyph glyph-name="sterling.superior" 
d="M336 1409q0 -12 14 -162h271v-67h-265v-31q0 -195 -98 -285h356q55 0 121 4v-90h-596v78q117 80 117 289v35h-104v67h98q-16 124 -17 166q0 121 70 188q71 67 181 67t206 -40v-80q-76 35 -166 35q-188 0 -188 -174z" />
    <glyph glyph-name="yen.superior" 
d="M354 987h-207v64h207v90l-16 28h-191v64h156l-227 414h114l220 -420l223 420h110l-231 -414h158v-64h-193l-16 -28v-90h209v-64h-209v-209h-107v209z" />
    <glyph glyph-name="Euro.superior" 
d="M551 1667q102 0 211 -49v-82q-109 49 -195 49q-223 0 -262 -248h379l-10 -63h-375q-2 -27 -2 -61t2 -58h356l-10 -63h-340q39 -252 264 -252q94 0 199 47v-80q-108 -49 -236 -49t-218 85q-89 85 -113 249h-105l10 63h89q-2 25 -2 59t2 60h-99l10 63h95q55 330 350 330z
" />
    <glyph glyph-name="uni20B9.superior" 
d="M305 1139h-31l367 -361h-135l-361 361v63h129q227 0 248 158h-377v63h377q-16 160 -246 160h-131v64h603l-11 -64h-209q82 -55 97 -160h88l-11 -63h-77q-13 -102 -97 -162t-223 -59z" />
    <glyph glyph-name="uni20BA.superior" 
d="M270 862h97q270 0 270 244v35h98v-35q0 -168 -91 -248t-282 -80h-196v287l-107 -39v68l107 39v129l-107 -39v67l107 39v318h104v-279l217 82v-68l-217 -82v-129l217 82v-67l-217 -82v-242z" />
    <glyph glyph-name="dollar.dnom" 
d="M223 661q0 -55 31 -84.5t104 -54.5l27 -8v291q-76 -8 -119 -48.5t-43 -95.5zM449 403v-342q162 20 161 170q0 132 -161 172zM385 -186v166q-143 4 -258 53l-14 84q139 -57 272 -58v363l-51 16q-209 66 -209 215q0 96 70.5 158.5t189.5 73.5v172h64v-168q109 -4 215 -47
v-80q-111 43 -215 47v-315l45 -15q111 -35 163 -95t52 -158t-69 -164t-191 -78v-170h-64z" />
    <glyph glyph-name="cent.dnom" 
d="M285 310q0 -216 157 -247v492q-76 -14 -116.5 -77t-40.5 -168zM442 -186v168q-121 14 -187.5 100t-66.5 227.5t67 227.5t187 100v168h64v-166q74 -6 153 -41v-78q-74 35 -153 39v-500q84 4 156 39v-78q-80 -35 -156 -40v-166h-64z" />
    <glyph glyph-name="sterling.dnom" 
d="M336 631q0 -12 14 -162h271v-68h-265v-30q0 -195 -98 -285h356q55 0 121 4v-90h-596v78q117 80 117 289v34h-104v68h98q-17 133 -17 166q0 121 70.5 187.5t180.5 66.5t206 -39v-80q-76 35 -166 35q-188 0 -188 -174z" />
    <glyph glyph-name="yen.dnom" 
d="M354 209h-207v63h207v90l-16 29h-191v64h156l-227 413h114l220 -419l223 419h110l-231 -413h158v-64h-193l-16 -29v-90h209v-63h-209v-209h-107v209z" />
    <glyph glyph-name="Euro.dnom" 
d="M532 -20q-128 0 -217.5 85t-113.5 248h-105l10 64h89q-2 25 -2 59t2 60h-99l10 63h95q27 162 116 246t234 84q102 0 211 -49v-82q-109 49 -195 49q-223 0 -262 -248h379l-10 -63h-375q-2 -27 -2 -61t2 -58h356l-10 -64h-340q39 -252 264 -252q94 0 199 48v-80
q-108 -49 -236 -49z" />
    <glyph glyph-name="uni20B9.dnom" 
d="M305 360h-31l367 -360h-135l-361 360v64h129q227 0 248 158h-377v63h377q-16 160 -246 160h-131v63h603l-11 -63h-209q82 -55 97 -160h88l-11 -63h-77q-12 -102 -96.5 -162t-223.5 -60z" />
    <glyph glyph-name="uni20BA.dnom" 
d="M270 84h97q270 0 270 244v34h98v-34q0 -168 -91 -248t-282 -80h-196v287l-107 -39v67l107 39v129l-107 -39v68l107 39v317h104v-278l217 82v-68l-217 -82v-129l217 82v-67l-217 -82v-242z" />
    <glyph glyph-name="dollar.numr" 
d="M223 1196q0 -55 31 -85t104 -54l27 -8v290q-76 -8 -119 -48t-43 -95zM449 938v-342q162 20 161 170q0 132 -161 172zM385 348v166q-143 4 -258 53l-14 84q139 -57 272 -57v362l-51 17q-209 66 -209 215q0 96 71 158t189 73v172h64v-168q109 -4 215 -47v-80
q-111 43 -215 47v-315l45 -14q110 -35 162 -95q52 -61 52 -159t-68 -164q-69 -66 -191 -78v-170h-64z" />
    <glyph glyph-name="cent.numr" 
d="M285 845q0 -216 157 -247v492q-76 -14 -116 -77t-41 -168zM442 348v168q-122 14 -188 100t-66 228t67 227q67 86 187 100v168h64v-165q74 -6 153 -41v-78q-74 35 -153 39v-500q84 4 156 39v-78q-80 -35 -156 -41v-166h-64z" />
    <glyph glyph-name="sterling.numr" 
d="M336 1165q0 -10 14 -161h271v-68h-265v-31q0 -196 -98 -284h356q55 0 121 4v-90h-596v77q117 80 117 289v35h-104v68h98q-16 124 -17 165q0 121 70 188q71 67 181 67t206 -40v-79q-76 35 -166 34q-188 0 -188 -174z" />
    <glyph glyph-name="yen.numr" 
d="M354 743h-207v64h207v90l-16 29h-191v63h156l-227 414h114l220 -420l223 420h110l-231 -414h158v-63h-193l-16 -29v-90h209v-64h-209v-208h-107v208z" />
    <glyph glyph-name="Euro.numr" 
d="M551 1423q102 0 211 -49v-82q-109 49 -195 49q-223 0 -262 -247h379l-10 -64h-375q-2 -26 -2 -60t2 -59h356l-10 -63h-340q39 -252 264 -252q94 0 199 47v-80q-108 -49 -236 -49t-218 85q-89 85 -113 249h-105l10 63h89q-2 25 -2 59t2 60h-99l10 64h95q55 329 350 329z
" />
    <glyph glyph-name="uni20B9.numr" 
d="M305 895h-31l367 -360h-135l-361 360v63h129q227 0 248 158h-377v64h377q-16 160 -246 159h-131v64h603l-11 -64h-209q82 -55 97 -159h88l-11 -64h-77q-13 -102 -97 -162t-223 -59z" />
    <glyph glyph-name="uni20BA.numr" 
d="M270 618h97q270 0 270 244v35h98v-35q0 -168 -91 -248t-282 -79h-196v286l-107 -39v68l107 39v129l-107 -39v68l107 38v318h104v-279l217 82v-67l-217 -82v-129l217 82v-68l-217 -82v-242z" />
    <glyph glyph-name="hyphen.case" horiz-adv-x="739" 
d="M102 659v107h535v-107h-535z" />
    <glyph glyph-name="uni2010.case" horiz-adv-x="739" 
d="M102 659v107h535v-107h-535z" />
    <glyph glyph-name="uni2011.case" horiz-adv-x="739" 
d="M102 659v107h535v-107h-535z" />
    <glyph glyph-name="endash.case" horiz-adv-x="1228" 
d="M102 668v96h1024v-96h-1024z" />
    <glyph glyph-name="emdash.case" horiz-adv-x="1759" 
d="M102 668v96h1555v-96h-1555z" />
    <glyph glyph-name="parenleft.case" horiz-adv-x="649" 
d="M428 -207q-127 178 -201 427q-147 494 0 993q74 249 201 427l104 -10q-118 -166 -184 -408t-66 -505q0 -262 68 -505q66 -243 182 -409z" />
    <glyph glyph-name="parenright.case" horiz-adv-x="649" 
d="M496 716q0 -248 -74 -496q-74 -249 -201 -427l-104 10q117 166 183 409q67 243 67 505t-67 505t-183 408l104 10q127 -178 201 -427t74 -497z" />
    <glyph glyph-name="slash.case" horiz-adv-x="749" 
d="M55 0l516 1538h123l-516 -1538h-123z" />
    <glyph glyph-name="backslash.case" horiz-adv-x="749" 
d="M571 0l-516 1538h123l516 -1538h-123z" />
    <glyph glyph-name="bracketleft.case" horiz-adv-x="649" 
d="M193 -203v1839h395v-98h-273v-1642h273v-99h-395z" />
    <glyph glyph-name="bracketright.case" horiz-adv-x="649" 
d="M457 1636v-1839h-396v99h273v1642h-273v98h396z" />
    <glyph glyph-name="braceleft.case" horiz-adv-x="690" 
d="M356 455v-371q0 -96 40 -142t128 -46h105v-99h-127q-131 0 -200 74t-69 213v373q0 109 -45 159t-141 50v102q96 0 141 50t45 159v373q0 139 69 213t200 73h127v-98h-105q-88 0 -128 -46t-40 -142v-371q0 -213 -170 -262q170 -49 170 -262z" />
    <glyph glyph-name="braceright.case" horiz-adv-x="690" 
d="M334 979v371q0 96 -40 142t-128 46h-105v98h127q131 0 200 -74t69 -212v-373q0 -109 45 -159t141 -50v-102q-96 0 -141 -50t-45 -159v-373q0 -139 -69 -213t-200 -74h-127v99h105q88 0 128 46t40 142v371q0 213 170 262q-170 49 -170 262z" />
    <glyph glyph-name="bullet.case" horiz-adv-x="700" 
d="M350 473q-104 0 -169 67q-65 68 -65 176t66 174q64 66 168 66t169 -66t65 -176q0 -108 -65 -174t-169 -67z" />
    <glyph glyph-name="guilsinglleft.case" horiz-adv-x="516" 
d="M297 326l-248 389l248 393h119l-244 -391l246 -391h-121z" />
    <glyph glyph-name="guilsinglright.case" horiz-adv-x="516" 
d="M219 1108l248 -389l-248 -393h-119l244 391l-246 391h121z" />
    <glyph glyph-name="guillemotleft.case" horiz-adv-x="839" 
d="M297 326l-248 389l248 393h119l-244 -391l246 -391h-121zM621 326l-248 389l248 393h118l-243 -391l245 -391h-120z" />
    <glyph glyph-name="guillemotright.case" horiz-adv-x="839" 
d="M219 1108l248 -389l-248 -393h-119l244 391l-246 391h121zM543 1108l248 -389l-248 -393h-119l244 391l-246 391h121z" />
    <glyph glyph-name="at.case" horiz-adv-x="1976" 
d="M672 612q0 -136 56 -206t152 -70q97 0 185 55t139 150q0 23 6 53l74 471q-104 47 -216 47t-204 -69t-142 -183t-50 -248zM968 -205q-255 1 -455 105t-305 294q-106 190 -106 462q0 270 134 496t355 350q222 124 477 124t435 -95q179 -95 275 -263t96 -372t-56 -348
q-56 -146 -154 -224t-206 -78q-206 0 -246 180q-63 -88 -154 -136t-190 -48q-143 0 -228 98t-85 269t71 309q70 138 188 212q118 76 274 76t317 -92l-84 -530q-6 -37 -6 -82q0 -162 135 -162q92 0 163 71q148 149 148 461t-182 486t-498 174q-255 0 -453 -120t-306 -322
t-107 -446q0 -243 95 -411q96 -168 270 -256t402 -88t456 78v-96q-215 -76 -470 -76z" />
    <glyph glyph-name="periodcentered.case" horiz-adv-x="421" 
d="M211 623q-41 -1 -68 25t-26 69t27 69t67 25q41 0 68 -26q27 -27 27 -69t-27 -68q-27 -25 -68 -25z" />
    <glyph glyph-name="a.inferior" horiz-adv-x="696" 
d="M346 57q-170 1 -170 -123t139 -124q105 0 174 45v186q-72 16 -143 16zM290 -266q-102 0 -162 52q-58 52 -58 146t65 146q66 51 189 51q55 0 165 -16v77q0 147 -167 148q-88 0 -203 -47v78q109 47 225 47t182 -58q64 -58 64 -163v-435l-84 -10l-8 43q-106 -59 -208 -59z
" />
    <glyph glyph-name="b.inferior" horiz-adv-x="753" 
d="M354 -188q111 0 165 66t54 206q0 254 -180 254q-41 0 -91 -13t-81 -34v-459q67 -20 133 -20zM354 -266q-117 0 -237 43v932l104 10v-359q106 56 213 56q108 0 178 -89t70 -252t-83 -252t-245 -89z" />
    <glyph glyph-name="c.inferior" horiz-adv-x="626" 
d="M351 -266q-123 0 -201 90t-78 252t78 251t200 89t209 -41v-78q-92 39 -183 39q-92 0 -144 -67t-52 -195t52 -194t146 -66t185 39v-78q-89 -41 -212 -41z" />
    <glyph glyph-name="d.inferior" horiz-adv-x="753" 
d="M180 75q0 -263 180 -263q96 0 172 47v458q-72 20 -133 21q-219 0 -219 -263zM387 416q74 0 145 -21v314l105 10v-959l-86 -10l-8 45q-103 -61 -217 -61q-113 0 -184 89q-70 89 -70 251t81 252t234 90z" />
    <glyph glyph-name="e.inferior" horiz-adv-x="679" 
d="M516 160q0 180 -161 180q-79 0 -128 -58t-53 -155h340q2 18 2 33zM387 -266q-151 0 -233 90t-82 248t80 251t202 93t189 -72q68 -72 67 -194q0 -39 -12 -97h-424q6 -240 227 -239q102 0 181 39v-78q-88 -41 -195 -41z" />
    <glyph glyph-name="f.inferior" horiz-adv-x="436" 
d="M344 651q-110 0 -108 -119v-137h153v-76h-153v-565h-105v565h-96v72l96 4v133q0 201 191 201q49 0 110 -18v-74q-53 14 -88 14z" />
    <glyph glyph-name="g.inferior" horiz-adv-x="753" 
d="M180 66q0 -242 180 -242q96 0 172 47v446q-72 20 -133 21q-219 0 -219 -272zM320 -254q-108 0 -178 84t-70 246t83 251t244 89q119 0 238 -49v-629q0 -131 -78 -204t-205 -73t-215 41l-12 80q113 -43 201 -43q205 0 204 189v73q-104 -55 -212 -55z" />
    <glyph glyph-name="h.inferior" horiz-adv-x="765" 
d="M659 209v-455h-104v441q0 143 -143 143q-99 0 -191 -49v-535h-104v955l104 10v-359q105 54 213 55t166 -55t59 -151z" />
    <glyph glyph-name="i.inferior" horiz-adv-x="337" 
d="M168 686q70 0 72 -70q0 -33 -20 -51t-52 -18q-70 0 -72 69q0 34 20 52t52 18zM117 -246v635l104 10v-645h-104z" />
    <glyph glyph-name="j.inferior" horiz-adv-x="337" 
d="M168 686q70 0 72 -70q0 -33 -20 -51t-52 -18q-70 0 -72 69q0 34 20 52t52 18zM117 -268v657l104 10v-655q0 -266 -241 -276l-19 86q156 0 156 178z" />
    <glyph glyph-name="k.inferior" horiz-adv-x="634" 
d="M117 -246v955l104 10v-598l281 274h121l-301 -297l311 -344h-129l-283 314v-314h-104z" />
    <glyph glyph-name="l.inferior" horiz-adv-x="337" 
d="M117 -246v955l104 10v-965h-104z" />
    <glyph glyph-name="m.inferior" horiz-adv-x="1105" 
d="M999 219v-465h-104v451q0 133 -123 133q-84 0 -170 -53q8 -27 8 -66v-465h-104v451q0 133 -123 133q-84 0 -162 -47v-537h-104v635l86 10l8 -45q97 60 203 61q107 1 161 -75q103 74 211 75q107 1 160 -53t53 -143z" />
    <glyph glyph-name="n.inferior" horiz-adv-x="765" 
d="M659 209v-455h-104v441q0 143 -143 143q-99 0 -191 -49v-535h-104v635l86 10l8 -45q109 60 220 61t169 -55t59 -151z" />
    <glyph glyph-name="o.inferior" horiz-adv-x="733" 
d="M367 -188q96 0 141 63t45 199t-45 200t-141 64q-95 0 -141 -64t-46 -199q0 -136 45 -200q46 -63 142 -63zM367 -266q-143 0 -220 88q-76 88 -75 254q0 166 76 253t218 87t219 -87t77 -253t-76 -254t-219 -88z" />
    <glyph glyph-name="p.inferior" horiz-adv-x="753" 
d="M393 338q-41 0 -91 -13t-81 -34v-459q68 -20 133 -20q111 0 165 66t54 206q0 254 -180 254zM682 76q0 -162 -81 -252t-234 -90q-74 0 -146 20v-272l-104 -10v917l86 10l8 -45q105 60 218 61t183 -88t70 -251z" />
    <glyph glyph-name="q.inferior" horiz-adv-x="753" 
d="M180 75q0 -263 180 -263q96 0 172 47v458q-72 20 -133 21q-219 0 -219 -263zM320 -266q-108 0 -178 89t-70 252t83 252t244 89q119 0 238 -49v-885l-105 -10v317q-104 -55 -212 -55z" />
    <glyph glyph-name="r.inferior" horiz-adv-x="479" 
d="M117 -246v635l86 10l10 -59q78 72 182 72q29 0 54 -9v-84q-20 6 -60 7q-100 0 -168 -62v-510h-104z" />
    <glyph glyph-name="s.inferior" horiz-adv-x="585" 
d="M317 338q-141 0 -141 -96q0 -33 23 -55t82 -44l81 -30q86 -33 124 -78t38 -124t-66 -128t-181 -49q-116 0 -199 39l-15 82q117 -43 203 -43q156 0 156 110q0 41 -22 64t-87 47l-80 30q-83 33 -121 74t-38 112t64 119q65 48 167 48t182 -37v-78q-86 37 -170 37z" />
    <glyph glyph-name="t.inferior" horiz-adv-x="471" 
d="M236 -66q0 -118 106 -116q37 0 84 14v-74q-49 -18 -107 -18q-188 0 -188 194v385h-96v72l100 4l10 162l91 10v-172h184v-76h-184v-385z" />
    <glyph glyph-name="u.inferior" horiz-adv-x="755" 
d="M329 -266q-112 0 -169 55t-58 152v454h105v-440q0 -143 137 -143q97 0 191 47v536h104v-635l-86 -10l-8 45q-104 -61 -216 -61z" />
    <glyph glyph-name="v.inferior" horiz-adv-x="638" 
d="M268 -246l-252 641h107l199 -545l198 545h103l-252 -641h-103z" />
    <glyph glyph-name="w.inferior" horiz-adv-x="970" 
d="M662 -246l-177 539l-170 -539h-98l-201 641h105l149 -530l162 530h111l166 -532l145 532h100l-194 -641h-98z" />
    <glyph glyph-name="x.inferior" horiz-adv-x="608" 
d="M16 -246l230 326l-215 315h110l164 -243l166 243h109l-220 -311l232 -330h-113l-178 258l-180 -258h-105z" />
    <glyph glyph-name="y.inferior" horiz-adv-x="638" 
d="M31 -446q88 12 143 56t98 136l-256 649h107l199 -545l198 545h103l-246 -624q-41 -101 -83 -163t-98 -95t-141 -45z" />
    <glyph glyph-name="z.inferior" horiz-adv-x="622" 
d="M551 -170v-76h-483v72l356 493h-348v76h469v-71l-359 -494h365z" />
    <glyph glyph-name="a.superior" horiz-adv-x="696" 
d="M346 1081q-170 1 -170 -123t139 -124q105 0 174 45v186q-72 16 -143 16zM290 758q-102 0 -162 52q-58 52 -58 146t65 146q66 51 189 51q55 0 165 -16v77q0 147 -167 148q-88 0 -203 -47v78q109 47 225 47t182 -58q64 -58 64 -163v-435l-84 -10l-8 43q-106 -59 -208 -59z
" />
    <glyph glyph-name="b.superior" horiz-adv-x="753" 
d="M354 836q111 0 165 66t54 206q0 254 -180 254q-41 0 -91 -13t-81 -34v-459q67 -20 133 -20zM354 758q-117 0 -237 43v932l104 10v-359q106 56 213 56q108 0 178 -89t70 -252t-83 -252t-245 -89z" />
    <glyph glyph-name="c.superior" horiz-adv-x="626" 
d="M351 758q-123 0 -201 90t-78 252t78 251t200 89t209 -41v-78q-92 39 -183 39q-92 0 -144 -67t-52 -195t52 -194t146 -66t185 39v-78q-89 -41 -212 -41z" />
    <glyph glyph-name="d.superior" horiz-adv-x="753" 
d="M180 1099q0 -263 180 -263q96 0 172 47v458q-72 20 -133 21q-219 0 -219 -263zM326 758q-113 0 -184 89q-70 89 -70 251t81 252t234 90q74 0 145 -21v314l105 10v-959l-86 -10l-8 45q-104 -61 -217 -61z" />
    <glyph glyph-name="e.superior" horiz-adv-x="679" 
d="M516 1184q0 180 -161 180q-79 0 -128 -58t-53 -155h340q2 18 2 33zM387 758q-151 0 -233 90t-82 248t80 251t202 93t189 -72q68 -72 67 -194q0 -39 -12 -97h-424q6 -240 227 -239q102 0 181 39v-78q-88 -41 -195 -41z" />
    <glyph glyph-name="f.superior" horiz-adv-x="436" 
d="M344 1675q-110 0 -108 -119v-137h153v-76h-153v-565h-105v565h-96v72l96 4v133q0 201 191 201q49 0 110 -18v-74q-53 14 -88 14z" />
    <glyph glyph-name="g.superior" horiz-adv-x="753" 
d="M180 1090q0 -242 180 -242q96 0 172 47v446q-72 20 -133 21q-219 0 -219 -272zM320 770q-108 0 -178 84t-70 246t83 251t244 89q119 0 238 -49v-629q0 -131 -78 -204t-205 -73t-215 41l-12 80q113 -43 201 -43q205 0 204 189v73q-104 -55 -212 -55z" />
    <glyph glyph-name="h.superior" horiz-adv-x="765" 
d="M659 1233v-455h-104v441q0 143 -143 143q-99 0 -191 -49v-535h-104v955l104 10v-359q105 54 213 55t166 -55t59 -151z" />
    <glyph glyph-name="i.superior" horiz-adv-x="337" 
d="M168 1710q70 0 72 -70q0 -33 -20 -51t-52 -18q-70 0 -72 69q0 34 20 52t52 18zM117 778v635l104 10v-645h-104z" />
    <glyph glyph-name="j.superior" horiz-adv-x="337" 
d="M168 1710q70 0 72 -70q0 -33 -20 -51t-52 -18q-70 0 -72 69q0 34 20 52t52 18zM117 756v657l104 10v-655q0 -266 -241 -276l-19 86q156 0 156 178z" />
    <glyph glyph-name="k.superior" horiz-adv-x="634" 
d="M117 778v955l104 10v-598l281 274h121l-301 -297l311 -344h-129l-283 314v-314h-104z" />
    <glyph glyph-name="l.superior" horiz-adv-x="337" 
d="M117 778v955l104 10v-965h-104z" />
    <glyph glyph-name="m.superior" horiz-adv-x="1105" 
d="M999 1243v-465h-104v451q0 133 -123 133q-84 0 -170 -53q8 -27 8 -66v-465h-104v451q0 133 -123 133q-84 0 -162 -47v-537h-104v635l86 10l8 -45q97 60 203 61q107 1 161 -75q103 74 211 75q107 1 160 -53t53 -143z" />
    <glyph glyph-name="o.superior" horiz-adv-x="733" 
d="M367 836q96 0 141 63t45 199t-45 200t-141 64q-95 0 -141 -64t-46 -199q0 -136 45 -200q46 -63 142 -63zM367 758q-143 0 -220 88q-76 88 -75 254q0 166 76 253t218 87t219 -87t77 -253t-76 -254t-219 -88z" />
    <glyph glyph-name="p.superior" horiz-adv-x="753" 
d="M393 1362q-41 0 -91 -13t-81 -34v-459q68 -20 133 -20q111 0 165 66t54 206q0 254 -180 254zM682 1100q0 -162 -81 -252t-234 -90q-74 0 -146 20v-272l-104 -10v917l86 10l8 -45q105 60 218 61t183 -88t70 -251z" />
    <glyph glyph-name="q.superior" horiz-adv-x="753" 
d="M180 1099q0 -263 180 -263q96 0 172 47v458q-72 20 -133 21q-219 0 -219 -263zM320 758q-108 0 -178 89t-70 252t83 252t244 89q119 0 238 -49v-885l-105 -10v317q-104 -55 -212 -55z" />
    <glyph glyph-name="r.superior" horiz-adv-x="479" 
d="M117 778v635l86 10l10 -59q78 72 182 72q29 0 54 -9v-84q-20 6 -60 7q-100 0 -168 -62v-510h-104z" />
    <glyph glyph-name="s.superior" horiz-adv-x="585" 
d="M317 1362q-141 0 -141 -96q0 -33 23 -55t82 -44l81 -30q86 -33 124 -78t38 -124t-66 -128t-181 -49q-116 0 -199 39l-15 82q117 -43 203 -43q156 0 156 110q0 41 -22 64t-87 47l-80 30q-83 33 -121 74t-38 112t64 119q65 48 167 48t182 -37v-78q-86 37 -170 37z" />
    <glyph glyph-name="t.superior" horiz-adv-x="471" 
d="M236 958q0 -118 106 -116q37 0 84 14v-74q-49 -18 -107 -18q-188 0 -188 194v385h-96v72l100 4l10 162l91 10v-172h184v-76h-184v-385z" />
    <glyph glyph-name="u.superior" horiz-adv-x="755" 
d="M329 758q-112 0 -169 55t-58 152v454h105v-440q0 -143 137 -143q97 0 191 47v536h104v-635l-86 -10l-8 45q-104 -61 -216 -61z" />
    <glyph glyph-name="v.superior" horiz-adv-x="638" 
d="M268 778l-252 641h107l199 -545l198 545h103l-252 -641h-103z" />
    <glyph glyph-name="w.superior" horiz-adv-x="970" 
d="M662 778l-177 539l-170 -539h-98l-201 641h105l149 -530l162 530h111l166 -532l145 532h100l-194 -641h-98z" />
    <glyph glyph-name="x.superior" horiz-adv-x="608" 
d="M16 778l230 326l-215 315h110l164 -243l166 243h109l-220 -311l232 -330h-113l-178 258l-180 -258h-105z" />
    <glyph glyph-name="y.superior" horiz-adv-x="638" 
d="M31 578q88 12 143 56t98 136l-256 649h107l199 -545l198 545h103l-246 -624q-41 -101 -83 -163t-98 -95t-141 -45z" />
    <glyph glyph-name="z.superior" horiz-adv-x="622" 
d="M551 854v-76h-483v72l356 493h-348v76h469v-71l-359 -494h365z" />
    <glyph glyph-name="a.dnom" horiz-adv-x="696" 
d="M346 303q-170 0 -170 -124t139 -124q102 0 174 45v187q-72 16 -143 16zM290 -20q-102 0 -161 52t-59 146t65.5 145.5t188.5 51.5q55 0 165 -17v78q0 147 -167 148q-88 0 -203 -47v77q109 48 225 48t181 -57.5t65 -164.5v-434l-84 -10l-8 43q-106 -59 -208 -59z" />
    <glyph glyph-name="b.dnom" horiz-adv-x="753" 
d="M354 57q111 0 165 66.5t54 206.5q0 254 -180 254q-41 0 -91 -13.5t-81 -33.5v-459q67 -21 133 -21zM354 -20q-117 0 -237 43v931l104 11v-359q106 56 213 56t177.5 -90t70.5 -252t-83 -251t-245 -89z" />
    <glyph glyph-name="c.dnom" horiz-adv-x="626" 
d="M72 321.5q0 161.5 77.5 251t200.5 89.5t209 -41v-78q-92 39 -183 39t-143.5 -66.5t-52.5 -194.5t52.5 -195t145.5 -67t185 39v-78q-87 -40 -211 -40t-202 90t-78 251.5z" />
    <glyph glyph-name="d.dnom" horiz-adv-x="753" 
d="M360 57q92 0 172 47v459q-72 20 -133 21q-111 0 -165 -66.5t-54 -206.5q0 -254 180 -254zM72 320q0 162 80.5 252t234.5 90q74 0 145 -21v313l105 11v-959l-86 -10l-8 45q-103 -61 -217 -61q-113 0 -183.5 89t-70.5 251z" />
    <glyph glyph-name="e.dnom" horiz-adv-x="679" 
d="M516 406q0 180 -161 180q-79 0 -128 -58.5t-53 -154.5h340q2 18 2 33zM401 59q102 0 181 39v-78q-88 -41 -195 -40q-152 0 -233.5 90t-81.5 248t79.5 251t201.5 93t189.5 -72t67.5 -195q0 -39 -12 -96h-424q6 -240 227 -240z" />
    <glyph glyph-name="f.dnom" horiz-adv-x="436" 
d="M344 897q-108 0 -108 -119v-137h153v-76h-153v-565h-105v565h-96v72l96 4v133q0 201 191 201q49 0 110 -19v-73q-53 14 -88 14z" />
    <glyph glyph-name="g.dnom" horiz-adv-x="753" 
d="M360 70q96 0 172 47v446q-72 20 -133 21q-111 0 -165 -66.5t-54 -206.5q0 -241 180 -241zM320 -8q-108 0 -178 84t-70 246t83 251t244 89q119 0 238 -50v-628q0 -131 -78 -204t-205 -73t-215 41l-12 80q113 -43 201 -43q205 0 204 188v74q-104 -55 -212 -55z" />
    <glyph glyph-name="h.dnom" horiz-adv-x="765" 
d="M436 662q106 0 164.5 -55.5t58.5 -151.5v-455h-104v440q0 143 -143 144q-95 0 -191 -49v-535h-104v954l104 11v-359q109 56 215 56z" />
    <glyph glyph-name="i.dnom" horiz-adv-x="337" 
d="M168 793q-33 0 -52.5 18t-19.5 51t19.5 51.5t52.5 18.5t52.5 -18.5t19.5 -51.5t-19.5 -51t-52.5 -18zM117 0v635l104 10v-645h-104z" />
    <glyph glyph-name="j.dnom" horiz-adv-x="337" 
d="M168 793q-33 0 -52.5 18t-19.5 51t19.5 51.5t52.5 18.5t52.5 -18.5t19.5 -51.5t-19.5 -51t-52.5 -18zM117 -23v658l104 10v-655q0 -266 -241 -277l-19 86q156 0 156 178z" />
    <glyph glyph-name="k.dnom" horiz-adv-x="634" 
d="M117 0v954l104 11v-598l281 274h121l-301 -297l311 -344h-129l-283 313v-313h-104z" />
    <glyph glyph-name="l.dnom" horiz-adv-x="337" 
d="M117 0v954l104 11v-965h-104z" />
    <glyph glyph-name="m.dnom" horiz-adv-x="1105" 
d="M416 662q105 0 159 -76q49 35 112 55.5t114 20.5q92 0 145 -53.5t53 -143.5v-465h-104v451q0 133 -123 133q-84 0 -170 -54q8 -27 8 -65v-465h-104v451q0 133 -123 133q-84 0 -162 -47v-537h-104v635l86 10l8 -45q100 62 205 62z" />
    <glyph glyph-name="n.dnom" horiz-adv-x="765" 
d="M433 662q109 0 167.5 -55.5t58.5 -151.5v-455h-104v440q0 143 -143 144q-95 0 -191 -49v-535h-104v635l86 10l8 -45q113 62 222 62z" />
    <glyph glyph-name="o.dnom" horiz-adv-x="733" 
d="M366.5 57q96.5 0 141.5 63.5t45 199.5t-45 200t-141.5 64t-141.5 -63.5t-45 -199.5t45 -200t141.5 -64zM366.5 -20q-143.5 0 -219 88t-75.5 253.5t76.5 253t218 87.5t218.5 -87.5t77 -253t-76 -253.5t-219.5 -88z" />
    <glyph glyph-name="p.dnom" horiz-adv-x="753" 
d="M393 584q-41 0 -91 -13.5t-81 -33.5v-459q68 -20 133 -21q111 0 165 66.5t54 206.5q0 254 -180 254zM431 662q110 0 180.5 -89t70.5 -251t-81 -252t-234 -90q-74 0 -146 20v-272l-104 -11v918l86 10l8 -45q110 62 220 62z" />
    <glyph glyph-name="q.dnom" horiz-adv-x="753" 
d="M360 57q92 0 172 47v459q-72 20 -133 21q-111 0 -165 -66.5t-54 -206.5q0 -254 180 -254zM320 -20q-108 0 -178 89t-70 251t83 252t244 90q119 0 238 -50v-884l-105 -11v318q-104 -55 -212 -55z" />
    <glyph glyph-name="r.dnom" horiz-adv-x="479" 
d="M117 0v635l86 10l10 -59q78 72 182 71q29 0 54 -8v-84q-20 6 -60 6q-100 0 -168 -61v-510h-104z" />
    <glyph glyph-name="s.dnom" horiz-adv-x="585" 
d="M317 584q-141 0 -141 -97q0 -33 22.5 -54t82.5 -44l81 -31q86 -33 124 -77.5t38 -123.5t-65.5 -128t-181.5 -49t-199 38l-15 82q117 -43 203 -43q156 0 156 111q0 41 -21.5 63.5t-87.5 47.5l-80 30q-84 33 -121.5 74t-37.5 111t64.5 119t166.5 49t182 -37v-78
q-86 37 -170 37z" />
    <glyph glyph-name="t.dnom" horiz-adv-x="471" 
d="M236 180q0 -117 106 -117q37 0 84 15v-74q-49 -18 -107 -18q-188 0 -188 194v385h-96v72l100 4l10 162l91 10v-172h184v-76h-184v-385z" />
    <glyph glyph-name="u.dnom" horiz-adv-x="755" 
d="M102 186v455h105v-440q0 -143 137 -144q95 0 191 47v537h104v-635l-86 -10l-8 45q-103 -61 -216 -61q-112 0 -169.5 55t-57.5 151z" />
    <glyph glyph-name="v.dnom" horiz-adv-x="638" 
d="M268 0l-252 641h107l199 -545l198 545h103l-252 -641h-103z" />
    <glyph glyph-name="w.dnom" horiz-adv-x="970" 
d="M662 0l-177 539l-170 -539h-98l-201 641h105l149 -530l162 530h111l166 -532l145 532h100l-194 -641h-98z" />
    <glyph glyph-name="x.dnom" horiz-adv-x="608" 
d="M16 0l230 326l-215 315h110l164 -244l166 244h109l-220 -311l232 -330h-113l-178 258l-180 -258h-105z" />
    <glyph glyph-name="y.dnom" horiz-adv-x="638" 
d="M31 -201q88 12 143 56.5t98 136.5l-256 649h107l199 -545l198 545h103l-246 -625q-41 -102 -83 -163.5t-98.5 -94t-140.5 -45.5z" />
    <glyph glyph-name="z.dnom" horiz-adv-x="622" 
d="M551 76v-76h-483v72l356 493h-348v76h469v-72l-359 -493h365z" />
    <glyph glyph-name="a.numr" horiz-adv-x="696" 
d="M176 714q0 -124 139 -124q105 0 174 45v186q-72 16 -143 17q-170 0 -170 -124zM290 514q-102 0 -162 52q-58 52 -58 146t65 146q66 51 189 51q55 0 165 -16v78q0 147 -167 147q-88 0 -203 -47v78q109 47 225 47t182 -57q64 -57 64 -164v-434l-84 -11l-8 43
q-106 -59 -208 -59z" />
    <glyph glyph-name="b.numr" horiz-adv-x="753" 
d="M354 592q111 0 165 66t54 206q0 254 -180 254q-41 0 -91 -13t-81 -34v-459q67 -20 133 -20zM354 514q-117 0 -237 43v932l104 10v-358q106 55 197 55q124 0 194 -89t70 -252t-83 -252t-245 -89z" />
    <glyph glyph-name="c.numr" horiz-adv-x="626" 
d="M351 514q-123 0 -201 90t-78 252t78 251t200 89t209 -41v-78q-92 39 -183 39t-144 -66q-52 -67 -52 -195t52 -195q52 -66 146 -66t185 39v-78q-89 -41 -212 -41z" />
    <glyph glyph-name="d.numr" horiz-adv-x="753" 
d="M360 592q96 0 172 47v459q-72 20 -133 20q-111 0 -165 -66t-54 -206q0 -254 180 -254zM326 514q-113 0 -184 89q-70 89 -70 251t81 252t234 90q74 0 145 -20v313l105 10v-958l-86 -11l-8 45q-104 -61 -217 -61z" />
    <glyph glyph-name="e.numr" horiz-adv-x="679" 
d="M516 940q0 180 -161 180q-79 0 -128 -58t-53 -155h340q2 18 2 33zM401 594q102 0 181 39v-78q-88 -41 -195 -41q-151 0 -233 90t-82 248t80 251t202 93t189 -72q68 -72 67 -194q0 -39 -12 -96h-424q6 -240 227 -240z" />
    <glyph glyph-name="f.numr" horiz-adv-x="436" 
d="M236 1176h153v-76h-153v-565h-105v565h-96v71l96 5v133q0 200 191 200q49 0 110 -18v-74q-53 14 -88 15q-110 0 -108 -119v-137z" />
    <glyph glyph-name="g.numr" horiz-adv-x="753" 
d="M360 604q96 0 172 47v447q-72 20 -133 20q-111 0 -165 -66t-54 -206q0 -242 180 -242zM399 1196q119 0 238 -49v-629q0 -131 -78 -204q-78 -72 -205 -72t-215 41l-12 79q113 -43 201 -43q205 0 204 189v74q-104 -56 -212 -56t-178 84t-70 246t83 251t244 89z" />
    <glyph glyph-name="h.numr" horiz-adv-x="765" 
d="M435 1196q107 0 165 -55t59 -152v-454h-104v440q0 143 -143 143q-99 0 -191 -49v-534h-104v954l104 10v-358q107 55 214 55z" />
    <glyph glyph-name="i.numr" horiz-adv-x="337" 
d="M168 1466q70 0 72 -69q0 -33 -20 -51t-52 -19q-33 1 -52 19t-20 51q0 33 20 51t52 18zM117 535v634l104 11v-645h-104z" />
    <glyph glyph-name="j.numr" horiz-adv-x="337" 
d="M168 1466q70 0 72 -69q0 -33 -20 -51t-52 -19q-33 1 -52 19t-20 51q0 33 20 51t52 18zM117 512v657l104 11v-656q0 -266 -241 -276l-19 86q156 0 156 178z" />
    <glyph glyph-name="k.numr" horiz-adv-x="634" 
d="M117 535v954l104 10v-598l281 275h121l-301 -297l311 -344h-129l-283 313v-313h-104z" />
    <glyph glyph-name="l.numr" horiz-adv-x="337" 
d="M117 535v954l104 10v-964h-104z" />
    <glyph glyph-name="m.numr" horiz-adv-x="1105" 
d="M787 1196q106 0 159 -53t53 -144v-464h-104v450q0 133 -123 133q-84 0 -170 -53q8 -27 8 -66v-464h-104v450q0 133 -123 133q-84 0 -162 -47v-536h-104v634l86 11l8 -45q99 61 204 61q106 0 160 -76q106 76 212 76z" />
    <glyph glyph-name="n.numr" horiz-adv-x="765" 
d="M432 1196q110 0 168 -55t59 -152v-454h-104v440q0 143 -143 143q-99 0 -191 -49v-534h-104v634l86 11l8 -45q111 61 221 61z" />
    <glyph glyph-name="o.numr" horiz-adv-x="733" 
d="M367 592q96 0 141 63t45 199t-45 200t-141 64q-95 0 -141 -63t-46 -199t45 -201q46 -63 142 -63zM367 514q-143 0 -220 88q-76 88 -75 254q0 166 76 253t218 87t219 -87t77 -253t-76 -254t-219 -88z" />
    <glyph glyph-name="p.numr" horiz-adv-x="753" 
d="M393 1118q-41 0 -91 -13t-81 -34v-459q68 -20 133 -20q111 0 165 66t54 206q0 254 -180 254zM430 1196q112 0 182 -89t70 -251t-81 -252t-234 -90q-74 0 -146 21v-273l-104 -10v917l86 11l8 -45q108 61 219 61z" />
    <glyph glyph-name="q.numr" horiz-adv-x="753" 
d="M360 592q96 0 172 47v459q-72 20 -133 20q-111 0 -165 -66t-54 -206q0 -254 180 -254zM320 514q-108 0 -178 89t-70 252t83 252t244 89q119 0 238 -49v-885l-105 -10v317q-104 -55 -212 -55z" />
    <glyph glyph-name="r.numr" horiz-adv-x="479" 
d="M117 535v634l86 11l10 -60q78 72 182 72q29 0 54 -8v-84q-20 6 -60 6q-100 0 -168 -62v-509h-104z" />
    <glyph glyph-name="s.numr" horiz-adv-x="585" 
d="M317 1118q-141 0 -141 -96q0 -32 23 -54t82 -44l81 -31q86 -33 124 -78t38 -123t-65 -129q-66 -49 -182 -49t-199 39l-15 82q117 -43 203 -43q156 0 156 110q0 41 -22 64t-87 47l-80 31q-83 33 -121 74q-38 42 -38 112t64 118q65 48 167 48t182 -37v-78q-86 37 -170 37z
" />
    <glyph glyph-name="t.numr" horiz-adv-x="471" 
d="M236 715q0 -117 106 -117q37 0 84 14v-73q-49 -18 -107 -19q-188 0 -188 195v385h-96v71l100 5l10 161l91 11v-172h184v-76h-184v-385z" />
    <glyph glyph-name="u.numr" horiz-adv-x="755" 
d="M329 514q-112 0 -169 55t-58 152v455h105v-441q0 -143 137 -143q97 0 191 47v537h104v-635l-86 -11l-8 45q-104 -61 -216 -61z" />
    <glyph glyph-name="v.numr" horiz-adv-x="638" 
d="M268 535l-252 641h107l199 -545l198 545h103l-252 -641h-103z" />
    <glyph glyph-name="w.numr" horiz-adv-x="970" 
d="M662 535l-177 538l-170 -538h-98l-201 641h105l149 -531l162 531h111l166 -533l145 533h100l-194 -641h-98z" />
    <glyph glyph-name="x.numr" horiz-adv-x="608" 
d="M16 535l230 325l-215 316h110l164 -244l166 244h109l-220 -312l232 -329h-113l-178 258l-180 -258h-105z" />
    <glyph glyph-name="y.numr" horiz-adv-x="638" 
d="M31 334q88 12 143 56t98 136l-256 650h107l199 -545l198 545h103l-246 -625q-41 -101 -83 -163t-98 -95t-141 -45z" />
    <glyph glyph-name="z.numr" horiz-adv-x="622" 
d="M551 610v-75h-483v71l356 494h-348v76h469v-72l-359 -494h365z" />
    <glyph glyph-name="glyph444" horiz-adv-x="421" 
d="M211 684q-41 0 -68 26t-27 68t27 69q27 25 68 25t68 -26t27 -68t-28 -68q-26 -26 -67 -26z" />
    <glyph glyph-name="glyph445" horiz-adv-x="421" 
d="M211 684q-41 0 -68 26t-27 68t27 69q27 25 68 25t68 -26t27 -68t-28 -68q-26 -26 -67 -26z" />
    <glyph glyph-name="glyph454" horiz-adv-x="655" 
d="M201 0v936h-156v88l156 6v232q0 152 74.5 232.5t218.5 80.5q66 0 120 -16v-93q-55 12 -104 13q-96 0 -141 -50.5t-45 -156.5v-242h276v-94h-276v-936h-123z" />
    <glyph glyph-name="glyph455" horiz-adv-x="1282" 
d="M201 0v936h-156v88l156 6v232q0 152 74.5 232.5t218.5 80.5q74 0 141 -23v-92q-63 18 -142 18t-124 -50t-45 -156v-242h503v232q0 152 75 232.5t218 80.5q66 0 121 -16v-93q-55 12 -104 13q-96 0 -141.5 -50.5t-45.5 -156.5v-242h277v-94h-277v-936h-123v936h-503v-936
h-123z" />
    <glyph glyph-name="glyph496" horiz-adv-x="0" 
d="M-10 -442q164 0 164 114q0 49 -35 78t-94 29t-103 -19l-49 47l90 213h92l-75 -174q31 6 71 7q92 0 147.5 -50.5t55.5 -137.5t-71.5 -142t-178 -55t-192.5 43l-9 90q94 -43 187 -43z" />
    <glyph glyph-name="glyph497" horiz-adv-x="0" 
d="M-16 -895q172 0 172 117q0 49 -36 78.5t-95 29.5t-103 -18l-47 45l90 213h88l-76 -176q35 6 74 6q90 0 145.5 -49t55.5 -136t-71.5 -141.5t-179 -54.5t-187.5 43l-9 86q93 -43 179 -43z" />
    <glyph glyph-name="glyph500" horiz-adv-x="0" 
d="M-90 -338q0 41 24.5 65.5t66.5 24.5t65.5 -31.5t23.5 -90t-35 -136.5t-90 -141l-49 33q53 96 57 192q-63 12 -63 84z" />
    <glyph glyph-name="glyph501" horiz-adv-x="0" 
d="M-88 -786q0 39 23.5 63.5t64.5 24.5q88 0 88 -119q0 -59 -34 -136t-89 -141l-47 31q53 96 57 193q-63 12 -63 84z" />
    <glyph glyph-name="glyph504" horiz-adv-x="0" 
d="M-209 -260q0 129 180 268l99 -8q-170 -127 -170 -236q0 -90 102 -90q31 0 68 9v-89q-41 -10 -113 -10t-119 41t-47 115z" />
    <glyph glyph-name="glyph505" horiz-adv-x="0" 
d="M-207 -259q0 156 191 312l84 -16q-170 -145 -170 -273q0 -92 102 -92q31 0 68 9v-84q-41 -10 -112 -10.5t-117 39.5t-46 115z" />
    <glyph glyph-name="glyph506" horiz-adv-x="0" 
d="M-209 -260q0 147 197 311l96 -8q-184 -154 -184 -279q0 -90 102 -90q31 0 68 9v-89q-41 -10 -113 -10t-119 41t-47 115z" />
    <glyph glyph-name="glyph537" horiz-adv-x="0" 
d="M-119 1620l223 252h162l-270 -252h-115z" />
    <glyph glyph-name="glyph538" horiz-adv-x="0" 
d="M-117 1735l228 247h157l-274 -247h-111z" />
    <glyph glyph-name="glyph541" horiz-adv-x="0" 
d="M-272 1620l223 252h162l-271 -252h-114zM35 1620l223 252h162l-270 -252h-115z" />
    <glyph glyph-name="glyph542" horiz-adv-x="0" 
d="M37 1735l229 247h158l-277 -247h-110zM-270 1735l229 247h158l-277 -247h-110z" />
    <glyph glyph-name="Iacute_J.locl" horiz-adv-x="1519" 
d="M868 76q330 0 330 395v963h129v-963q0 -248 -113 -375t-333 -127q-131 0 -258 56l-21 108q141 -57 266 -57zM203 0v1434h129v-1434h-129zM147 1620l224 252h161l-270 -252h-115zM1145 1620l223 252h162l-270 -252h-115z" />
    <glyph glyph-name="iacute_j.locl" horiz-adv-x="933" 
d="M639 -53v1073l123 16v-1077q0 -197 -95 -307t-272 -113l-24 101q131 0 199 78t69 229zM172 0v1020l123 16v-1036h-123zM117 1200l227 281h156l-273 -281h-110zM584 1200l227 281h156l-273 -281h-110z" />
    <glyph glyph-name="glyph577" horiz-adv-x="0" 
d="M4 1620l-270 252h162l223 -252h-115z" />
    <glyph glyph-name="glyph578" horiz-adv-x="0" 
d="M6 1735l-274 247h157l228 -247h-111z" />
    <glyph glyph-name="glyph596" horiz-adv-x="0" 
d="M174 1620l-174 170l-174 -170h-109l224 252h118l224 -252h-109z" />
    <glyph glyph-name="glyph597" horiz-adv-x="0" 
d="M182 1735l-182 170l-182 -170h-105l230 247h114l230 -247h-105z" />
    <glyph glyph-name="glyph600" horiz-adv-x="0" 
d="M-113 1745q-73 0 -77 -88h-93q2 88 44 134t113 46t127 -38t73.5 -46t38.5 -8q73 0 77 88h93q-2 -88 -44 -134t-113 -46t-127 38t-73.5 46t-38.5 8z" />
    <glyph glyph-name="glyph601" horiz-adv-x="0" 
d="M-113 1860q-74 0 -80 -88h-88q6 176 162 176q62 0 119 -38.5t74.5 -46.5t38.5 -8q74 0 80 89h88q-6 -176 -162 -177q-62 0 -119 38.5t-74.5 46.5t-38.5 8z" />
    <glyph glyph-name="glyph638" horiz-adv-x="0" 
d="M-174 1872l174 -172l174 172h109l-224 -252h-118l-224 252h109z" />
    <glyph glyph-name="glyph639" horiz-adv-x="0" 
d="M-182 1982l182 -172l182 172h105l-230 -247h-114l-230 247h105z" />
    <glyph glyph-name="glyph642" horiz-adv-x="0" 
d="M-45 901v350h119l-31 -350h-88z" />
    <glyph glyph-name="glyph644" horiz-adv-x="0" 
d="M-276 1696v98h552v-98h-552z" />
    <glyph glyph-name="glyph645" horiz-adv-x="0" 
d="M-274 1810v97h548v-97h-548z" />
    <glyph glyph-name="glyph679" horiz-adv-x="0" 
d="M202 1688q-40 0 -64.5 24.5t-24.5 64.5t24.5 63.5t64.5 23.5t63.5 -23.5t23.5 -63.5t-23.5 -64.5t-63.5 -24.5zM-202 1688q-40 0 -63.5 24.5t-23.5 64.5t23.5 63.5t63.5 23.5t64.5 -23.5t24.5 -63.5t-24.5 -64.5t-64.5 -24.5z" />
    <glyph glyph-name="glyph680" horiz-adv-x="0" 
d="M202 1804q-40 0 -63.5 23.5t-23.5 63.5t23.5 62.5t63.5 22.5t62.5 -22.5t22.5 -62.5t-22.5 -63.5t-62.5 -23.5zM-202 1804q-40 0 -62.5 23.5t-22.5 63.5t22.5 62.5t62.5 22.5t63.5 -22.5t23.5 -62.5t-23.5 -63.5t-63.5 -23.5z" />
    <glyph glyph-name="glyph683" horiz-adv-x="0" 
d="M0 1634q-125 0 -202 60.5t-81 160.5h103q2 -57 51 -91.5t129 -34.5t129 34.5t51 91.5h103q-4 -100 -81 -160.5t-202 -60.5z" />
    <glyph glyph-name="glyph684" horiz-adv-x="0" 
d="M0 1749q-123 0 -197.5 57.5t-83.5 159.5h99q6 -59 53 -93t129 -34t129 34t53 93h99q-8 -102 -83 -159.5t-198 -57.5z" />
    <glyph glyph-name="glyph713" horiz-adv-x="0" 
d="M0 1681q-45 0 -70.5 25t-25.5 70t25.5 69.5t70.5 24.5t70.5 -24.5t25.5 -69.5t-25.5 -70t-70.5 -25z" />
    <glyph glyph-name="glyph714" horiz-adv-x="0" 
d="M0 1798q-41 0 -66.5 24.5t-25.5 67.5t25.5 67.5t66.5 24.5t66.5 -24.5t25.5 -67.5t-25.5 -67.5t-66.5 -24.5z" />
    <glyph glyph-name="glyph726" horiz-adv-x="0" 
d="M0 1634q-100 0 -159.5 56.5t-59.5 146.5t59.5 146.5t159.5 56.5t159.5 -56.5t59.5 -146.5t-59.5 -146.5t-159.5 -56.5zM0 1714q59 0 95 33t36 90t-36 90t-95 33t-95 -33t-36 -90t36 -90t95 -33z" />
    <glyph glyph-name="glyph727" horiz-adv-x="0" 
d="M0 1827q61 0 96 33.5t35 89t-35 89.5t-96 34t-96 -34t-35 -89.5t35 -89t96 -33.5zM0 1749q-98 0 -157.5 56.5t-59.5 144.5t59.5 144t157.5 56t157.5 -56t59.5 -144t-59.5 -144.5t-157.5 -56.5z" />
    </font>
</defs>
</svg>
